<?xml version="1.0" encoding="UTF-8"?>
<!--Generator: Apple Native CoreSVG 175-->
<!DOCTYPE svg
PUBLIC "-//W3C//DTD SVG 1.1//EN"
       "http://www.w3.org/Graphics/SVG/1.1/DTD/svg11.dtd">
<svg version="1.1" xmlns="http://www.w3.org/2000/svg" xmlns:xlink="http://www.w3.org/1999/xlink" width="3300" height="2200">
 <!--glyph: "uni100148.medium", point size: 100.0, font version: "17.0d12e1", template writer version: "65.1"-->
 <g id="Notes">
  <rect height="2200" id="artboard" style="fill:white;opacity:1" width="3300" x="0" y="0"/>
  <line style="fill:none;stroke:black;opacity:1;stroke-width:0.5;" x1="263" x2="3036" y1="292" y2="292"/>
  <text style="stroke:none;fill:black;font-family:sans-serif;font-size:13;font-weight:bold;" transform="matrix(1 0 0 1 263 322)">Weight/Scale Variations</text>
  <text style="stroke:none;fill:black;font-family:sans-serif;font-size:13;text-anchor:middle;" transform="matrix(1 0 0 1 559.711 322)">Ultralight</text>
  <text style="stroke:none;fill:black;font-family:sans-serif;font-size:13;text-anchor:middle;" transform="matrix(1 0 0 1 856.422 322)">Thin</text>
  <text style="stroke:none;fill:black;font-family:sans-serif;font-size:13;text-anchor:middle;" transform="matrix(1 0 0 1 1153.13 322)">Light</text>
  <text style="stroke:none;fill:black;font-family:sans-serif;font-size:13;text-anchor:middle;" transform="matrix(1 0 0 1 1449.84 322)">Regular</text>
  <text style="stroke:none;fill:black;font-family:sans-serif;font-size:13;text-anchor:middle;" transform="matrix(1 0 0 1 1746.56 322)">Medium</text>
  <text style="stroke:none;fill:black;font-family:sans-serif;font-size:13;text-anchor:middle;" transform="matrix(1 0 0 1 2043.27 322)">Semibold</text>
  <text style="stroke:none;fill:black;font-family:sans-serif;font-size:13;text-anchor:middle;" transform="matrix(1 0 0 1 2339.98 322)">Bold</text>
  <text style="stroke:none;fill:black;font-family:sans-serif;font-size:13;text-anchor:middle;" transform="matrix(1 0 0 1 2636.69 322)">Heavy</text>
  <text style="stroke:none;fill:black;font-family:sans-serif;font-size:13;text-anchor:middle;" transform="matrix(1 0 0 1 2933.4 322)">Black</text>
  <line style="fill:none;stroke:black;opacity:1;stroke-width:0.5;" x1="263" x2="3036" y1="1903" y2="1903"/>
  <g transform="matrix(1 0 0 1 263 1933)">
   <path d="M9.24805 0.830078Q10.8691 0.830078 12.2949 0.214844Q13.7207-0.400391 14.8096-1.49414Q15.8984-2.58789 16.5186-4.01367Q17.1387-5.43945 17.1387-7.05078Q17.1387-8.66211 16.5186-10.0879Q15.8984-11.5137 14.8047-12.6074Q13.7109-13.7012 12.2852-14.3164Q10.8594-14.9316 9.23828-14.9316Q7.62695-14.9316 6.20117-14.3164Q4.77539-13.7012 3.69141-12.6074Q2.60742-11.5137 1.9873-10.0879Q1.36719-8.66211 1.36719-7.05078Q1.36719-5.43945 1.9873-4.01367Q2.60742-2.58789 3.69629-1.49414Q4.78516-0.400391 6.21094 0.214844Q7.63672 0.830078 9.24805 0.830078ZM9.24805-0.654297Q7.91992-0.654297 6.7627-1.14746Q5.60547-1.64062 4.73145-2.51953Q3.85742-3.39844 3.36426-4.56055Q2.87109-5.72266 2.87109-7.05078Q2.87109-8.37891 3.35938-9.54102Q3.84766-10.7031 4.72168-11.582Q5.5957-12.4609 6.75293-12.9541Q7.91016-13.4473 9.23828-13.4473Q10.5762-13.4473 11.7334-12.9541Q12.8906-12.4609 13.7695-11.582Q14.6484-10.7031 15.1465-9.54102Q15.6445-8.37891 15.6445-7.05078Q15.6445-5.72266 15.1514-4.56055Q14.6582-3.39844 13.7842-2.51953Q12.9102-1.64062 11.748-1.14746Q10.5859-0.654297 9.24805-0.654297ZM5.6543-7.05078Q5.6543-6.72852 5.85938-6.52832Q6.06445-6.32812 6.40625-6.32812L8.51562-6.32812L8.51562-4.20898Q8.51562-3.88672 8.71094-3.67676Q8.90625-3.4668 9.23828-3.4668Q9.56055-3.4668 9.77051-3.67676Q9.98047-3.88672 9.98047-4.20898L9.98047-6.32812L12.0898-6.32812Q12.4219-6.32812 12.627-6.52832Q12.832-6.72852 12.832-7.05078Q12.832-7.38281 12.627-7.58789Q12.4219-7.79297 12.0898-7.79297L9.98047-7.79297L9.98047-9.90234Q9.98047-10.2344 9.77051-10.4443Q9.56055-10.6543 9.23828-10.6543Q8.90625-10.6543 8.71094-10.4443Q8.51562-10.2344 8.51562-9.90234L8.51562-7.79297L6.40625-7.79297Q6.06445-7.79297 5.85938-7.58789Q5.6543-7.38281 5.6543-7.05078Z"/>
  </g>
  <g transform="matrix(1 0 0 1 281.867 1933)">
   <path d="M11.709 2.91016Q13.75 2.91016 15.5518 2.12891Q17.3535 1.34766 18.7305-0.0292969Q20.1074-1.40625 20.8887-3.20801Q21.6699-5.00977 21.6699-7.05078Q21.6699-9.0918 20.8887-10.8936Q20.1074-12.6953 18.7305-14.0723Q17.3535-15.4492 15.5469-16.2305Q13.7402-17.0117 11.6992-17.0117Q9.6582-17.0117 7.85645-16.2305Q6.05469-15.4492 4.68262-14.0723Q3.31055-12.6953 2.5293-10.8936Q1.74805-9.0918 1.74805-7.05078Q1.74805-5.00977 2.5293-3.20801Q3.31055-1.40625 4.6875-0.0292969Q6.06445 1.34766 7.86621 2.12891Q9.66797 2.91016 11.709 2.91016ZM11.709 1.25Q9.98047 1.25 8.47656 0.605469Q6.97266-0.0390625 5.83496-1.17676Q4.69727-2.31445 4.05762-3.81836Q3.41797-5.32227 3.41797-7.05078Q3.41797-8.7793 4.05762-10.2832Q4.69727-11.7871 5.83008-12.9297Q6.96289-14.0723 8.4668-14.7119Q9.9707-15.3516 11.6992-15.3516Q13.4277-15.3516 14.9316-14.7119Q16.4355-14.0723 17.5781-12.9297Q18.7207-11.7871 19.3652-10.2832Q20.0098-8.7793 20.0098-7.05078Q20.0098-5.32227 19.3701-3.81836Q18.7305-2.31445 17.5928-1.17676Q16.4551-0.0390625 14.9463 0.605469Q13.4375 1.25 11.709 1.25ZM7.17773-7.05078Q7.17773-6.69922 7.41211-6.47461Q7.64648-6.25 8.01758-6.25L10.8887-6.25L10.8887-3.36914Q10.8887-2.99805 11.1133-2.76855Q11.3379-2.53906 11.6895-2.53906Q12.0605-2.53906 12.29-2.76855Q12.5195-2.99805 12.5195-3.36914L12.5195-6.25L15.4004-6.25Q15.7715-6.25 16.001-6.47461Q16.2305-6.69922 16.2305-7.05078Q16.2305-7.42188 16.001-7.65137Q15.7715-7.88086 15.4004-7.88086L12.5195-7.88086L12.5195-10.752Q12.5195-11.1328 12.29-11.3623Q12.0605-11.5918 11.6895-11.5918Q11.3379-11.5918 11.1133-11.3574Q10.8887-11.123 10.8887-10.752L10.8887-7.88086L8.01758-7.88086Q7.63672-7.88086 7.40723-7.65137Q7.17773-7.42188 7.17773-7.05078Z"/>
  </g>
  <g transform="matrix(1 0 0 1 305.646 1933)">
   <path d="M14.9707 5.66406Q17.0605 5.66406 18.96 5.01465Q20.8594 4.36523 22.4512 3.19336Q24.043 2.02148 25.2197 0.429688Q26.3965-1.16211 27.0459-3.06641Q27.6953-4.9707 27.6953-7.05078Q27.6953-9.14062 27.0459-11.04Q26.3965-12.9395 25.2197-14.5312Q24.043-16.123 22.4512-17.2998Q20.8594-18.4766 18.9551-19.126Q17.0508-19.7754 14.9609-19.7754Q12.8711-19.7754 10.9717-19.126Q9.07227-18.4766 7.48535-17.2998Q5.89844-16.123 4.72168-14.5312Q3.54492-12.9395 2.90039-11.04Q2.25586-9.14062 2.25586-7.05078Q2.25586-4.9707 2.90527-3.06641Q3.55469-1.16211 4.72656 0.429688Q5.89844 2.02148 7.49023 3.19336Q9.08203 4.36523 10.9814 5.01465Q12.8809 5.66406 14.9707 5.66406ZM14.9707 3.84766Q13.1641 3.84766 11.5283 3.2959Q9.89258 2.74414 8.53516 1.74805Q7.17773 0.751953 6.17676-0.610352Q5.17578-1.97266 4.62891-3.6084Q4.08203-5.24414 4.08203-7.05078Q4.08203-8.86719 4.62891-10.5029Q5.17578-12.1387 6.17188-13.501Q7.16797-14.8633 8.52539-15.8594Q9.88281-16.8555 11.5186-17.4023Q13.1543-17.9492 14.9609-17.9492Q16.7773-17.9492 18.4131-17.4023Q20.0488-16.8555 21.4111-15.8594Q22.7734-14.8633 23.7695-13.501Q24.7656-12.1387 25.3174-10.5029Q25.8691-8.86719 25.8691-7.05078Q25.8789-5.24414 25.332-3.6084Q24.7852-1.97266 23.7842-0.610352Q22.7832 0.751953 21.4209 1.74805Q20.0586 2.74414 18.4229 3.2959Q16.7871 3.84766 14.9707 3.84766ZM9.19922-7.05078Q9.19922-6.66992 9.45801-6.4209Q9.7168-6.17188 10.1172-6.17188L14.0625-6.17188L14.0625-2.2168Q14.0625-1.81641 14.3115-1.55762Q14.5605-1.29883 14.9512-1.29883Q15.3516-1.29883 15.6104-1.55273Q15.8691-1.80664 15.8691-2.2168L15.8691-6.17188L19.8242-6.17188Q20.2246-6.17188 20.4785-6.4209Q20.7324-6.66992 20.7324-7.05078Q20.7324-7.46094 20.4785-7.71484Q20.2246-7.96875 19.8242-7.96875L15.8691-7.96875L15.8691-11.9141Q15.8691-12.3242 15.6104-12.583Q15.3516-12.8418 14.9512-12.8418Q14.5605-12.8418 14.3115-12.583Q14.0625-12.3242 14.0625-11.9141L14.0625-7.96875L10.1172-7.96875Q9.70703-7.96875 9.45312-7.71484Q9.19922-7.46094 9.19922-7.05078Z"/>
  </g>
  <text style="stroke:none;fill:black;font-family:sans-serif;font-size:13;font-weight:bold;" transform="matrix(1 0 0 1 263 1953)">Design Variations</text>
  <text style="stroke:none;fill:black;font-family:sans-serif;font-size:13;" transform="matrix(1 0 0 1 263 1971)">Symbols are supported in up to nine weights and three scales.</text>
  <text style="stroke:none;fill:black;font-family:sans-serif;font-size:13;" transform="matrix(1 0 0 1 263 1989)">For optimal layout with text and other symbols, vertically align</text>
  <text style="stroke:none;fill:black;font-family:sans-serif;font-size:13;" transform="matrix(1 0 0 1 263 2007)">symbols with the adjacent text.</text>
  <line style="fill:none;stroke:#00AEEF;stroke-width:0.5;opacity:1.0;" x1="776" x2="776" y1="1919" y2="1933"/>
  <g transform="matrix(1 0 0 1 776 1933)">
   <path d="M3.31055 0.15625Q3.70117 0.15625 3.91602-0.00976562Q4.13086-0.175781 4.26758-0.585938L5.52734-4.0332L11.2891-4.0332L12.5488-0.585938Q12.6855-0.175781 12.9004-0.00976562Q13.1152 0.15625 13.4961 0.15625Q13.8867 0.15625 14.1162-0.0585938Q14.3457-0.273438 14.3457-0.644531Q14.3457-0.869141 14.2383-1.17188L9.6582-13.3691Q9.48242-13.8184 9.17969-14.043Q8.87695-14.2676 8.4082-14.2676Q7.5-14.2676 7.17773-13.3789L2.59766-1.16211Q2.49023-0.859375 2.49023-0.634766Q2.49023-0.263672 2.70996-0.0537109Q2.92969 0.15625 3.31055 0.15625ZM6.00586-5.51758L8.37891-12.0898L8.42773-12.0898L10.8008-5.51758Z"/>
  </g>
  <line style="fill:none;stroke:#00AEEF;stroke-width:0.5;opacity:1.0;" x1="793.197" x2="793.197" y1="1919" y2="1933"/>
  <text style="stroke:none;fill:black;font-family:sans-serif;font-size:13;font-weight:bold;" transform="matrix(1 0 0 1 776 1953)">Margins</text>
  <text style="stroke:none;fill:black;font-family:sans-serif;font-size:13;" transform="matrix(1 0 0 1 776 1971)">Leading and trailing margins on the left and right side of each symbol</text>
  <text style="stroke:none;fill:black;font-family:sans-serif;font-size:13;" transform="matrix(1 0 0 1 776 1989)">can be adjusted by modifying the x-location of the margin guidelines.</text>
  <text style="stroke:none;fill:black;font-family:sans-serif;font-size:13;" transform="matrix(1 0 0 1 776 2007)">Modifications are automatically applied proportionally to all</text>
  <text style="stroke:none;fill:black;font-family:sans-serif;font-size:13;" transform="matrix(1 0 0 1 776 2025)">scales and weights.</text>
  <g transform="matrix(1 0 0 1 1289 1933)">
   <path d="M2.8418 1.86523L4.54102 3.57422Q5.18555 4.22852 5.90332 4.17969Q6.62109 4.13086 7.31445 3.35938L18.0078-8.42773L17.041-9.4043L6.42578 2.27539Q6.16211 2.57812 5.89355 2.61719Q5.625 2.65625 5.27344 2.30469L4.10156 1.14258Q3.75 0.791016 3.79395 0.522461Q3.83789 0.253906 4.14062-0.0195312L15.6152-10.8203L14.6387-11.7871L3.04688-0.898438Q2.30469-0.214844 2.25098 0.498047Q2.19727 1.21094 2.8418 1.86523ZM9.25781-16.3281Q8.94531-16.0254 8.90625-15.6348Q8.86719-15.2441 9.04297-14.9512Q9.21875-14.6777 9.55566-14.541Q9.89258-14.4043 10.3809-14.5215Q11.4746-14.7754 12.5977-14.7314Q13.7207-14.6875 14.7949-13.9844L14.209-12.5293Q13.9551-11.9043 14.0674-11.4404Q14.1797-10.9766 14.5801-10.5664L16.875-8.25195Q17.2363-7.88086 17.5781-7.82227Q17.9199-7.76367 18.3398-7.8418L19.4043-8.03711L20.0684-7.36328L20.0293-6.80664Q20-6.43555 20.1221-6.12305Q20.2441-5.81055 20.6055-5.44922L21.3672-4.70703Q21.7285-4.3457 22.1533-4.33105Q22.5781-4.31641 22.9297-4.66797L25.8398-7.58789Q26.1914-7.93945 26.1816-8.35449Q26.1719-8.76953 25.8105-9.13086L25.0391-9.89258Q24.6875-10.2539 24.3799-10.3857Q24.0723-10.5176 23.7109-10.4883L23.1348-10.4395L22.4902-11.0742L22.7344-12.1973Q22.832-12.6172 22.6953-12.9834Q22.5586-13.3496 22.1191-13.7891L19.9219-15.9766Q18.6719-17.2168 17.2607-17.8369Q15.8496-18.457 14.4189-18.4814Q12.9883-18.5059 11.665-17.959Q10.3418-17.4121 9.25781-16.3281ZM10.752-15.957Q11.6602-16.6211 12.7002-16.9043Q13.7402-17.1875 14.8047-17.085Q15.8691-16.9824 16.8701-16.5137Q17.8711-16.0449 18.7012-15.2051L21.1328-12.793Q21.3086-12.6172 21.3525-12.4512Q21.3965-12.2852 21.3379-12.0312L21.0156-10.5469L22.5195-9.0625L23.5059-9.12109Q23.6914-9.13086 23.7891-9.09668Q23.8867-9.0625 24.0332-8.91602L24.6094-8.33984L22.168-5.89844L21.5918-6.47461Q21.4453-6.62109 21.4062-6.71875Q21.3672-6.81641 21.377-7.01172L21.4453-7.98828L19.9512-9.47266L18.4277-9.21875Q18.1836-9.16992 18.042-9.2041Q17.9004-9.23828 17.7148-9.41406L15.7129-11.416Q15.5176-11.5918 15.4932-11.7529Q15.4688-11.9141 15.5859-12.1875L16.4648-14.2773Q15.293-15.3711 13.8281-15.791Q12.3633-16.2109 10.8398-15.7617Q10.7227-15.7324 10.6885-15.8057Q10.6543-15.8789 10.752-15.957Z"/>
  </g>
  <text style="stroke:none;fill:black;font-family:sans-serif;font-size:13;font-weight:bold;" transform="matrix(1 0 0 1 1289 1953)">Exporting</text>
  <text style="stroke:none;fill:black;font-family:sans-serif;font-size:13;" transform="matrix(1 0 0 1 1289 1971)">Symbols should be outlined when exporting to ensure the</text>
  <text style="stroke:none;fill:black;font-family:sans-serif;font-size:13;" transform="matrix(1 0 0 1 1289 1989)">design is preserved when submitting to Xcode.</text>
  <text id="template-version" style="stroke:none;fill:black;font-family:sans-serif;font-size:13;text-anchor:end;" transform="matrix(1 0 0 1 3036 1933)">Template v.2.0</text>
  <text style="stroke:none;fill:black;font-family:sans-serif;font-size:13;text-anchor:end;" transform="matrix(1 0 0 1 3036 1951)">Requires Xcode 13 or greater</text>
  <text id="descriptive-name" style="stroke:none;fill:black;font-family:sans-serif;font-size:13;text-anchor:end;" transform="matrix(1 0 0 1 3036 1969)">Generated from arrow.clockwise</text>
  <text style="stroke:none;fill:black;font-family:sans-serif;font-size:13;text-anchor:end;" transform="matrix(1 0 0 1 3036 1987)">Typeset at 100 points</text>
  <text style="stroke:none;fill:black;font-family:sans-serif;font-size:13;" transform="matrix(1 0 0 1 263 726)">Small</text>
  <text style="stroke:none;fill:black;font-family:sans-serif;font-size:13;" transform="matrix(1 0 0 1 263 1156)">Medium</text>
  <text style="stroke:none;fill:black;font-family:sans-serif;font-size:13;" transform="matrix(1 0 0 1 263 1586)">Large</text>
 </g>
 <g id="Guides">
  <g id="H-reference" style="fill:#27AAE1;stroke:none;" transform="matrix(1 0 0 1 339 696)">
   <path d="M0.993347 0L3.6377 0L29.3282-67.1326L30.0301-67.1326L30.0301-70.459L28.1227-70.459ZM11.6882-24.4797L46.9818-24.4797L46.2311-26.7288L12.4382-26.7288ZM55.1193 0L57.7637 0L30.6381-70.459L29.4327-70.459L29.4327-67.1326Z"/>
  </g>
  <line id="Baseline-S" style="fill:none;stroke:#27AAE1;opacity:1;stroke-width:0.5;" x1="263" x2="3036" y1="696" y2="696"/>
  <line id="Capline-S" style="fill:none;stroke:#27AAE1;opacity:1;stroke-width:0.5;" x1="263" x2="3036" y1="625.541" y2="625.541"/>
  <g id="H-reference" style="fill:#27AAE1;stroke:none;" transform="matrix(1 0 0 1 339 1126)">
   <path d="M0.993347 0L3.6377 0L29.3282-67.1326L30.0301-67.1326L30.0301-70.459L28.1227-70.459ZM11.6882-24.4797L46.9818-24.4797L46.2311-26.7288L12.4382-26.7288ZM55.1193 0L57.7637 0L30.6381-70.459L29.4327-70.459L29.4327-67.1326Z"/>
  </g>
  <line id="Baseline-M" style="fill:none;stroke:#27AAE1;opacity:1;stroke-width:0.5;" x1="263" x2="3036" y1="1126" y2="1126"/>
  <line id="Capline-M" style="fill:none;stroke:#27AAE1;opacity:1;stroke-width:0.5;" x1="263" x2="3036" y1="1055.54" y2="1055.54"/>
  <g id="H-reference" style="fill:#27AAE1;stroke:none;" transform="matrix(1 0 0 1 339 1556)">
   <path d="M0.993347 0L3.6377 0L29.3282-67.1326L30.0301-67.1326L30.0301-70.459L28.1227-70.459ZM11.6882-24.4797L46.9818-24.4797L46.2311-26.7288L12.4382-26.7288ZM55.1193 0L57.7637 0L30.6381-70.459L29.4327-70.459L29.4327-67.1326Z"/>
  </g>
  <line id="Baseline-L" style="fill:none;stroke:#27AAE1;opacity:1;stroke-width:0.5;" x1="263" x2="3036" y1="1556" y2="1556"/>
  <line id="Capline-L" style="fill:none;stroke:#27AAE1;opacity:1;stroke-width:0.5;" x1="263" x2="3036" y1="1485.54" y2="1485.54"/>
  <line id="left-margin" style="fill:none;stroke:#00AEEF;stroke-width:0.5;opacity:1.0;" x1="1397.96" x2="1397.96" y1="1030.79" y2="1150.12"/>
  <line id="right-margin" style="fill:none;stroke:#00AEEF;stroke-width:0.5;opacity:1.0;" x1="1501.72" x2="1501.72" y1="1030.79" y2="1150.12"/>
 </g>
 <g id="Symbols">
  <g id="Black-L" transform="matrix(1 0 0 1 2863.67 1556)">
   <path d="M11.2793-31.0547Q11.2793-21.3379 14.2334-12.5732Q17.1875-3.80859 22.5586 3.51562Q27.9297 10.8398 35.2295 16.2109Q42.5293 21.582 51.2939 24.5361Q60.0586 27.4902 69.7266 27.4902Q79.4434 27.4902 88.1836 24.5361Q96.9238 21.582 104.248 16.2109Q111.572 10.8398 116.943 3.51562Q122.314-3.80859 125.244-12.5732Q128.174-21.3379 128.174-31.0547Q128.174-35.6445 125.317-38.501Q122.461-41.3574 118.018-41.3574Q113.623-41.3574 110.84-38.501Q108.057-35.6445 108.057-31.0547Q108.057-23.1445 105.078-16.1865Q102.1-9.22852 96.8262-3.97949Q91.5527 1.26953 84.6191 4.24805Q77.6855 7.22656 69.7266 7.22656Q61.8164 7.22656 54.8828 4.24805Q47.9492 1.26953 42.7002-3.97949Q37.4512-9.22852 34.4971-16.1865Q31.543-23.1445 31.543-31.0547Q31.543-39.2578 34.375-46.3135Q37.207-53.3691 42.3096-58.667Q47.4121-63.9648 54.2236-66.9189Q61.0352-69.873 68.8965-69.873Q70.166-69.873 71.3379-69.8242Q72.5098-69.7754 73.6328-69.6289L62.6465-58.8379Q61.4258-57.6172 60.6689-56.1035Q59.9121-54.5898 59.9121-52.5391Q59.9121-48.4375 62.7441-45.5811Q65.5762-42.7246 69.6289-42.7246Q73.6816-42.7246 76.3184-45.4102L101.758-71.2402Q103.271-72.8027 104.053-74.585Q104.834-76.3672 104.834-78.4668Q104.834-82.666 101.758-85.6445L76.3184-111.572Q73.6328-114.404 69.6289-114.404Q65.5762-114.404 62.7441-111.499Q59.9121-108.594 59.9121-104.492Q59.9121-102.393 60.6445-100.879Q61.377-99.3652 62.6465-98.0957L72.168-88.8672Q71.3867-88.9648 70.5566-89.0137Q69.7266-89.0625 68.8965-89.0625Q56.8359-89.0625 46.3867-84.5947Q35.9375-80.127 28.0518-72.1924Q20.166-64.2578 15.7227-53.7354Q11.2793-43.2129 11.2793-31.0547Z"/>
  </g>
  <g id="Heavy-L" transform="matrix(1 0 0 1 2567.73 1556)">
   <path d="M11.2793-31.0089Q11.2793-21.4073 14.1872-12.7464Q17.0952-4.08554 22.3915 3.1353Q27.6878 10.3561 34.8896 15.6521Q42.0914 20.948 50.7465 23.8617Q59.4017 26.7754 68.9659 26.7754Q78.5561 26.7754 87.1868 23.8617Q95.8176 20.948 103.044 15.6521Q110.27 10.3561 115.561 3.1353Q120.851-4.08554 123.746-12.7464Q126.641-21.4073 126.641-31.0089Q126.641-34.9648 124.165-37.4466Q121.689-39.9284 117.822-39.9284Q114.015-39.9284 111.624-37.4466Q109.232-34.9648 109.232-31.0089Q109.232-22.6608 106.104-15.3454Q102.975-8.02994 97.4426-2.51579Q91.9098 2.99835 84.6191 6.12679Q77.3285 9.25522 68.9659 9.25522Q60.6293 9.25522 53.3386 6.12679Q46.048 2.99835 40.5281-2.51579Q35.0082-8.02994 31.9042-15.3454Q28.8002-22.6608 28.8002-31.0089Q28.8002-39.5576 31.8108-46.936Q34.8213-54.3144 40.2294-59.8656Q45.6375-65.4167 52.8351-68.5207Q60.0327-71.6248 68.3319-71.6248Q70.2583-71.6248 72.0467-71.4954Q73.835-71.3661 75.4074-71.0693L62.1391-57.9506Q61.0573-56.8565 60.4042-55.5157Q59.7511-54.1748 59.7511-52.4124Q59.7511-48.8411 62.2028-46.3707Q64.6545-43.9003 68.177-43.9003Q71.7339-43.9003 74.025-46.2402L99.7177-72.2893Q101.07-73.6786 101.748-75.2419Q102.425-76.8051 102.425-78.6163Q102.425-82.2739 99.7177-84.9068L74.025-111.089Q71.6965-113.563 68.177-113.563Q64.6423-113.563 62.1967-111.044Q59.7511-108.524 59.7511-104.953Q59.7511-103.142 60.3798-101.801Q61.0085-100.46 62.1277-99.3286L73.8274-87.8532Q72.5967-88.0661 71.1906-88.1954Q69.7845-88.3247 68.3319-88.3247Q56.398-88.3247 46.0526-83.9088Q35.7071-79.493 27.8961-71.645Q20.0851-63.797 15.6822-53.4012Q11.2793-43.0054 11.2793-31.0089Z"/>
  </g>
  <g id="Bold-L" transform="matrix(1 0 0 1 2271.87 1556)">
   <path d="M11.2793-30.957Q11.2793-21.4844 14.1357-12.9395Q16.9922-4.39453 22.2046 2.70996Q27.417 9.81445 34.5093 15.0269Q41.6016 20.2393 50.1343 23.1079Q58.667 25.9766 68.1152 25.9766Q77.5635 25.9766 86.0718 23.1079Q94.5801 20.2393 101.697 15.0269Q108.813 9.81445 114.014 2.70996Q119.214-4.39453 122.07-12.9395Q124.927-21.4844 124.927-30.957Q124.927-34.2041 122.876-36.2671Q120.825-38.3301 117.603-38.3301Q114.453-38.3301 112.5-36.2671Q110.547-34.2041 110.547-30.957Q110.547-22.1191 107.251-14.4043Q103.955-6.68945 98.1323-0.878906Q92.3096 4.93164 84.6191 8.22754Q76.9287 11.5234 68.1152 11.5234Q59.3018 11.5234 51.6113 8.22754Q43.9209 4.93164 38.0981-0.878906Q32.2754-6.68945 29.0039-14.4043Q25.7324-22.1191 25.7324-30.957Q25.7324-39.8926 28.9429-47.6318Q32.1533-55.3711 37.9028-61.2061Q43.6523-67.041 51.2817-70.3125Q58.9111-73.584 67.7002-73.584Q70.3613-73.584 72.8394-73.3643Q75.3174-73.1445 77.3926-72.6807L61.5723-56.958Q60.6445-56.0059 60.1074-54.8584Q59.5703-53.7109 59.5703-52.2705Q59.5703-49.292 61.5967-47.2534Q63.623-45.2148 66.5527-45.2148Q69.5557-45.2148 71.46-47.168L97.4365-73.4619Q98.6084-74.6582 99.1699-75.9766Q99.7314-77.2949 99.7314-78.7842Q99.7314-81.8359 97.4365-84.082L71.46-110.547Q69.5312-112.622 66.5527-112.622Q63.5986-112.622 61.5845-110.535Q59.5703-108.447 59.5703-105.469Q59.5703-103.979 60.083-102.832Q60.5957-101.685 61.5479-100.708L75.6836-86.7188Q73.9502-87.0605 71.8994-87.2803Q69.8486-87.5 67.7002-87.5Q55.9082-87.5 45.6787-83.1421Q35.4492-78.7842 27.7222-71.0327Q19.9951-63.2812 15.6372-53.0273Q11.2793-42.7734 11.2793-30.957Z"/>
  </g>
  <g id="Semibold-L" transform="matrix(1 0 0 1 1975.75 1556)">
   <path d="M11.2793-30.9212Q11.2793-21.5378 14.1003-13.073Q16.9212-4.60815 22.0757 2.41661Q27.2301 9.44138 34.2468 14.5958Q41.2636 19.7502 49.712 22.588Q58.1604 25.4257 67.5285 25.4257Q76.8791 25.4257 85.3031 22.588Q93.7271 19.7502 100.768 14.5958Q107.809 9.44138 112.947 2.41661Q118.085-4.60815 120.915-13.073Q123.745-21.5378 123.745-30.9212Q123.745-33.68 121.988-35.4542Q120.23-37.2284 117.451-37.2284Q114.755-37.2284 113.104-35.4542Q111.453-33.68 111.453-30.9212Q111.453-21.7461 108.042-13.7558Q104.63-5.76553 98.6076 0.249481Q92.585 6.2645 84.6191 9.67598Q76.6533 13.0875 67.5285 13.0875Q58.3862 13.0875 50.4204 9.67598Q42.4545 6.2645 36.4231 0.249481Q30.3917-5.76553 27.0046-13.7558Q23.6176-21.7461 23.6176-30.9212Q23.6176-40.1237 26.9657-48.1117Q30.3139-56.0997 36.2988-62.1304Q42.2836-68.161 50.211-71.5481Q58.1383-74.9352 67.2646-74.9352Q70.4323-74.9352 73.386-74.6529Q76.3397-74.3706 78.7613-73.7915L61.1809-56.2737Q60.36-55.4192 59.903-54.4052Q59.446-53.3913 59.446-52.1729Q59.446-49.6033 61.179-47.8622Q62.912-46.1212 65.4327-46.1212Q68.0534-46.1212 69.6915-47.8081L95.8633-74.2706Q96.9109-75.3334 97.3923-76.4832Q97.8737-77.6329 97.8737-78.8994Q97.8737-81.5338 95.8633-83.5136L69.6915-110.174Q68.0382-111.974 65.4327-111.974Q62.8784-111.974 61.1622-110.184Q59.446-108.394 59.446-105.824Q59.446-104.557 59.8785-103.543Q60.3111-102.529 61.1481-101.659L76.963-85.9367Q74.8833-86.367 72.3881-86.6493Q69.8929-86.9316 67.2646-86.9316Q55.5702-86.9316 45.4208-82.6134Q35.2715-78.2951 27.602-70.6104Q19.9326-62.9257 15.6059-52.7695Q11.2793-42.6132 11.2793-30.9212Z"/>
  </g>
  <g id="Medium-L" transform="matrix(1 0 0 1 1679.49 1556)">
   <path d="M11.2793-30.8945Q11.2793-21.5782 14.0732-13.1741Q16.8671-4.7699 21.978 2.19421Q27.0889 9.15833 34.0485 14.2693Q41.008 19.3802 49.3923 22.1939Q57.7766 25.0076 67.0837 25.0076Q76.3603 25.0076 84.7202 22.1939Q93.0801 19.3802 100.064 14.2693Q107.048 9.15833 112.139 2.19421Q117.229-4.7699 120.039-13.1741Q122.849-21.5782 122.849-30.8945Q122.849-33.2825 121.313-34.8373Q119.778-36.3922 117.337-36.3922Q114.984-36.3922 113.562-34.8373Q112.141-33.2825 112.141-30.8945Q112.141-21.463 108.642-13.2637Q105.143-5.06439 98.9685 1.1055Q92.794 7.27539 84.6191 10.7746Q76.4442 14.2738 67.0837 14.2738Q57.6927 14.2738 49.5178 10.7746Q41.3429 7.27539 35.1528 1.1055Q28.9627-5.06439 25.4883-13.2637Q22.0139-21.463 22.0139-30.8945Q22.0139-40.2985 25.4665-48.4753Q28.9192-56.6521 35.0826-62.8311Q41.246-69.0102 49.3988-72.4846Q57.5516-75.959 66.9342-75.959Q70.4865-75.959 73.8003-75.6298Q77.1141-75.3006 79.7989-74.6338L60.8849-55.7549Q60.1448-54.9744 59.7481-54.0615Q59.3513-53.1487 59.3513-52.0988Q59.3513-49.839 60.8624-48.3238Q62.3734-46.8086 64.5836-46.8086Q66.9151-46.8086 68.3502-48.2933L94.6709-74.884Q95.6238-75.8461 96.0449-76.8673Q96.4661-77.8885 96.4661-78.9871Q96.4661-81.3049 94.6709-83.0818L68.3502-109.891Q66.906-111.481 64.5836-111.481Q62.3329-111.481 60.8421-109.917Q59.3513-108.353 59.3513-106.094Q59.3513-104.995 59.7237-104.082Q60.096-103.169 60.8444-102.38L77.9335-85.3439Q75.5905-85.8421 72.7585-86.171Q69.9265-86.4998 66.9342-86.4998Q55.3146-86.4998 45.2255-82.2124Q35.1364-77.9251 27.5112-70.2908Q19.886-62.6564 15.5827-52.5742Q11.2793-42.4919 11.2793-30.8945Z"/>
  </g>
  <g id="Regular-L" transform="matrix(1 0 0 1 1383.36 1556)">
   <path d="M11.2793-30.8594Q11.2793-21.6309 14.0381-13.3057Q16.7969-4.98047 21.8506 1.9043Q26.9043 8.78906 33.7891 13.8428Q40.6738 18.8965 48.9746 21.6797Q57.2754 24.4629 66.5039 24.4629Q75.6836 24.4629 83.96 21.6797Q92.2363 18.8965 99.1455 13.8428Q106.055 8.78906 111.084 1.9043Q116.113-4.98047 118.896-13.3057Q121.68-21.6309 121.68-30.8594Q121.68-32.7637 120.435-34.0332Q119.189-35.3027 117.188-35.3027Q115.283-35.3027 114.16-34.0332Q113.037-32.7637 113.037-30.8594Q113.037-21.0938 109.424-12.6221Q105.811-4.15039 99.4385 2.22168Q93.0664 8.59375 84.6191 12.207Q76.1719 15.8203 66.5039 15.8203Q56.7871 15.8203 48.3398 12.207Q39.8926 8.59375 33.4961 2.22168Q27.0996-4.15039 23.5107-12.6221Q19.9219-21.0938 19.9219-30.8594Q19.9219-40.5273 23.5107-48.9502Q27.0996-57.373 33.4961-63.7451Q39.8926-70.1172 48.3398-73.7061Q56.7871-77.2949 66.5039-77.2949Q70.5566-77.2949 74.3408-76.9043Q78.125-76.5137 81.1523-75.7324L60.498-55.0781Q59.8633-54.3945 59.5459-53.6133Q59.2285-52.832 59.2285-52.002Q59.2285-50.1465 60.4492-48.9258Q61.6699-47.7051 63.4766-47.7051Q65.4297-47.7051 66.6016-48.9258L93.1152-75.6836Q93.9453-76.5137 94.2871-77.3682Q94.6289-78.2227 94.6289-79.1016Q94.6289-81.0059 93.1152-82.5195L66.6016-109.521Q65.4297-110.84 63.4766-110.84Q61.6211-110.84 60.4248-109.57Q59.2285-108.301 59.2285-106.445Q59.2285-105.566 59.5215-104.785Q59.8145-104.004 60.4492-103.32L79.1992-84.5703Q76.5137-85.1562 73.2422-85.5469Q69.9707-85.9375 66.5039-85.9375Q54.9805-85.9375 44.9707-81.6895Q34.9609-77.4414 27.3926-69.873Q19.8242-62.3047 15.5518-52.3193Q11.2793-42.334 11.2793-30.8594Z"/>
  </g>
  <g id="Light-L" transform="matrix(1 0 0 1 1087.31 1556)">
   <path d="M11.2793-31.041Q11.2793-21.888 14.0003-13.6612Q16.7213-5.43442 21.7068 1.36719Q26.6922 8.16879 33.4938 13.1618Q40.2954 18.1549 48.5054 20.8927Q56.7154 23.6305 65.8531 23.6305Q74.9573 23.6305 83.1429 20.8927Q91.3284 18.1549 98.1468 13.1618Q104.965 8.16879 109.926 1.36719Q114.887-5.43442 117.625-13.6612Q120.363-21.888 120.363-31.041Q120.363-32.4913 119.421-33.4579Q118.478-34.4246 116.946-34.4246Q115.48-34.4246 114.614-33.4579Q113.748-32.4913 113.748-31.041Q113.748-20.9572 110.052-12.236Q106.355-3.51486 99.8016 3.04642Q93.248 9.6077 84.5509 13.3118Q75.8537 17.0158 65.8531 17.0158Q55.8029 17.0158 47.0985 13.3118Q38.3942 9.6077 31.8237 3.04642Q25.2533-3.51486 21.5733-12.236Q17.8932-20.9572 17.8932-31.041Q17.8932-41.0118 21.5733-49.6769Q25.2533-58.342 31.8237-64.8727Q38.3942-71.4035 47.0985-75.0759Q55.8029-78.7483 65.8531-78.7483Q70.5261-78.7483 74.9687-78.2516Q79.4113-77.755 82.8476-76.8074L59.6199-53.4134Q59.1217-52.8656 58.8722-52.2583Q58.6227-51.651 58.6227-50.9727Q58.6227-49.5865 59.5558-48.6534Q60.4889-47.7203 61.9026-47.7203Q63.3713-47.7203 64.286-48.6687L91.5565-76.3947Q92.3714-77.2247 92.6826-77.9282Q92.9939-78.6316 92.9939-79.3137Q92.9939-80.809 91.5565-82.2319L64.3158-110.112Q63.401-111.112 61.8874-111.112Q60.4256-111.112 59.5242-110.146Q58.6227-109.179 58.6227-107.793Q58.6227-107.095 58.8554-106.48Q59.0881-105.865 59.6016-105.334L81.1066-83.6014Q78.0731-84.3391 74.1051-84.8507Q70.137-85.3622 65.8531-85.3622Q54.4357-85.3622 44.532-81.1825Q34.6283-77.0027 27.158-69.5553Q19.6877-62.1078 15.4835-52.2511Q11.2793-42.3943 11.2793-31.041Z"/>
  </g>
  <g id="Thin-L" transform="matrix(1 0 0 1 791.472 1556)">
   <path d="M11.2793-31.2813Q11.2793-22.2282 13.9503-14.1315Q16.6214-6.03485 21.5168 0.656509Q26.4122 7.34787 33.1036 12.2608Q39.7949 17.1738 47.8848 19.8517Q55.9746 22.5296 64.9925 22.5296Q73.996 22.5296 82.0614 19.8517Q90.1268 17.1738 96.825 12.2608Q103.523 7.34787 108.395 0.656509Q113.266-6.03485 115.944-14.1315Q118.621-22.2282 118.621-31.2813Q118.621-32.1312 118.079-32.6973Q117.537-33.2634 116.625-33.2634Q115.74-33.2634 115.215-32.6973Q114.69-32.1312 114.69-31.2813Q114.69-20.7771 110.883-11.7256Q107.076-2.6741 100.282 4.13742Q93.4883 10.9489 84.4608 14.7732Q75.4333 18.5974 64.9925 18.5974Q54.5021 18.5974 45.4571 14.7732Q36.412 10.9489 29.6112 4.13742Q22.8104-2.6741 19.0109-11.7256Q15.2115-20.7771 15.2115-31.2813Q15.2115-41.6527 19.0109-50.6378Q22.8104-59.623 29.6112-66.3643Q36.412-73.1056 45.4571-76.8879Q54.5021-80.6702 64.9925-80.6702Q70.4865-80.6702 75.7999-80.0331Q81.1134-79.3961 85.0899-78.2288L58.4587-51.2108Q58.1406-50.8438 57.9815-50.4669Q57.8224-50.09 57.8224-49.6117Q57.8224-48.8457 58.3752-48.2929Q58.9279-47.7402 59.8206-47.7402Q60.6483-47.7402 61.2228-48.3284L89.4943-77.3361Q90.2893-78.1662 90.5609-78.669Q90.8325-79.1718 90.8325-79.5937Q90.8325-80.5489 89.4943-81.852L61.293-110.892Q60.7193-111.472 59.7855-111.472Q58.844-111.472 58.3332-110.906Q57.8224-110.34 57.8224-109.574Q57.8224-109.117 57.9746-108.723Q58.1268-108.328 58.4808-107.996L83.6288-82.3204Q80.1346-83.2581 75.246-83.9298Q70.3575-84.6016 64.9925-84.6016Q53.7148-84.6016 43.951-80.5119Q34.1873-76.4221 26.8475-69.1349Q19.5076-61.8477 15.3934-52.161Q11.2793-42.4744 11.2793-31.2813Z"/>
  </g>
  <g id="Ultralight-L" transform="matrix(1 0 0 1 495.207 1556)">
   <path d="M11.2793-31.4041Q11.2793-22.403 13.9244-14.373Q16.5695-6.34308 21.4191 0.292206Q26.2688 6.92749 32.9037 11.7996Q39.5386 16.6718 47.567 19.3184Q55.5954 21.965 64.5515 21.965Q73.5039 21.965 81.5079 19.3184Q89.5119 16.6718 96.1487 11.7996Q102.785 6.92749 107.61 0.292206Q112.435-6.34308 115.082-14.373Q117.729-22.403 117.729-31.4041Q117.729-31.9466 117.392-32.3078Q117.056-32.6691 116.461-32.6691Q115.874-32.6691 115.522-32.3078Q115.171-31.9466 115.171-31.4041Q115.171-20.6848 111.308-11.4639Q107.446-2.24304 100.528 4.69666Q93.6111 11.6364 84.4147 15.522Q75.2182 19.4077 64.5515 19.4077Q53.8353 19.4077 44.6163 15.522Q35.3973 11.6364 28.4786 4.69666Q21.5599-2.24304 17.6983-11.4639Q13.8367-20.6848 13.8367-31.4041Q13.8367-41.9807 17.6983-51.1299Q21.5599-60.2791 28.4786-67.128Q35.3973-73.9769 44.6163-77.8156Q53.8353-81.6544 64.5515-81.6544Q70.4659-81.6544 76.2253-80.946Q81.9847-80.2376 86.2381-78.9566L57.8644-50.0832Q57.6385-49.8085 57.5253-49.5491Q57.412-49.2897 57.412-48.9143Q57.412-48.4665 57.7698-48.1087Q58.1276-47.7509 58.754-47.7509Q59.2537-47.7509 59.6542-48.1537L88.4377-77.8175Q89.2227-78.6476 89.4737-79.0482Q89.7247-79.4487 89.7247-79.7371Q89.7247-80.4153 88.4377-81.6566L59.745-111.292Q59.3445-111.657 58.7082-111.657Q58.0338-111.657 57.7229-111.296Q57.412-110.934 57.412-110.487Q57.412-110.152 57.5233-109.871Q57.6347-109.589 57.9063-109.36L84.9205-81.6643Q81.1913-82.7042 75.8308-83.4579Q70.4704-84.2117 64.5515-84.2117Q53.3455-84.2117 43.6539-80.1682Q33.9622-76.1246 26.6888-68.9194Q19.4153-61.7142 15.3473-52.1149Q11.2793-42.5156 11.2793-31.4041Z"/>
  </g>
  <g id="Black-M" transform="matrix(1 0 0 1 2878.93 1126)">
   <path d="M8.74023-32.0801Q8.74023-22.6074 12.3047-14.3066Q15.8691-6.00586 22.1436 0.292969Q28.418 6.5918 36.7188 10.1562Q45.0195 13.7207 54.4922 13.7207Q63.9648 13.7207 72.2412 10.1562Q80.5176 6.5918 86.8164 0.292969Q93.1152-6.00586 96.6553-14.3066Q100.195-22.6074 100.195-32.0801Q100.195-36.0352 97.7539-38.4766Q95.3125-40.918 91.5527-40.918Q87.793-40.918 85.4004-38.4766Q83.0078-36.0352 83.0078-32.0801Q83.0078-26.2207 80.7861-21.0693Q78.5645-15.918 74.6338-11.9873Q70.7031-8.05664 65.5518-5.83496Q60.4004-3.61328 54.4922-3.61328Q48.584-3.61328 43.4326-5.83496Q38.2812-8.05664 34.375-11.9873Q30.4688-15.918 28.2715-21.0693Q26.0742-26.2207 26.0742-32.0801Q26.0742-38.2812 28.1738-43.5547Q30.2734-48.8281 34.0088-52.7588Q37.7441-56.6895 42.7734-58.8867Q47.8027-61.084 53.6621-61.084Q54.2969-61.084 54.9072-61.0596Q55.5176-61.0352 56.1035-61.0352L48.6816-53.7598Q47.6562-52.6855 46.9971-51.4404Q46.3379-50.1953 46.3379-48.3887Q46.3379-44.9219 48.7793-42.5049Q51.2207-40.0879 54.6875-40.0879Q58.0566-40.0879 60.3027-42.334L80.0781-62.5Q81.3965-63.8184 82.0557-65.3564Q82.7148-66.8945 82.7148-68.7012Q82.7148-72.2656 80.0781-74.8535L60.3027-95.0195Q58.0078-97.4121 54.6875-97.4121Q51.2207-97.4121 48.7793-94.9463Q46.3379-92.4805 46.3379-88.9648Q46.3379-87.1582 46.9971-85.9131Q47.6562-84.668 48.6816-83.5938L55.127-77.3438Q54.7852-77.3438 54.4189-77.3682Q54.0527-77.3926 53.6621-77.3926Q44.2383-77.3926 36.084-73.9014Q27.9297-70.4102 21.7773-64.2334Q15.625-58.0566 12.1826-49.8291Q8.74023-41.6016 8.74023-32.0801Z"/>
  </g>
  <g id="Heavy-M" transform="matrix(1 0 0 1 2582.83 1126)">
   <path d="M8.74023-31.9992Q8.74023-22.6303 12.2528-14.439Q15.7654-6.24771 21.9532-0.0354767Q28.141 6.17676 36.3323 9.68361Q44.5236 13.1905 53.8811 13.1905Q63.2271 13.1905 71.3997 9.68361Q79.5723 6.17676 85.7849-0.0354767Q91.9975-6.24771 95.4857-14.439Q98.9738-22.6303 98.9738-31.9992Q98.9738-35.4362 96.8437-37.5721Q94.7136-39.7079 91.4146-39.7079Q88.1271-39.7079 86.0573-37.5721Q83.9874-35.4362 83.9874-31.9992Q83.9874-25.7828 81.6448-20.332Q79.3022-14.8811 75.1583-10.7315Q71.0144-6.58188 65.5689-4.24461Q60.1234-1.90735 53.8811-1.90735Q47.6273-1.90735 42.1822-4.24461Q36.7371-6.58188 32.6118-10.7315Q28.4866-14.8811 26.1627-20.332Q23.8388-25.7828 23.8388-31.9992Q23.8388-38.4659 26.088-44.0044Q28.3371-49.543 32.3318-53.6865Q36.3266-57.83 41.6786-60.1543Q47.0306-62.4786 53.2471-62.4786Q54.3892-62.4786 55.4604-62.4023Q56.5315-62.326 57.4867-62.2108L48.3704-53.241Q47.4602-52.282 46.8876-51.1639Q46.315-50.0458 46.315-48.481Q46.315-45.4407 48.4451-43.3289Q50.5753-41.217 53.6041-41.217Q56.6048-41.217 58.5625-43.1984L78.4187-63.3759Q79.5753-64.5332 80.1483-65.881Q80.7213-67.2287 80.7213-68.8049Q80.7213-71.92 78.4187-74.1966L58.5625-94.4206Q56.5559-96.5248 53.6041-96.5248Q50.5638-96.5248 48.4394-94.3703Q46.315-92.2157 46.315-89.1258Q46.315-87.5732 46.8819-86.4491Q47.4487-85.3249 48.3589-84.3658L56.3484-76.5602Q55.6381-76.6525 54.8569-76.7231Q54.0756-76.7937 53.2471-76.7937Q43.927-76.7937 35.8479-73.3368Q27.7687-69.8799 21.674-63.7665Q15.5792-57.653 12.1597-49.5178Q8.74023-41.3826 8.74023-31.9992Z"/>
  </g>
  <g id="Bold-M" transform="matrix(1 0 0 1 2286.8 1126)">
   <path d="M8.74023-31.9092Q8.74023-22.6562 12.1948-14.5874Q15.6494-6.51855 21.7407-0.402832Q27.832 5.71289 35.9009 9.15527Q43.9697 12.5977 53.1982 12.5977Q62.4023 12.5977 70.459 9.15527Q78.5156 5.71289 84.6313-0.402832Q90.7471-6.51855 94.1772-14.5874Q97.6074-22.6562 97.6074-31.9092Q97.6074-34.7656 95.8252-36.5601Q94.043-38.3545 91.2598-38.3545Q88.501-38.3545 86.792-36.5601Q85.083-34.7656 85.083-31.9092Q85.083-25.293 82.605-19.5068Q80.127-13.7207 75.7446-9.32617Q71.3623-4.93164 65.5884-2.46582Q59.8145 0 53.1982 0Q46.5576 0 40.7837-2.46582Q35.0098-4.93164 30.6396-9.32617Q26.2695-13.7207 23.8037-19.5068Q21.3379-25.293 21.3379-31.9092Q21.3379-38.6719 23.7549-44.5068Q26.1719-50.3418 30.4565-54.7241Q34.7412-59.1064 40.4541-61.5723Q46.167-64.0381 52.7832-64.0381Q54.4922-64.0381 56.0791-63.9038Q57.666-63.7695 59.0332-63.5254L48.0225-52.6611Q47.2412-51.8311 46.7651-50.8545Q46.2891-49.8779 46.2891-48.584Q46.2891-46.0205 48.0713-44.2505Q49.8535-42.4805 52.3926-42.4805Q54.9805-42.4805 56.6162-44.165L76.5625-64.3555Q77.5391-65.332 78.0151-66.4673Q78.4912-67.6025 78.4912-68.9209Q78.4912-71.5332 76.5625-73.4619L56.6162-93.75Q54.9316-95.5322 52.3926-95.5322Q49.8291-95.5322 48.0591-93.7256Q46.2891-91.9189 46.2891-89.3066Q46.2891-88.0371 46.7529-87.0483Q47.2168-86.0596 47.998-85.2295L57.7148-75.6836Q56.5918-75.8789 55.3467-76.001Q54.1016-76.123 52.7832-76.123Q43.5791-76.123 35.5835-72.7051Q27.5879-69.2871 21.5576-63.2446Q15.5273-57.2021 12.1338-49.1699Q8.74023-41.1377 8.74023-31.9092Z"/>
  </g>
  <g id="Semibold-M" transform="matrix(1 0 0 1 1990.56 1126)">
   <path d="M8.74023-31.8466Q8.74023-22.6738 12.1548-14.6896Q15.5693-6.70547 21.5939-0.656128Q27.6184 5.39322 35.603 8.79097Q43.5875 12.1887 52.7275 12.1887Q61.834 12.1887 69.8105 8.79097Q77.787 5.39322 83.836-0.656128Q89.8849-6.70547 93.2751-14.6896Q96.6652-22.6738 96.6652-31.8466Q96.6652-34.3033 95.1229-35.8624Q93.5806-37.4214 91.153-37.4214Q88.7589-37.4214 87.2986-35.8624Q85.8383-34.3033 85.8383-31.8466Q85.8383-24.955 83.2672-18.9381Q80.6961-12.9211 76.1494-8.35762Q71.6026-3.7941 65.6017-1.2394Q59.6008 1.31531 52.7275 1.31531Q45.8199 1.31531 39.8193-1.2394Q33.8188-3.7941 29.2797-8.35762Q24.7406-12.9211 22.1771-18.9381Q19.6136-24.955 19.6136-31.8466Q19.6136-38.8138 22.1462-44.8532Q24.6788-50.8926 29.1634-55.4394Q33.6479-59.9861 39.6099-62.5496Q45.5719-65.1131 52.4635-65.1131Q54.5631-65.1131 56.5056-64.9391Q58.448-64.7652 60.0998-64.4318L47.7821-52.2614Q47.0901-51.5198 46.6808-50.6413Q46.2715-49.7627 46.2715-48.6549Q46.2715-46.4203 47.8138-44.886Q49.3561-43.3517 51.5572-43.3517Q53.8605-43.3517 55.2742-44.8318L75.2831-65.0307Q76.1353-65.8829 76.5446-66.8716Q76.9539-67.8604 76.9539-69.001Q76.9539-71.2669 75.2831-72.9553L55.2742-93.2877Q53.8116-94.8479 51.5572-94.8479Q49.3225-94.8479 47.797-93.2812Q46.2715-91.7145 46.2715-89.431Q46.2715-88.3568 46.664-87.4615Q47.0566-86.5662 47.7493-85.8246L58.6571-75.0793Q57.2495-75.3456 55.6843-75.5032Q54.1191-75.6607 52.4635-75.6607Q43.3388-75.6607 35.4012-72.2694Q27.4635-68.8782 21.4775-62.8845Q15.4915-56.8909 12.1159-48.93Q8.74023-40.9691 8.74023-31.8466Z"/>
  </g>
  <g id="Medium-M" transform="matrix(1 0 0 1 1694.21 1126)">
   <path d="M8.74023-31.8001Q8.74023-22.6875 12.1246-14.7671Q15.509-6.84662 21.4828-0.848007Q27.4567 5.1506 35.3771 8.51479Q43.2976 11.879 52.3705 11.879Q61.4021 11.879 69.3184 8.51479Q77.2346 5.1506 83.2329-0.848007Q89.2311-6.84662 92.5911-14.7671Q95.9511-22.6875 95.9511-31.8001Q95.9511-33.9531 94.5908-35.3336Q93.2304-36.7142 91.0721-36.7142Q88.9542-36.7142 87.6827-35.3336Q86.4113-33.9531 86.4113-31.8001Q86.4113-24.6994 83.7692-18.507Q81.1272-12.3146 76.4557-7.62329Q71.7842-2.93198 65.6116-0.309753Q59.4391 2.31247 52.3705 2.31247Q45.2606 2.31247 39.0884-0.309753Q32.9163-2.93198 28.249-7.62329Q23.5817-12.3146 20.9442-18.507Q18.3067-24.6994 18.3067-31.8001Q18.3067-38.9221 20.9267-45.1164Q23.5466-51.3107 28.183-55.9822Q32.8194-60.6537 38.9698-63.2912Q45.1202-65.9286 52.2209-65.9286Q54.6173-65.9286 56.8291-65.7242Q59.0408-65.5197 60.9085-65.1192L47.6006-51.9577Q46.9757-51.284 46.6167-50.4795Q46.2578-49.675 46.2578-48.7091Q46.2578-46.7239 47.6181-45.3678Q48.9784-44.0117 50.9239-44.0117Q53.0113-44.0117 54.2564-45.3369L74.3126-65.5434Q75.0702-66.301 75.4292-67.1783Q75.7881-68.0557 75.7881-69.0613Q75.7881-71.0648 74.3126-72.5716L54.2564-92.9375Q52.9625-94.3291 50.9239-94.3291Q48.9388-94.3291 47.5983-92.9443Q46.2578-91.5596 46.2578-89.5256Q46.2578-88.5994 46.5965-87.7747Q46.9353-86.9499 47.5609-86.2762L59.3712-74.6208Q57.7484-74.9413 55.9406-75.1259Q54.1328-75.3105 52.2209-75.3105Q43.1572-75.3105 35.2631-71.9395Q27.3689-68.5684 21.4169-62.6118Q15.4648-56.6551 12.1025-48.748Q8.74023-40.8409 8.74023-31.8001Z"/>
  </g>
  <g id="Regular-M" transform="matrix(1 0 0 1 1397.96 1126)">
   <path d="M8.74023-31.7383Q8.74023-22.7051 12.085-14.8682Q15.4297-7.03125 21.3379-1.09863Q27.2461 4.83398 35.083 8.1543Q42.9199 11.4746 51.9043 11.4746Q60.8398 11.4746 68.6768 8.1543Q76.5137 4.83398 82.4463-1.09863Q88.3789-7.03125 91.6992-14.8682Q95.0195-22.7051 95.0195-31.7383Q95.0195-33.4961 93.8965-34.6436Q92.7734-35.791 90.9668-35.791Q89.209-35.791 88.1836-34.6436Q87.1582-33.4961 87.1582-31.7383Q87.1582-24.3652 84.4238-17.9443Q81.6895-11.5234 76.8555-6.66504Q72.0215-1.80664 65.625 0.90332Q59.2285 3.61328 51.9043 3.61328Q44.5312 3.61328 38.1348 0.90332Q31.7383-1.80664 26.9043-6.66504Q22.0703-11.5234 19.3359-17.9443Q16.6016-24.3652 16.6016-31.7383Q16.6016-39.0625 19.3359-45.459Q22.0703-51.8555 26.9043-56.6895Q31.7383-61.5234 38.1348-64.2578Q44.5312-66.9922 51.9043-66.9922Q54.6875-66.9922 57.251-66.748Q59.8145-66.5039 61.9629-66.0156L47.3633-51.5625Q46.8262-50.9766 46.5332-50.2686Q46.2402-49.5605 46.2402-48.7793Q46.2402-47.1191 47.3633-45.9961Q48.4863-44.873 50.0977-44.873Q51.9043-44.873 52.9297-45.9961L73.0469-66.2109Q73.6816-66.8457 73.9746-67.5781Q74.2676-68.3105 74.2676-69.1406Q74.2676-70.8008 73.0469-72.0703L52.9297-92.4805Q51.8555-93.6523 50.0977-93.6523Q48.4375-93.6523 47.3389-92.5049Q46.2402-91.3574 46.2402-89.6484Q46.2402-88.916 46.5088-88.1836Q46.7773-87.4512 47.3145-86.8652L60.3027-74.0234Q58.3984-74.4141 56.2744-74.6338Q54.1504-74.8535 51.9043-74.8535Q42.9199-74.8535 35.083-71.5088Q27.2461-68.1641 21.3379-62.2559Q15.4297-56.3477 12.085-48.5107Q8.74023-40.6738 8.74023-31.7383Z"/>
  </g>
  <g id="Light-M" transform="matrix(1 0 0 1 1101.84 1126)">
   <path d="M8.74023-31.9046Q8.74023-22.9774 12.0243-15.239Q15.3084-7.50046 21.1334-1.65863Q26.9585 4.1832 34.6893 7.45811Q42.4202 10.733 51.3138 10.733Q60.1738 10.733 67.9047 7.45811Q75.6355 4.1832 81.4697-1.65863Q87.3039-7.50046 90.5788-15.239Q93.8538-22.9774 93.8538-31.9046Q93.8538-33.2542 92.9958-34.129Q92.1379-35.0037 90.7547-35.0037Q89.3906-35.0037 88.5998-34.129Q87.809-33.2542 87.809-31.9046Q87.809-24.2439 84.9915-17.5961Q82.1739-10.9482 77.1809-5.93071Q72.1878-0.913239 65.5643 1.89476Q58.9409 4.70276 51.3138 4.70276Q43.6684 4.70276 37.0373 1.89476Q30.4062-0.913239 25.4131-5.93071Q20.4201-10.9482 17.6025-17.5961Q14.785-24.2439 14.785-31.9046Q14.785-39.5012 17.6025-46.1098Q20.4201-52.7184 25.4131-57.7038Q30.4062-62.6892 37.0373-65.4915Q43.6684-68.2938 51.3138-68.2938Q54.6722-68.2938 57.8186-67.9588Q60.965-67.6239 63.4613-66.9846L46.5912-50.0641Q46.1601-49.5995 45.9278-49.0501Q45.6955-48.5008 45.6955-47.8714Q45.6955-46.6194 46.5534-45.7539Q47.4113-44.8883 48.69-44.8883Q50.058-44.8883 50.856-45.7542L71.6545-66.8312Q72.274-67.4812 72.5368-68.0775Q72.7997-68.6737 72.7997-69.3222Q72.7997-70.6192 71.6545-71.7979L50.8713-93.0099Q50.0389-93.9095 48.6748-93.9095Q47.3625-93.9095 46.529-93.0271Q45.6955-92.1448 45.6955-90.8592Q45.6955-90.2634 45.911-89.6973Q46.1266-89.1312 46.5576-88.6665L62.0132-73.1606Q59.8061-73.6725 57.0538-74.0055Q54.3015-74.3385 51.3138-74.3385Q42.4202-74.3385 34.6893-71.0621Q26.9585-67.7856 21.1334-61.9759Q15.3084-56.1661 12.0243-48.4501Q8.74023-40.7341 8.74023-31.9046Z"/>
  </g>
  <g id="Thin-M" transform="matrix(1 0 0 1 805.896 1126)">
   <path d="M8.74023-32.1251Q8.74023-23.3376 11.9442-15.7291Q15.1482-8.12073 20.8633-2.39906Q26.5785 3.3226 34.169 6.53725Q41.7595 9.75189 50.5333 9.75189Q59.2934 9.75189 66.8839 6.53725Q74.4743 3.3226 80.1785-2.39906Q85.8826-8.12073 89.0976-15.7291Q92.3126-23.3376 92.3126-32.1251Q92.3126-32.9338 91.8049-33.4484Q91.2971-33.963 90.4747-33.963Q89.6309-33.963 89.1502-33.4484Q88.6696-32.9338 88.6696-32.1251Q88.6696-24.0837 85.7422-17.1356Q82.8148-10.1875 77.6115-4.95987Q72.4083 0.267792 65.4846 3.20625Q58.5609 6.14471 50.5333 6.14471Q42.5278 6.14471 35.5862 3.20625Q28.6446 0.267792 23.4413-4.95987Q18.2381-10.1875 15.3107-17.1356Q12.3833-24.0837 12.3833-32.1251Q12.3833-40.0818 15.3107-46.9704Q18.2381-53.8589 23.4413-59.0446Q28.6446-64.2303 35.5862-67.123Q42.5278-70.0157 50.5333-70.0157Q54.6524-70.0157 58.5693-69.5606Q62.4863-69.1055 65.4434-68.2655L45.5704-48.082Q45.2797-47.7776 45.1271-47.4388Q44.9745-47.1001 44.9745-46.6698Q44.9745-45.9587 45.4823-45.4334Q45.99-44.9081 46.8285-44.9081Q47.6151-44.9081 48.1133-45.4338L69.8128-67.6521Q70.4124-68.322 70.6348-68.7382Q70.8572-69.1544 70.8572-69.5625Q70.8572-70.3789 69.8128-71.4378L48.1483-93.7111Q47.6372-94.2497 46.7934-94.2497Q45.9412-94.2497 45.4578-93.7176Q44.9745-93.1854 44.9745-92.4606Q44.9745-92.0448 45.1202-91.6992Q45.266-91.3536 45.5566-91.0484L64.2754-72.02Q61.6676-72.6913 58.0849-73.1747Q54.5021-73.658 50.5333-73.658Q41.7595-73.658 34.169-70.4716Q26.5785-67.2852 20.8633-61.6055Q15.1482-55.9258 11.9442-48.37Q8.74023-40.8142 8.74023-32.1251Z"/>
  </g>
  <g id="Ultralight-M" transform="matrix(1 0 0 1 509.58 1126)">
   <path d="M8.74023-32.238Q8.74023-23.5222 11.9034-15.9805Q15.0665-8.43887 20.7249-2.77863Q26.3832 2.88162 33.9024 6.06575Q41.4215 9.24988 50.1335 9.24988Q58.8417 9.24988 66.3609 6.06575Q73.88 2.88162 79.5174-2.77863Q85.1547-8.43887 88.3389-15.9805Q91.523-23.5222 91.523-32.238Q91.523-32.7698 91.1945-33.0997Q90.8661-33.4297 90.3313-33.4297Q89.7537-33.4297 89.4321-33.0997Q89.1106-32.7698 89.1106-32.238Q89.1106-24.0021 86.1267-16.8999Q83.1429-9.79767 77.832-4.46243Q72.5212 0.872803 65.4434 3.87764Q58.3656 6.88248 50.1335 6.88248Q41.9426 6.88248 34.8423 3.87764Q27.742 0.872803 22.4312-4.46243Q17.1204-9.79767 14.1365-16.8999Q11.1526-24.0021 11.1526-32.238Q11.1526-40.3793 14.1365-47.4117Q17.1204-54.4441 22.4312-59.7321Q27.742-65.02 34.8423-67.9588Q41.9426-70.8977 50.1335-70.8977Q54.6417-70.8977 58.9535-70.3808Q63.2652-69.8639 66.4581-68.9217L45.0478-47.0673Q44.828-46.8445 44.7166-46.6133Q44.6053-46.3821 44.6053-46.0548Q44.6053-45.6207 44.9337-45.2698Q45.2621-44.9188 45.8748-44.9188Q46.3646-44.9188 46.7087-45.2698L68.869-68.0725Q69.4588-68.7531 69.6609-69.0765Q69.8631-69.4 69.8631-69.6854Q69.8631-70.256 68.869-71.2532L46.7537-94.0697Q46.4066-94.4244 45.829-94.4244Q45.2133-94.4244 44.9093-94.0716Q44.6053-93.7187 44.6053-93.2816Q44.6053-92.9573 44.7151-92.7246Q44.825-92.4919 45.0439-92.2691L65.4343-71.4348Q62.6213-72.1893 58.6128-72.7493Q54.6043-73.3093 50.1335-73.3093Q41.4215-73.3093 33.9024-70.1691Q26.3832-67.0288 20.7249-61.4159Q15.0665-55.8029 11.9034-48.3292Q8.74023-40.8554 8.74023-32.238Z"/>
  </g>
  <g id="Black-S" transform="matrix(1 0 0 1 2890.58 696)">
   <path d="M6.83594-32.8125Q6.83594-25.3418 9.64355-18.8232Q12.4512-12.3047 17.3828-7.34863Q22.3145-2.39258 28.833 0.415039Q35.3516 3.22266 42.8223 3.22266Q50.293 3.22266 56.8115 0.415039Q63.3301-2.39258 68.2617-7.34863Q73.1934-12.3047 76.001-18.8232Q78.8086-25.3418 78.8086-32.8125Q78.8086-36.0352 76.8066-38.0127Q74.8047-39.9902 71.7285-39.9902Q68.7012-39.9902 66.7236-38.0127Q64.7461-36.0352 64.7461-32.8125Q64.7461-28.2715 63.0371-24.3164Q61.3281-20.3613 58.3252-17.3584Q55.3223-14.3555 51.3428-12.6465Q47.3633-10.9375 42.8223-10.9375Q38.2812-10.9375 34.3262-12.6465Q30.3711-14.3555 27.3682-17.3584Q24.3652-20.3613 22.6807-24.3164Q20.9961-28.2715 20.9961-32.8125Q20.9961-37.5977 22.583-41.6504Q24.1699-45.7031 27.0508-48.7305Q29.9316-51.7578 33.7891-53.4424Q37.6465-55.127 42.1387-55.127Q42.5293-55.127 42.8955-55.127Q43.2617-55.127 43.6035-55.127L38.1836-49.8047Q37.3535-48.9746 36.8164-47.9492Q36.2793-46.9238 36.2793-45.459Q36.2793-42.627 38.2568-40.6494Q40.2344-38.6719 43.0664-38.6719Q45.8008-38.6719 47.6562-40.5273L63.1348-56.3477Q65.332-58.5449 65.332-61.4258Q65.332-64.3555 63.1348-66.4551L47.6562-82.2754Q45.752-84.2285 43.0664-84.2285Q40.2344-84.2285 38.2568-82.2266Q36.2793-80.2246 36.2793-77.3438Q36.2793-75.8789 36.8164-74.8535Q37.3535-73.8281 38.1836-72.998L42.9199-68.4082Q42.7246-68.4082 42.5293-68.4082Q42.334-68.4082 42.1387-68.4082Q34.7168-68.4082 28.2959-65.6738Q21.875-62.9395 17.0654-58.0811Q12.2559-53.2227 9.5459-46.7529Q6.83594-40.2832 6.83594-32.8125Z"/>
  </g>
  <g id="Heavy-S" transform="matrix(1 0 0 1 2594.32 696)">
   <path d="M6.83594-32.7202Q6.83594-25.3304 9.60312-18.8923Q12.3703-12.4542 17.2443-7.56187Q22.1184-2.66953 28.5564 0.10376Q34.9945 2.87704 42.3729 2.87704Q49.7513 2.87704 56.1893 0.10376Q62.6274-2.66953 67.5014-7.56187Q72.3755-12.4542 75.1427-18.8923Q77.9099-25.3304 77.9099-32.7202Q77.9099-35.5515 76.1383-37.3039Q74.3668-39.0564 71.6362-39.0564Q68.9659-39.0564 67.2363-37.3039Q65.5067-35.5515 65.5067-32.7202Q65.5067-27.9144 63.7054-23.7347Q61.9041-19.5549 58.7341-16.3849Q55.5641-13.2149 51.3657-11.4136Q47.1672-9.61227 42.3729-9.61227Q37.5786-9.61227 33.3984-11.4136Q29.2183-13.2149 26.0483-16.3849Q22.8783-19.5549 21.096-23.7347Q19.3138-27.9144 19.3138-32.7202Q19.3138-37.7014 21.0217-41.9559Q22.7295-46.2105 25.806-49.3992Q28.8826-52.5879 32.988-54.3701Q37.0934-56.1523 41.8503-56.1523Q42.5987-56.1523 43.2877-56.1237Q43.9766-56.0951 44.5946-56.0143L38.0226-49.5514Q37.2612-48.79 36.7931-47.8626Q36.3251-46.9353 36.3251-45.6551Q36.3251-43.1343 38.0722-41.3872Q39.8193-39.64 42.3286-39.64Q44.7983-39.64 46.4233-41.288L61.9019-57.016Q63.8107-58.9371 63.8107-61.4952Q63.8107-64.0785 61.9019-65.9248L46.4233-81.6994Q44.7495-83.445 42.3172-83.445Q39.8193-83.445 38.0722-81.6677Q36.3251-79.8904 36.3251-77.3323Q36.3251-76.0521 36.7931-75.1186Q37.2612-74.1852 38.0104-73.4245L43.7378-67.8436Q43.2777-67.9008 42.8059-67.9298Q42.334-67.9588 41.8503-67.9588Q34.5093-67.9588 28.146-65.2473Q21.7827-62.5359 17.0021-57.7179Q12.2215-52.8999 9.52873-46.4993Q6.83594-40.0986 6.83594-32.7202Z"/>
  </g>
  <g id="Bold-S" transform="matrix(1 0 0 1 2298.11 696)">
   <path d="M6.83594-32.6172Q6.83594-25.3174 9.55811-18.9697Q12.2803-12.6221 17.0898-7.80029Q21.8994-2.97852 28.2471-0.244141Q34.5947 2.49023 41.8701 2.49023Q49.1455 2.49023 55.4932-0.244141Q61.8408-2.97852 66.6504-7.80029Q71.46-12.6221 74.1821-18.9697Q76.9043-25.3174 76.9043-32.6172Q76.9043-35.0098 75.3906-36.5112Q73.877-38.0127 71.5332-38.0127Q69.2627-38.0127 67.8101-36.5112Q66.3574-35.0098 66.3574-32.6172Q66.3574-27.5146 64.4531-23.0835Q62.5488-18.6523 59.1919-15.2954Q55.835-11.9385 51.3916-10.0342Q46.9482-8.12988 41.8701-8.12988Q36.792-8.12988 32.3608-10.0342Q27.9297-11.9385 24.5728-15.2954Q21.2158-18.6523 19.3237-23.0835Q17.4316-27.5146 17.4316-32.6172Q17.4316-37.8174 19.2749-42.2974Q21.1182-46.7773 24.4141-50.1465Q27.71-53.5156 32.0923-55.4077Q36.4746-57.2998 41.5283-57.2998Q42.6758-57.2998 43.7256-57.2388Q44.7754-57.1777 45.7031-57.0068L37.8418-49.2676Q37.1582-48.584 36.7676-47.7661Q36.377-46.9482 36.377-45.874Q36.377-43.7012 37.8662-42.2119Q39.3555-40.7227 41.5039-40.7227Q43.6768-40.7227 45.0439-42.1387L60.5225-57.7637Q62.1094-59.375 62.1094-61.5723Q62.1094-63.7695 60.5225-65.332L45.0439-81.0547Q43.6279-82.5684 41.4795-82.5684Q39.3555-82.5684 37.8662-81.0425Q36.377-79.5166 36.377-77.3193Q36.377-76.2451 36.7676-75.415Q37.1582-74.585 37.8174-73.9014L44.6533-67.2119Q43.8965-67.334 43.1152-67.395Q42.334-67.4561 41.5283-67.4561Q34.2773-67.4561 27.9785-64.7705Q21.6797-62.085 16.9312-57.312Q12.1826-52.5391 9.50928-46.2158Q6.83594-39.8926 6.83594-32.6172Z"/>
  </g>
  <g id="Semibold-S" transform="matrix(1 0 0 1 2001.74 696)">
   <path d="M6.83594-32.5462Q6.83594-25.3082 9.52682-19.0228Q12.2177-12.7373 16.983-7.96471Q21.7484-3.19214 28.0338-0.484085Q34.3193 2.22397 41.5237 2.22397Q48.7282 2.22397 55.0133-0.484085Q61.2984-3.19214 66.0637-7.96471Q70.829-12.7373 73.5199-19.0228Q76.2108-25.3082 76.2108-32.5462Q76.2108-34.6367 74.8749-35.9646Q73.539-37.2925 71.4622-37.2925Q69.4672-37.2925 68.2056-35.9646Q66.9441-34.6367 66.9441-32.5462Q66.9441-27.2392 64.9685-22.6349Q62.9929-18.0305 59.5074-14.5447Q56.0219-11.0588 51.4095-9.08318Q46.7972-7.10754 41.5237-7.10754Q36.2495-7.10754 31.6452-9.08318Q27.0409-11.0588 23.555-14.5447Q20.0691-18.0305 18.1015-22.6349Q16.1339-27.2392 16.1339-32.5462Q16.1339-37.8975 18.0706-42.5331Q20.0073-47.1687 23.4543-50.6622Q26.9012-54.1557 31.4747-56.1234Q36.0481-58.091 41.3063-58.091Q42.7292-58.091 44.0277-58.0074Q45.3262-57.9239 46.4676-57.6912L37.7174-49.0723Q37.0872-48.4421 36.75-47.6997Q36.4128-46.9574 36.4128-46.0251Q36.4128-44.0926 37.7243-42.7807Q39.0358-41.4688 40.9355-41.4688Q42.9039-41.4688 44.0933-42.7254L59.5718-58.2794Q60.936-59.6771 60.936-61.6257Q60.936-63.5559 59.5718-64.9231L44.0933-80.6107Q42.8551-81.9641 40.9019-81.9641Q39.0358-81.9641 37.7243-80.6114Q36.4128-79.2587 36.4128-77.3102Q36.4128-76.3786 36.75-75.6195Q37.0872-74.8604 37.6839-74.2302L45.2843-66.7763Q44.323-66.9426 43.3285-67.0261Q42.334-67.1097 41.3063-67.1097Q34.1171-67.1097 27.8629-64.4417Q21.6087-61.7737 16.8823-57.032Q12.1559-52.2903 9.49593-46.0205Q6.83594-39.7507 6.83594-32.5462Z"/>
  </g>
  <g id="Medium-S" transform="matrix(1 0 0 1 1705.29 696)">
   <path d="M6.83594-32.4921Q6.83594-25.3021 9.50356-19.0636Q12.1712-12.825 16.9025-8.08945Q21.6339-3.35388 27.8721-0.666046Q34.1103 2.02179 41.2605 2.02179Q48.4108 2.02179 54.6494-0.666046Q60.8879-3.35388 65.6193-8.08945Q70.3506-12.825 73.0183-19.0636Q75.6859-25.3021 75.6859-32.4921Q75.6859-34.3536 74.4846-35.5503Q73.2834-36.747 71.4081-36.747Q69.622-36.747 68.5055-35.5503Q67.3889-34.3536 67.3889-32.4921Q67.3889-27.0302 65.3595-22.2942Q63.3301-17.5583 59.7466-13.9748Q56.163-10.3912 51.4229-8.3622Q46.6827-6.33316 41.2605-6.33316Q35.8391-6.33316 31.1031-8.3622Q26.3672-10.3912 22.7837-13.9748Q19.2001-17.5583 17.1753-22.2942Q15.1505-27.0302 15.1505-32.4921Q15.1505-37.9578 17.1577-42.7113Q19.165-47.4648 22.7264-51.0529Q26.2878-54.641 31.0062-56.6658Q35.7246-58.6906 41.1377-58.6906Q42.7696-58.6906 44.257-58.5903Q45.7443-58.49 47.0467-58.21L37.6228-48.9235Q37.0331-48.3337 36.7363-47.6486Q36.4395-46.9635 36.4395-46.1395Q36.4395-44.3886 37.6163-43.2117Q38.7932-42.0349 40.5037-42.0349Q42.3172-42.0349 43.3723-43.1702L58.8509-58.67Q60.0471-59.906 60.0471-61.6661Q60.0471-63.3942 58.8509-64.6133L43.3723-80.2734Q42.2684-81.5056 40.464-81.5056Q38.7932-81.5056 37.6163-80.2845Q36.4395-79.0634 36.4395-77.3041Q36.4395-76.4793 36.7363-75.7744Q37.0331-75.0694 37.5832-74.4797L45.7626-66.4459Q44.6465-66.6466 43.4902-66.7465Q42.334-66.8465 41.1377-66.8465Q33.9958-66.8465 27.7752-64.1922Q21.5546-61.5379 16.8453-56.8199Q12.1361-52.1019 9.48601-45.8721Q6.83594-39.6423 6.83594-32.4921Z"/>
  </g>
  <g id="Regular-S" transform="matrix(1 0 0 1 1408.93 696)">
   <path d="M6.83594-32.4219Q6.83594-25.293 9.47266-19.1162Q12.1094-12.9395 16.7969-8.25195Q21.4844-3.56445 27.6611-0.90332Q33.8379 1.75781 40.918 1.75781Q47.998 1.75781 54.1748-0.90332Q60.3516-3.56445 65.0391-8.25195Q69.7266-12.9395 72.3633-19.1162Q75-25.293 75-32.4219Q75-33.9844 73.9746-35.0098Q72.9492-36.0352 71.3379-36.0352Q69.8242-36.0352 68.8965-35.0098Q67.9688-33.9844 67.9688-32.4219Q67.9688-26.7578 65.8691-21.8506Q63.7695-16.9434 60.0586-13.2324Q56.3477-9.52148 51.4404-7.42188Q46.5332-5.32227 40.918-5.32227Q35.3027-5.32227 30.3955-7.42188Q25.4883-9.52148 21.7773-13.2324Q18.0664-16.9434 15.9668-21.8506Q13.8672-26.7578 13.8672-32.4219Q13.8672-38.0371 15.9668-42.9443Q18.0664-47.8516 21.7773-51.5625Q25.4883-55.2734 30.3955-57.373Q35.3027-59.4727 40.918-59.4727Q42.8223-59.4727 44.5557-59.3506Q46.2891-59.2285 47.8027-58.8867L37.5-48.7305Q36.9629-48.1934 36.7188-47.583Q36.4746-46.9727 36.4746-46.2891Q36.4746-44.7754 37.4756-43.7744Q38.4766-42.7734 39.9414-42.7734Q41.5527-42.7734 42.4316-43.75L57.9102-59.1797Q58.8867-60.2051 58.8867-61.7188Q58.8867-63.1836 57.9102-64.209L42.4316-79.834Q41.5039-80.9082 39.8926-80.9082Q38.4766-80.9082 37.4756-79.8584Q36.4746-78.8086 36.4746-77.2949Q36.4746-76.6113 36.7188-75.9766Q36.9629-75.3418 37.4512-74.8047L46.3867-66.0156Q45.0684-66.2598 43.7012-66.3818Q42.334-66.5039 40.918-66.5039Q33.8379-66.5039 27.6611-63.8672Q21.4844-61.2305 16.7969-56.543Q12.1094-51.8555 9.47266-45.6787Q6.83594-39.502 6.83594-32.4219Z"/>
  </g>
  <g id="Light-S" transform="matrix(1 0 0 1 1112.73 696)">
   <path d="M6.83594-32.5584Q6.83594-25.5203 9.42726-19.4344Q12.0186-13.3484 16.6229-8.73642Q21.2273-4.12445 27.3132-1.51634Q33.3992 1.09177 40.403 1.09177Q47.4075 1.09177 53.4935-1.51634Q59.5795-4.12445 64.1838-8.73642Q68.7881-13.3484 71.3795-19.4344Q73.9708-25.5203 73.9708-32.5584Q73.9708-33.7723 73.18-34.5554Q72.3892-35.3386 71.1563-35.3386Q69.9753-35.3386 69.2596-34.5554Q68.544-33.7723 68.544-32.5584Q68.544-26.6518 66.3689-21.5401Q64.1937-16.4284 60.339-12.5736Q56.4842-8.71887 51.3802-6.54373Q46.2761-4.36859 40.403-4.36859Q34.5306-4.36859 29.4189-6.54373Q24.3073-8.71887 20.4529-12.5736Q16.5985-16.4284 14.4306-21.5401Q12.2627-26.6518 12.2627-32.5584Q12.2627-38.4155 14.4306-43.512Q16.5985-48.6084 20.4529-52.4555Q24.3073-56.3026 29.4189-58.4705Q34.5306-60.6384 40.403-60.6384Q42.807-60.6384 45.055-60.4179Q47.303-60.1974 49.1348-59.7343L36.8034-47.4136Q36.3724-46.9978 36.1813-46.516Q35.9901-46.0342 35.9901-45.4865Q35.9901-44.3367 36.7641-43.5627Q37.5381-42.7887 38.6848-42.7887Q39.9178-42.7887 40.5998-43.5532L56.6689-59.7397Q57.5851-60.7048 57.5851-61.8698Q57.5851-63.0325 56.6689-63.9816L40.6151-80.3032Q39.8994-81.1203 38.636-81.1203Q37.5229-81.1203 36.7565-80.32Q35.9901-79.5197 35.9901-78.3699Q35.9901-77.8069 36.1813-77.3159Q36.3724-76.825 36.7699-76.3939L47.9004-65.2588Q46.3097-65.609 44.3901-65.8295Q42.4706-66.05 40.403-66.05Q33.3992-66.05 27.3132-63.4663Q21.2273-60.8826 16.6229-56.2859Q12.0186-51.6891 9.42726-45.6184Q6.83594-39.5477 6.83594-32.5584Z"/>
  </g>
  <g id="Thin-S" transform="matrix(1 0 0 1 816.7 696)">
   <path d="M6.83594-32.7385Q6.83594-25.8202 9.36737-19.8544Q11.8988-13.8885 16.3929-9.37691Q20.887-4.86526 26.8528-2.32697Q32.8186 0.211334 39.7224 0.211334Q46.627 0.211334 52.5928-2.32697Q58.5587-4.86526 63.0527-9.37691Q67.5468-13.8885 70.0783-19.8544Q72.6097-25.8202 72.6097-32.7385Q72.6097-33.4923 72.1291-33.955Q71.6484-34.4177 70.916-34.4177Q70.1759-34.4177 69.7403-33.955Q69.3047-33.4923 69.3047-32.7385Q69.3047-26.5114 67.0292-21.1296Q64.7537-15.7478 60.709-11.7031Q56.6643-7.65839 51.3-5.38292Q45.9358-3.10745 39.7224-3.10745Q33.5098-3.10745 28.1281-5.38292Q22.7463-7.65839 18.7012-11.7031Q14.6561-15.7478 12.3985-21.1296Q10.141-26.5114 10.141-32.7385Q10.141-38.916 12.3985-44.2627Q14.6561-49.6094 18.7012-53.6366Q22.7463-57.6637 28.1281-59.9216Q33.5098-62.1796 39.7224-62.1796Q42.7872-62.1796 45.7157-61.829Q48.6443-61.4784 50.8965-60.8551L35.8826-45.6718Q35.5919-45.4163 35.471-45.1046Q35.35-44.7929 35.35-44.426Q35.35-43.7561 35.8234-43.2823Q36.2968-42.8085 37.0239-42.8085Q37.7563-42.8085 38.1783-43.293L55.0278-60.4805Q55.8632-61.3655 55.8632-62.0705Q55.8632-62.8319 55.0278-63.6818L38.2133-80.9235Q37.7777-81.4003 36.9751-81.4003Q36.2617-81.4003 35.8059-80.9307Q35.35-80.4611 35.35-79.7913Q35.35-79.3884 35.471-79.0878Q35.5919-78.7872 35.8688-78.4958L49.9023-64.2578Q47.9507-64.7484 45.3007-65.099Q42.6506-65.4495 39.7224-65.4495Q32.8186-65.4495 26.8528-62.9356Q20.887-60.4218 16.3929-55.9452Q11.8988-51.4687 9.36737-45.5379Q6.83594-39.6072 6.83594-32.7385Z"/>
  </g>
  <g id="Ultralight-S" transform="matrix(1 0 0 1 520.337 696)">
   <path d="M6.83594-32.8308Q6.83594-25.9743 9.33647-20.0699Q11.837-14.1655 16.2746-9.70497Q20.7123-5.24445 26.6167-2.74239Q32.5211-0.240326 39.3738-0.240326Q46.2273-0.240326 52.1317-2.74239Q58.036-5.24445 62.4737-9.70497Q66.9113-14.1655 69.4118-20.0699Q71.9124-25.9743 71.9124-32.8308Q71.9124-33.3488 71.5908-33.6475Q71.2692-33.9462 70.7932-33.9462Q70.2782-33.9462 69.9863-33.6475Q69.6945-33.3488 69.6945-32.8308Q69.6945-26.4397 67.3679-20.9194Q65.0414-15.3992 60.899-11.2568Q56.7566-7.11441 51.2589-4.78783Q45.7611-2.46124 39.3738-2.46124Q32.9872-2.46124 27.4666-4.78783Q21.946-7.11441 17.804-11.2568Q13.662-15.3992 11.3579-20.9194Q9.0538-26.4397 9.0538-32.8308Q9.0538-39.1724 11.3579-44.6472Q13.662-50.1221 17.804-54.2416Q21.946-58.3611 27.4666-60.6651Q32.9872-62.9692 39.3738-62.9692Q42.7765-62.9692 46.0541-62.5519Q49.3317-62.1346 51.799-61.4296L35.4111-44.78Q35.1921-44.606 35.1067-44.3817Q35.0212-44.1574 35.0212-43.882Q35.0212-43.4586 35.3413-43.1389Q35.6613-42.8192 36.1725-42.8192Q36.6486-42.8192 36.937-43.1595L54.1862-60.8597Q54.9812-61.7035 54.9812-62.1727Q54.9812-62.7296 54.1862-63.5277L36.9827-81.2416Q36.6905-81.5437 36.1237-81.5437Q35.6155-81.5437 35.3184-81.2431Q35.0212-80.9425 35.0212-80.5191Q35.0212-80.1987 35.1067-79.9953Q35.1921-79.792 35.408-79.5731L50.9277-63.7451Q48.7923-64.3074 45.7676-64.7243Q42.7429-65.1413 39.3738-65.1413Q32.5211-65.1413 26.6167-62.6637Q20.7123-60.186 16.2746-55.7709Q11.837-51.3557 9.33647-45.4971Q6.83594-39.6385 6.83594-32.8308Z"/>
  </g>
 </g>
</svg>
