<?xml version="1.0" encoding="UTF-8"?>
<!--Generator: Apple Native CoreSVG 175-->
<!DOCTYPE svg
PUBLIC "-//W3C//DTD SVG 1.1//EN"
       "http://www.w3.org/Graphics/SVG/1.1/DTD/svg11.dtd">
<svg version="1.1" xmlns="http://www.w3.org/2000/svg" xmlns:xlink="http://www.w3.org/1999/xlink" width="3300" height="2200">
 <!--glyph: "uni100001.medium", point size: 100.0, font version: "17.0d12e1", template writer version: "65.1"-->
 <g id="Notes">
  <rect height="2200" id="artboard" style="fill:white;opacity:1" width="3300" x="0" y="0"/>
  <line style="fill:none;stroke:black;opacity:1;stroke-width:0.5;" x1="263" x2="3036" y1="292" y2="292"/>
  <text style="stroke:none;fill:black;font-family:sans-serif;font-size:13;font-weight:bold;" transform="matrix(1 0 0 1 263 322)">Weight/Scale Variations</text>
  <text style="stroke:none;fill:black;font-family:sans-serif;font-size:13;text-anchor:middle;" transform="matrix(1 0 0 1 559.711 322)">Ultralight</text>
  <text style="stroke:none;fill:black;font-family:sans-serif;font-size:13;text-anchor:middle;" transform="matrix(1 0 0 1 856.422 322)">Thin</text>
  <text style="stroke:none;fill:black;font-family:sans-serif;font-size:13;text-anchor:middle;" transform="matrix(1 0 0 1 1153.13 322)">Light</text>
  <text style="stroke:none;fill:black;font-family:sans-serif;font-size:13;text-anchor:middle;" transform="matrix(1 0 0 1 1449.84 322)">Regular</text>
  <text style="stroke:none;fill:black;font-family:sans-serif;font-size:13;text-anchor:middle;" transform="matrix(1 0 0 1 1746.56 322)">Medium</text>
  <text style="stroke:none;fill:black;font-family:sans-serif;font-size:13;text-anchor:middle;" transform="matrix(1 0 0 1 2043.27 322)">Semibold</text>
  <text style="stroke:none;fill:black;font-family:sans-serif;font-size:13;text-anchor:middle;" transform="matrix(1 0 0 1 2339.98 322)">Bold</text>
  <text style="stroke:none;fill:black;font-family:sans-serif;font-size:13;text-anchor:middle;" transform="matrix(1 0 0 1 2636.69 322)">Heavy</text>
  <text style="stroke:none;fill:black;font-family:sans-serif;font-size:13;text-anchor:middle;" transform="matrix(1 0 0 1 2933.4 322)">Black</text>
  <line style="fill:none;stroke:black;opacity:1;stroke-width:0.5;" x1="263" x2="3036" y1="1903" y2="1903"/>
  <g transform="matrix(1 0 0 1 263 1933)">
   <path d="M9.24805 0.830078Q10.8691 0.830078 12.2949 0.214844Q13.7207-0.400391 14.8096-1.49414Q15.8984-2.58789 16.5186-4.01367Q17.1387-5.43945 17.1387-7.05078Q17.1387-8.66211 16.5186-10.0879Q15.8984-11.5137 14.8047-12.6074Q13.7109-13.7012 12.2852-14.3164Q10.8594-14.9316 9.23828-14.9316Q7.62695-14.9316 6.20117-14.3164Q4.77539-13.7012 3.69141-12.6074Q2.60742-11.5137 1.9873-10.0879Q1.36719-8.66211 1.36719-7.05078Q1.36719-5.43945 1.9873-4.01367Q2.60742-2.58789 3.69629-1.49414Q4.78516-0.400391 6.21094 0.214844Q7.63672 0.830078 9.24805 0.830078ZM9.24805-0.654297Q7.91992-0.654297 6.7627-1.14746Q5.60547-1.64062 4.73145-2.51953Q3.85742-3.39844 3.36426-4.56055Q2.87109-5.72266 2.87109-7.05078Q2.87109-8.37891 3.35938-9.54102Q3.84766-10.7031 4.72168-11.582Q5.5957-12.4609 6.75293-12.9541Q7.91016-13.4473 9.23828-13.4473Q10.5762-13.4473 11.7334-12.9541Q12.8906-12.4609 13.7695-11.582Q14.6484-10.7031 15.1465-9.54102Q15.6445-8.37891 15.6445-7.05078Q15.6445-5.72266 15.1514-4.56055Q14.6582-3.39844 13.7842-2.51953Q12.9102-1.64062 11.748-1.14746Q10.5859-0.654297 9.24805-0.654297ZM5.6543-7.05078Q5.6543-6.72852 5.85938-6.52832Q6.06445-6.32812 6.40625-6.32812L8.51562-6.32812L8.51562-4.20898Q8.51562-3.88672 8.71094-3.67676Q8.90625-3.4668 9.23828-3.4668Q9.56055-3.4668 9.77051-3.67676Q9.98047-3.88672 9.98047-4.20898L9.98047-6.32812L12.0898-6.32812Q12.4219-6.32812 12.627-6.52832Q12.832-6.72852 12.832-7.05078Q12.832-7.38281 12.627-7.58789Q12.4219-7.79297 12.0898-7.79297L9.98047-7.79297L9.98047-9.90234Q9.98047-10.2344 9.77051-10.4443Q9.56055-10.6543 9.23828-10.6543Q8.90625-10.6543 8.71094-10.4443Q8.51562-10.2344 8.51562-9.90234L8.51562-7.79297L6.40625-7.79297Q6.06445-7.79297 5.85938-7.58789Q5.6543-7.38281 5.6543-7.05078Z"/>
  </g>
  <g transform="matrix(1 0 0 1 281.867 1933)">
   <path d="M11.709 2.91016Q13.75 2.91016 15.5518 2.12891Q17.3535 1.34766 18.7305-0.0292969Q20.1074-1.40625 20.8887-3.20801Q21.6699-5.00977 21.6699-7.05078Q21.6699-9.0918 20.8887-10.8936Q20.1074-12.6953 18.7305-14.0723Q17.3535-15.4492 15.5469-16.2305Q13.7402-17.0117 11.6992-17.0117Q9.6582-17.0117 7.85645-16.2305Q6.05469-15.4492 4.68262-14.0723Q3.31055-12.6953 2.5293-10.8936Q1.74805-9.0918 1.74805-7.05078Q1.74805-5.00977 2.5293-3.20801Q3.31055-1.40625 4.6875-0.0292969Q6.06445 1.34766 7.86621 2.12891Q9.66797 2.91016 11.709 2.91016ZM11.709 1.25Q9.98047 1.25 8.47656 0.605469Q6.97266-0.0390625 5.83496-1.17676Q4.69727-2.31445 4.05762-3.81836Q3.41797-5.32227 3.41797-7.05078Q3.41797-8.7793 4.05762-10.2832Q4.69727-11.7871 5.83008-12.9297Q6.96289-14.0723 8.4668-14.7119Q9.9707-15.3516 11.6992-15.3516Q13.4277-15.3516 14.9316-14.7119Q16.4355-14.0723 17.5781-12.9297Q18.7207-11.7871 19.3652-10.2832Q20.0098-8.7793 20.0098-7.05078Q20.0098-5.32227 19.3701-3.81836Q18.7305-2.31445 17.5928-1.17676Q16.4551-0.0390625 14.9463 0.605469Q13.4375 1.25 11.709 1.25ZM7.17773-7.05078Q7.17773-6.69922 7.41211-6.47461Q7.64648-6.25 8.01758-6.25L10.8887-6.25L10.8887-3.36914Q10.8887-2.99805 11.1133-2.76855Q11.3379-2.53906 11.6895-2.53906Q12.0605-2.53906 12.29-2.76855Q12.5195-2.99805 12.5195-3.36914L12.5195-6.25L15.4004-6.25Q15.7715-6.25 16.001-6.47461Q16.2305-6.69922 16.2305-7.05078Q16.2305-7.42188 16.001-7.65137Q15.7715-7.88086 15.4004-7.88086L12.5195-7.88086L12.5195-10.752Q12.5195-11.1328 12.29-11.3623Q12.0605-11.5918 11.6895-11.5918Q11.3379-11.5918 11.1133-11.3574Q10.8887-11.123 10.8887-10.752L10.8887-7.88086L8.01758-7.88086Q7.63672-7.88086 7.40723-7.65137Q7.17773-7.42188 7.17773-7.05078Z"/>
  </g>
  <g transform="matrix(1 0 0 1 305.646 1933)">
   <path d="M14.9707 5.66406Q17.0605 5.66406 18.96 5.01465Q20.8594 4.36523 22.4512 3.19336Q24.043 2.02148 25.2197 0.429688Q26.3965-1.16211 27.0459-3.06641Q27.6953-4.9707 27.6953-7.05078Q27.6953-9.14062 27.0459-11.04Q26.3965-12.9395 25.2197-14.5312Q24.043-16.123 22.4512-17.2998Q20.8594-18.4766 18.9551-19.126Q17.0508-19.7754 14.9609-19.7754Q12.8711-19.7754 10.9717-19.126Q9.07227-18.4766 7.48535-17.2998Q5.89844-16.123 4.72168-14.5312Q3.54492-12.9395 2.90039-11.04Q2.25586-9.14062 2.25586-7.05078Q2.25586-4.9707 2.90527-3.06641Q3.55469-1.16211 4.72656 0.429688Q5.89844 2.02148 7.49023 3.19336Q9.08203 4.36523 10.9814 5.01465Q12.8809 5.66406 14.9707 5.66406ZM14.9707 3.84766Q13.1641 3.84766 11.5283 3.2959Q9.89258 2.74414 8.53516 1.74805Q7.17773 0.751953 6.17676-0.610352Q5.17578-1.97266 4.62891-3.6084Q4.08203-5.24414 4.08203-7.05078Q4.08203-8.86719 4.62891-10.5029Q5.17578-12.1387 6.17188-13.501Q7.16797-14.8633 8.52539-15.8594Q9.88281-16.8555 11.5186-17.4023Q13.1543-17.9492 14.9609-17.9492Q16.7773-17.9492 18.4131-17.4023Q20.0488-16.8555 21.4111-15.8594Q22.7734-14.8633 23.7695-13.501Q24.7656-12.1387 25.3174-10.5029Q25.8691-8.86719 25.8691-7.05078Q25.8789-5.24414 25.332-3.6084Q24.7852-1.97266 23.7842-0.610352Q22.7832 0.751953 21.4209 1.74805Q20.0586 2.74414 18.4229 3.2959Q16.7871 3.84766 14.9707 3.84766ZM9.19922-7.05078Q9.19922-6.66992 9.45801-6.4209Q9.7168-6.17188 10.1172-6.17188L14.0625-6.17188L14.0625-2.2168Q14.0625-1.81641 14.3115-1.55762Q14.5605-1.29883 14.9512-1.29883Q15.3516-1.29883 15.6104-1.55273Q15.8691-1.80664 15.8691-2.2168L15.8691-6.17188L19.8242-6.17188Q20.2246-6.17188 20.4785-6.4209Q20.7324-6.66992 20.7324-7.05078Q20.7324-7.46094 20.4785-7.71484Q20.2246-7.96875 19.8242-7.96875L15.8691-7.96875L15.8691-11.9141Q15.8691-12.3242 15.6104-12.583Q15.3516-12.8418 14.9512-12.8418Q14.5605-12.8418 14.3115-12.583Q14.0625-12.3242 14.0625-11.9141L14.0625-7.96875L10.1172-7.96875Q9.70703-7.96875 9.45312-7.71484Q9.19922-7.46094 9.19922-7.05078Z"/>
  </g>
  <text style="stroke:none;fill:black;font-family:sans-serif;font-size:13;font-weight:bold;" transform="matrix(1 0 0 1 263 1953)">Design Variations</text>
  <text style="stroke:none;fill:black;font-family:sans-serif;font-size:13;" transform="matrix(1 0 0 1 263 1971)">Symbols are supported in up to nine weights and three scales.</text>
  <text style="stroke:none;fill:black;font-family:sans-serif;font-size:13;" transform="matrix(1 0 0 1 263 1989)">For optimal layout with text and other symbols, vertically align</text>
  <text style="stroke:none;fill:black;font-family:sans-serif;font-size:13;" transform="matrix(1 0 0 1 263 2007)">symbols with the adjacent text.</text>
  <line style="fill:none;stroke:#00AEEF;stroke-width:0.5;opacity:1.0;" x1="776" x2="776" y1="1919" y2="1933"/>
  <g transform="matrix(1 0 0 1 776 1933)">
   <path d="M3.31055 0.15625Q3.70117 0.15625 3.91602-0.00976562Q4.13086-0.175781 4.26758-0.585938L5.52734-4.0332L11.2891-4.0332L12.5488-0.585938Q12.6855-0.175781 12.9004-0.00976562Q13.1152 0.15625 13.4961 0.15625Q13.8867 0.15625 14.1162-0.0585938Q14.3457-0.273438 14.3457-0.644531Q14.3457-0.869141 14.2383-1.17188L9.6582-13.3691Q9.48242-13.8184 9.17969-14.043Q8.87695-14.2676 8.4082-14.2676Q7.5-14.2676 7.17773-13.3789L2.59766-1.16211Q2.49023-0.859375 2.49023-0.634766Q2.49023-0.263672 2.70996-0.0537109Q2.92969 0.15625 3.31055 0.15625ZM6.00586-5.51758L8.37891-12.0898L8.42773-12.0898L10.8008-5.51758Z"/>
  </g>
  <line style="fill:none;stroke:#00AEEF;stroke-width:0.5;opacity:1.0;" x1="793.197" x2="793.197" y1="1919" y2="1933"/>
  <text style="stroke:none;fill:black;font-family:sans-serif;font-size:13;font-weight:bold;" transform="matrix(1 0 0 1 776 1953)">Margins</text>
  <text style="stroke:none;fill:black;font-family:sans-serif;font-size:13;" transform="matrix(1 0 0 1 776 1971)">Leading and trailing margins on the left and right side of each symbol</text>
  <text style="stroke:none;fill:black;font-family:sans-serif;font-size:13;" transform="matrix(1 0 0 1 776 1989)">can be adjusted by modifying the x-location of the margin guidelines.</text>
  <text style="stroke:none;fill:black;font-family:sans-serif;font-size:13;" transform="matrix(1 0 0 1 776 2007)">Modifications are automatically applied proportionally to all</text>
  <text style="stroke:none;fill:black;font-family:sans-serif;font-size:13;" transform="matrix(1 0 0 1 776 2025)">scales and weights.</text>
  <g transform="matrix(1 0 0 1 1289 1933)">
   <path d="M2.8418 1.86523L4.54102 3.57422Q5.18555 4.22852 5.90332 4.17969Q6.62109 4.13086 7.31445 3.35938L18.0078-8.42773L17.041-9.4043L6.42578 2.27539Q6.16211 2.57812 5.89355 2.61719Q5.625 2.65625 5.27344 2.30469L4.10156 1.14258Q3.75 0.791016 3.79395 0.522461Q3.83789 0.253906 4.14062-0.0195312L15.6152-10.8203L14.6387-11.7871L3.04688-0.898438Q2.30469-0.214844 2.25098 0.498047Q2.19727 1.21094 2.8418 1.86523ZM9.25781-16.3281Q8.94531-16.0254 8.90625-15.6348Q8.86719-15.2441 9.04297-14.9512Q9.21875-14.6777 9.55566-14.541Q9.89258-14.4043 10.3809-14.5215Q11.4746-14.7754 12.5977-14.7314Q13.7207-14.6875 14.7949-13.9844L14.209-12.5293Q13.9551-11.9043 14.0674-11.4404Q14.1797-10.9766 14.5801-10.5664L16.875-8.25195Q17.2363-7.88086 17.5781-7.82227Q17.9199-7.76367 18.3398-7.8418L19.4043-8.03711L20.0684-7.36328L20.0293-6.80664Q20-6.43555 20.1221-6.12305Q20.2441-5.81055 20.6055-5.44922L21.3672-4.70703Q21.7285-4.3457 22.1533-4.33105Q22.5781-4.31641 22.9297-4.66797L25.8398-7.58789Q26.1914-7.93945 26.1816-8.35449Q26.1719-8.76953 25.8105-9.13086L25.0391-9.89258Q24.6875-10.2539 24.3799-10.3857Q24.0723-10.5176 23.7109-10.4883L23.1348-10.4395L22.4902-11.0742L22.7344-12.1973Q22.832-12.6172 22.6953-12.9834Q22.5586-13.3496 22.1191-13.7891L19.9219-15.9766Q18.6719-17.2168 17.2607-17.8369Q15.8496-18.457 14.4189-18.4814Q12.9883-18.5059 11.665-17.959Q10.3418-17.4121 9.25781-16.3281ZM10.752-15.957Q11.6602-16.6211 12.7002-16.9043Q13.7402-17.1875 14.8047-17.085Q15.8691-16.9824 16.8701-16.5137Q17.8711-16.0449 18.7012-15.2051L21.1328-12.793Q21.3086-12.6172 21.3525-12.4512Q21.3965-12.2852 21.3379-12.0312L21.0156-10.5469L22.5195-9.0625L23.5059-9.12109Q23.6914-9.13086 23.7891-9.09668Q23.8867-9.0625 24.0332-8.91602L24.6094-8.33984L22.168-5.89844L21.5918-6.47461Q21.4453-6.62109 21.4062-6.71875Q21.3672-6.81641 21.377-7.01172L21.4453-7.98828L19.9512-9.47266L18.4277-9.21875Q18.1836-9.16992 18.042-9.2041Q17.9004-9.23828 17.7148-9.41406L15.7129-11.416Q15.5176-11.5918 15.4932-11.7529Q15.4688-11.9141 15.5859-12.1875L16.4648-14.2773Q15.293-15.3711 13.8281-15.791Q12.3633-16.2109 10.8398-15.7617Q10.7227-15.7324 10.6885-15.8057Q10.6543-15.8789 10.752-15.957Z"/>
  </g>
  <text style="stroke:none;fill:black;font-family:sans-serif;font-size:13;font-weight:bold;" transform="matrix(1 0 0 1 1289 1953)">Exporting</text>
  <text style="stroke:none;fill:black;font-family:sans-serif;font-size:13;" transform="matrix(1 0 0 1 1289 1971)">Symbols should be outlined when exporting to ensure the</text>
  <text style="stroke:none;fill:black;font-family:sans-serif;font-size:13;" transform="matrix(1 0 0 1 1289 1989)">design is preserved when submitting to Xcode.</text>
  <text id="template-version" style="stroke:none;fill:black;font-family:sans-serif;font-size:13;text-anchor:end;" transform="matrix(1 0 0 1 3036 1933)">Template v.2.0</text>
  <text style="stroke:none;fill:black;font-family:sans-serif;font-size:13;text-anchor:end;" transform="matrix(1 0 0 1 3036 1951)">Requires Xcode 13 or greater</text>
  <text id="descriptive-name" style="stroke:none;fill:black;font-family:sans-serif;font-size:13;text-anchor:end;" transform="matrix(1 0 0 1 3036 1969)">Generated from circle.fill</text>
  <text style="stroke:none;fill:black;font-family:sans-serif;font-size:13;text-anchor:end;" transform="matrix(1 0 0 1 3036 1987)">Typeset at 100 points</text>
  <text style="stroke:none;fill:black;font-family:sans-serif;font-size:13;" transform="matrix(1 0 0 1 263 726)">Small</text>
  <text style="stroke:none;fill:black;font-family:sans-serif;font-size:13;" transform="matrix(1 0 0 1 263 1156)">Medium</text>
  <text style="stroke:none;fill:black;font-family:sans-serif;font-size:13;" transform="matrix(1 0 0 1 263 1586)">Large</text>
 </g>
 <g id="Guides">
  <g id="H-reference" style="fill:#27AAE1;stroke:none;" transform="matrix(1 0 0 1 339 696)">
   <path d="M0.993347 0L3.6377 0L29.3282-67.1326L30.0301-67.1326L30.0301-70.459L28.1227-70.459ZM11.6882-24.4797L46.9818-24.4797L46.2311-26.7288L12.4382-26.7288ZM55.1193 0L57.7637 0L30.6381-70.459L29.4327-70.459L29.4327-67.1326Z"/>
  </g>
  <line id="Baseline-S" style="fill:none;stroke:#27AAE1;opacity:1;stroke-width:0.5;" x1="263" x2="3036" y1="696" y2="696"/>
  <line id="Capline-S" style="fill:none;stroke:#27AAE1;opacity:1;stroke-width:0.5;" x1="263" x2="3036" y1="625.541" y2="625.541"/>
  <g id="H-reference" style="fill:#27AAE1;stroke:none;" transform="matrix(1 0 0 1 339 1126)">
   <path d="M0.993347 0L3.6377 0L29.3282-67.1326L30.0301-67.1326L30.0301-70.459L28.1227-70.459ZM11.6882-24.4797L46.9818-24.4797L46.2311-26.7288L12.4382-26.7288ZM55.1193 0L57.7637 0L30.6381-70.459L29.4327-70.459L29.4327-67.1326Z"/>
  </g>
  <line id="Baseline-M" style="fill:none;stroke:#27AAE1;opacity:1;stroke-width:0.5;" x1="263" x2="3036" y1="1126" y2="1126"/>
  <line id="Capline-M" style="fill:none;stroke:#27AAE1;opacity:1;stroke-width:0.5;" x1="263" x2="3036" y1="1055.54" y2="1055.54"/>
  <g id="H-reference" style="fill:#27AAE1;stroke:none;" transform="matrix(1 0 0 1 339 1556)">
   <path d="M0.993347 0L3.6377 0L29.3282-67.1326L30.0301-67.1326L30.0301-70.459L28.1227-70.459ZM11.6882-24.4797L46.9818-24.4797L46.2311-26.7288L12.4382-26.7288ZM55.1193 0L57.7637 0L30.6381-70.459L29.4327-70.459L29.4327-67.1326Z"/>
  </g>
  <line id="Baseline-L" style="fill:none;stroke:#27AAE1;opacity:1;stroke-width:0.5;" x1="263" x2="3036" y1="1556" y2="1556"/>
  <line id="Capline-L" style="fill:none;stroke:#27AAE1;opacity:1;stroke-width:0.5;" x1="263" x2="3036" y1="1485.54" y2="1485.54"/>
  <line id="left-margin" style="fill:none;stroke:#00AEEF;stroke-width:0.5;opacity:1.0;" x1="1391.3" x2="1391.3" y1="1030.79" y2="1150.12"/>
  <line id="right-margin" style="fill:none;stroke:#00AEEF;stroke-width:0.5;opacity:1.0;" x1="1508.39" x2="1508.39" y1="1030.79" y2="1150.12"/>
 </g>
 <g id="Symbols">
  <g id="Black-L" transform="matrix(1 0 0 1 2854.05 1556)">
   <path d="M79.3457 32.8613Q90.5762 32.8613 100.757 29.3945Q110.938 25.9277 119.458 19.6777Q127.979 13.4277 134.229 4.90723Q140.479-3.61328 143.945-13.7939Q147.412-23.9746 147.412-35.2051Q147.412-46.4355 143.945-56.6162Q140.479-66.7969 134.204-75.3174Q127.93-83.8379 119.434-90.1123Q110.938-96.3867 100.732-99.8291Q90.5273-103.271 79.2969-103.271Q68.1152-103.271 57.9102-99.8291Q47.7051-96.3867 39.209-90.1123Q30.7129-83.8379 24.4385-75.3174Q18.1641-66.7969 14.7217-56.6162Q11.2793-46.4355 11.2793-35.2051Q11.2793-23.9746 14.7217-13.7939Q18.1641-3.61328 24.4385 4.90723Q30.7129 13.4277 39.2334 19.6777Q47.7539 25.9277 57.9346 29.3945Q68.1152 32.8613 79.3457 32.8613Z"/>
  </g>
  <g id="Heavy-L" transform="matrix(1 0 0 1 2558.4 1556)">
   <path d="M78.2852 31.7894Q89.3318 31.7894 99.3511 28.3745Q109.37 24.9596 117.758 18.8019Q126.146 12.6442 132.31 4.25606Q138.474-4.13208 141.888-14.1571Q145.303-24.1821 145.303-35.2165Q145.303-46.2624 141.888-56.2817Q138.474-66.301 132.291-74.6891Q126.109-83.0772 117.739-89.2593Q109.37-95.4414 99.3267-98.838Q89.283-102.235 78.2364-102.235Q67.2279-102.235 57.1899-98.838Q47.1519-95.4414 38.7882-89.2593Q30.4245-83.0772 24.2424-74.6891Q18.0603-66.301 14.6698-56.2817Q11.2793-46.2624 11.2793-35.2165Q11.2793-24.1821 14.6755-14.1571Q18.0717-4.13208 24.2481 4.25606Q30.4245 12.6442 38.8126 18.8019Q47.2008 24.9596 57.2201 28.3745Q67.2394 31.7894 78.2852 31.7894Z"/>
  </g>
  <g id="Bold-L" transform="matrix(1 0 0 1 2262.87 1556)">
   <path d="M77.0996 30.5908Q87.9395 30.5908 97.7783 27.2339Q107.617 23.877 115.857 17.8223Q124.097 11.7676 130.164 3.52783Q136.23-4.71191 139.587-14.563Q142.944-24.4141 142.944-35.2295Q142.944-46.0693 139.587-55.9082Q136.23-65.7471 130.151-73.9868Q124.072-82.2266 115.845-88.3057Q107.617-94.3848 97.7539-97.7295Q87.8906-101.074 77.0508-101.074Q66.2354-101.074 56.3843-97.7295Q46.5332-94.3848 38.3179-88.3057Q30.1025-82.2266 24.0234-73.9868Q17.9443-65.7471 14.6118-55.9082Q11.2793-46.0693 11.2793-35.2295Q11.2793-24.4141 14.624-14.563Q17.9688-4.71191 24.0356 3.52783Q30.1025 11.7676 38.3423 17.8223Q46.582 23.877 56.4209 27.2339Q66.2598 30.5908 77.0996 30.5908Z"/>
  </g>
  <g id="Semibold-L" transform="matrix(1 0 0 1 1966.97 1556)">
   <path d="M76.2817 29.7646Q86.9797 29.7646 96.6942 26.4477Q106.409 23.1308 114.546 17.1471Q122.684 11.1633 128.684 3.02582Q134.684-5.11169 138.001-14.843Q141.318-24.5743 141.318-35.2386Q141.318-45.9358 138.001-55.6503Q134.684-65.3648 128.676-73.5023Q122.668-81.6399 114.539-87.648Q106.409-93.6562 96.6698-96.9654Q86.9308-100.275 76.2329-100.275Q65.551-100.275 55.8289-96.9654Q46.1067-93.6562 37.9936-87.648Q29.8805-81.6399 23.8724-73.5023Q17.8642-65.3648 14.5718-55.6503Q11.2793-45.9358 11.2793-35.2386Q11.2793-24.5743 14.5885-14.843Q17.8978-5.11169 23.8892 3.02582Q29.8805 11.1633 38.018 17.1471Q46.1555 23.1308 55.8701 26.4477Q65.5846 29.7646 76.2817 29.7646Z"/>
  </g>
  <g id="Medium-L" transform="matrix(1 0 0 1 1670.87 1556)">
   <path d="M75.6622 29.1374Q86.2518 29.1374 95.8721 25.8511Q105.492 22.5647 113.552 16.6348Q121.613 10.7048 127.562 2.64473Q133.511-5.41534 136.798-15.0555Q140.085-24.6956 140.085-35.2448Q140.085-45.8351 136.798-55.455Q133.511-65.0749 127.557-73.135Q121.603-81.1951 113.548-87.1494Q105.492-93.1038 95.8477-96.386Q86.203-99.6681 75.6134-99.6681Q65.0322-99.6681 55.4077-96.386Q45.7832-93.1038 37.7476-87.1494Q29.7119-81.1951 23.7579-73.135Q17.804-65.0749 14.5416-55.455Q11.2793-45.8351 11.2793-35.2448Q11.2793-24.6956 14.5615-15.0555Q17.8436-5.41534 23.7778 2.64473Q29.7119 10.7048 37.772 16.6348Q45.8321 22.5647 55.452 25.8511Q65.0719 29.1374 75.6622 29.1374Z"/>
  </g>
  <g id="Regular-L" transform="matrix(1 0 0 1 1374.97 1556)">
   <path d="M74.8535 28.3203Q85.3027 28.3203 94.7998 25.0732Q104.297 21.8262 112.256 15.9668Q120.215 10.1074 126.099 2.14844Q131.982-5.81055 135.229-15.332Q138.477-24.8535 138.477-35.2539Q138.477-45.7031 135.229-55.2002Q131.982-64.6973 126.099-72.6562Q120.215-80.6152 112.256-86.499Q104.297-92.3828 94.7754-95.6299Q85.2539-98.877 74.8047-98.877Q64.3555-98.877 54.8584-95.6299Q45.3613-92.3828 37.4268-86.499Q29.4922-80.6152 23.6084-72.6562Q17.7246-64.6973 14.502-55.2002Q11.2793-45.7031 11.2793-35.2539Q11.2793-24.8535 14.5264-15.332Q17.7734-5.81055 23.6328 2.14844Q29.4922 10.1074 37.4512 15.9668Q45.4102 21.8262 54.9072 25.0732Q64.4043 28.3203 74.8535 28.3203Z"/>
  </g>
  <g id="Light-L" transform="matrix(1 0 0 1 1079.18 1556)">
   <path d="M73.9304 27.3972Q84.243 27.3972 93.6115 24.2031Q102.98 21.0091 110.818 15.2405Q118.656 9.47189 124.449 1.62621Q130.241-6.21948 133.436-15.5972Q136.63-24.9748 136.63-35.2539Q136.63-45.5666 133.436-54.9351Q130.241-64.3036 124.456-72.1416Q118.671-79.9797 110.825-85.7727Q102.98-91.5657 93.5947-94.7598Q84.2094-97.9538 73.8968-97.9538Q63.5834-97.9538 54.2225-94.7598Q44.8616-91.5657 37.0331-85.7727Q29.2046-79.9797 23.4192-72.1416Q17.6338-64.3036 14.4566-54.9351Q11.2793-45.5666 11.2793-35.2539Q11.2793-24.9748 14.4733-15.5972Q17.6674-6.21948 23.436 1.62621Q29.2046 9.47189 37.0499 15.2405Q44.8952 21.0091 54.2561 24.2031Q63.6169 27.3972 73.9304 27.3972Z"/>
  </g>
  <g id="Thin-L" transform="matrix(1 0 0 1 783.689 1556)">
   <path d="M72.7089 26.1757Q82.8423 26.1757 92.0403 23.0518Q101.238 19.928 108.916 14.2796Q116.594 8.63113 122.267 0.935745Q127.94-6.75964 131.063-15.9473Q134.187-25.135 134.187-35.2539Q134.187-45.3865 131.063-54.5849Q127.94-63.7833 122.284-71.4611Q116.629-79.1389 108.934-84.8118Q101.238-90.4846 92.0334-93.6085Q82.8285-96.7323 72.6952-96.7323Q62.5626-96.7323 53.3817-93.6085Q44.2009-90.4846 36.5128-84.8118Q28.8246-79.1389 23.1693-71.4611Q17.514-63.7833 14.3967-54.5849Q11.2793-45.3865 11.2793-35.2539Q11.2793-25.135 14.4032-15.9473Q17.527-6.75964 23.1758 0.935745Q28.8246 8.63113 36.5196 14.2796Q44.2146 19.928 53.3955 23.0518Q62.5763 26.1757 72.7089 26.1757Z"/>
  </g>
  <g id="Ultralight-L" transform="matrix(1 0 0 1 487.603 1556)">
   <path d="M72.0833 25.5501Q82.1243 25.5501 91.2354 22.4621Q100.346 19.3741 107.942 13.7871Q115.537 8.20007 121.149 0.581741Q126.76-7.03659 129.848-16.1266Q132.937-25.2167 132.937-35.2539Q132.937-45.2942 129.848-54.4052Q126.76-63.5162 121.172-71.1121Q115.583-78.7079 107.965-84.3193Q100.346-89.9307 91.2334-93.0187Q82.1205-96.1067 72.0802-96.1067Q62.0399-96.1067 52.9514-93.0187Q43.8629-89.9307 36.2461-84.3193Q28.6293-78.7079 23.0408-71.1121Q17.4522-63.5162 14.3658-54.4052Q11.2793-45.2942 11.2793-35.2539Q11.2793-25.2167 14.3673-16.1266Q17.4553-7.03659 23.0423 0.581741Q28.6293 8.20007 36.2476 13.7871Q43.866 19.3741 52.9545 22.4621Q62.043 25.5501 72.0833 25.5501Z"/>
  </g>
  <g id="Black-M" transform="matrix(1 0 0 1 2871.32 1126)">
   <path d="M62.0605 18.1152Q73.0957 18.1152 82.7637 13.9648Q92.4316 9.81445 99.7559 2.46582Q107.08-4.88281 111.255-14.5264Q115.43-24.1699 115.43-35.2051Q115.43-46.2402 111.255-55.8838Q107.08-65.5273 99.7559-72.876Q92.4316-80.2246 82.7637-84.375Q73.0957-88.5254 62.0605-88.5254Q51.0742-88.5254 41.4062-84.375Q31.7383-80.2246 24.3896-72.876Q17.041-65.5273 12.8906-55.8838Q8.74023-46.2402 8.74023-35.2051Q8.74023-24.1699 12.8906-14.5264Q17.041-4.88281 24.3896 2.46582Q31.7383 9.81445 41.4062 13.9648Q51.0742 18.1152 62.0605 18.1152Z"/>
  </g>
  <g id="Heavy-M" transform="matrix(1 0 0 1 2575.44 1126)">
   <path d="M61.2305 17.2737Q72.0703 17.2737 81.5826 13.1809Q91.095 9.08813 98.3154 1.84898Q105.536-5.39017 109.647-14.8838Q113.759-24.3774 113.759-35.2165Q113.759-46.0556 109.647-55.5496Q105.536-65.0436 98.3154-72.2828Q91.095-79.5219 81.5769-83.6147Q72.0589-87.7075 61.219-87.7075Q50.4173-87.7075 40.905-83.6147Q31.3927-79.5219 24.1592-72.2828Q16.9258-65.0436 12.833-55.5496Q8.74023-46.0556 8.74023-35.2165Q8.74023-24.3774 12.833-14.8838Q16.9258-5.39017 24.165 1.84898Q31.4041 9.08813 40.9164 13.1809Q50.4288 17.2737 61.2305 17.2737Z"/>
  </g>
  <g id="Bold-M" transform="matrix(1 0 0 1 2279.66 1126)">
   <path d="M60.3027 16.333Q70.9229 16.333 80.2612 12.3047Q89.5996 8.27637 96.7041 1.15967Q103.809-5.95703 107.849-15.2832Q111.89-24.6094 111.89-35.2295Q111.89-45.8496 107.849-55.1758Q103.809-64.502 96.7041-71.6187Q89.5996-78.7354 80.249-82.7637Q70.8984-86.792 60.2783-86.792Q49.6826-86.792 40.3442-82.7637Q31.0059-78.7354 23.9014-71.6187Q16.7969-64.502 12.7686-55.1758Q8.74023-45.8496 8.74023-35.2295Q8.74023-24.6094 12.7686-15.2832Q16.7969-5.95703 23.9136 1.15967Q31.0303 8.27637 40.3687 12.3047Q49.707 16.333 60.3027 16.333Z"/>
  </g>
  <g id="Semibold-M" transform="matrix(1 0 0 1 1983.6 1126)">
   <path d="M59.6626 15.6845Q70.1317 15.6845 79.3503 11.7004Q88.5689 7.71637 95.5933 0.683975Q102.618-6.34842 106.609-15.559Q110.601-24.7696 110.601-35.2386Q110.601-45.7077 106.609-54.9183Q102.618-64.1289 95.5933-71.1609Q88.5689-78.1929 79.3339-82.177Q70.0989-86.161 59.6298-86.161Q49.176-86.161 39.9578-82.177Q30.7396-78.1929 23.724-71.1609Q16.7084-64.1289 12.7243-54.9183Q8.74023-45.7077 8.74023-35.2386Q8.74023-24.7696 12.7243-15.559Q16.7084-6.34842 23.7404 0.683975Q30.7724 7.71637 39.991 11.7004Q49.2096 15.6845 59.6626 15.6845Z"/>
  </g>
  <g id="Medium-M" transform="matrix(1 0 0 1 1687.37 1126)">
   <path d="M59.1774 15.1924Q69.532 15.1924 78.6594 11.2423Q87.7869 7.29218 94.751 0.323868Q101.715-6.64444 105.669-15.7677Q109.624-24.8909 109.624-35.2448Q109.624-45.5994 105.669-54.7226Q101.715-63.8458 94.751-70.8141Q87.7869-77.7824 78.6396-81.7326Q69.4923-85.6827 59.1377-85.6827Q48.7923-85.6827 39.6648-81.7326Q30.5374-77.7824 23.5889-70.8141Q16.6405-63.8458 12.6904-54.7226Q8.74023-45.5994 8.74023-35.2448Q8.74023-24.8909 12.6904-15.7677Q16.6405-6.64444 23.6088 0.323868Q30.5771 7.29218 39.7045 11.2423Q48.8319 15.1924 59.1774 15.1924Z"/>
  </g>
  <g id="Regular-M" transform="matrix(1 0 0 1 1391.3 1126)">
   <path d="M58.5449 14.5508Q68.75 14.5508 77.7588 10.6445Q86.7676 6.73828 93.6523-0.146484Q100.537-7.03125 104.443-16.04Q108.35-25.0488 108.35-35.2539Q108.35-45.459 104.443-54.4678Q100.537-63.4766 93.6523-70.3613Q86.7676-77.2461 77.7344-81.1523Q68.7012-85.0586 58.4961-85.0586Q48.291-85.0586 39.2822-81.1523Q30.2734-77.2461 23.4131-70.3613Q16.5527-63.4766 12.6465-54.4678Q8.74023-45.459 8.74023-35.2539Q8.74023-25.0488 12.6465-16.04Q16.5527-7.03125 23.4375-0.146484Q30.3223 6.73828 39.3311 10.6445Q48.3398 14.5508 58.5449 14.5508Z"/>
  </g>
  <g id="Light-M" transform="matrix(1 0 0 1 1095.41 1126)">
   <path d="M57.7126 13.7184Q67.7811 13.7184 76.6384 9.8877Q85.4958 6.05698 92.2596-0.706482Q99.0234-7.46994 102.861-16.3349Q106.699-25.1999 106.699-35.2539Q106.699-45.3079 102.861-54.1729Q99.0234-63.0379 92.2596-69.8013Q85.4958-76.5648 76.6216-80.3955Q67.7475-84.2262 57.679-84.2262Q47.625-84.2262 38.76-80.3955Q29.895-76.5648 23.1556-69.8013Q16.4162-63.0379 12.5782-54.1729Q8.74023-45.3079 8.74023-35.2539Q8.74023-25.1999 12.571-16.3349Q16.4017-7.46994 23.1651-0.706482Q29.9286 6.05698 38.7936 9.8877Q47.6585 13.7184 57.7126 13.7184Z"/>
  </g>
  <g id="Thin-M" transform="matrix(1 0 0 1 799.793 1126)">
   <path d="M56.6116 12.6175Q66.5001 12.6175 75.1572 8.88672Q83.8142 5.15594 90.4179-1.4473Q97.0215-8.05054 100.769-16.7255Q104.517-25.4005 104.517-35.2539Q104.517-45.1073 100.769-53.7823Q97.0215-62.4573 90.4179-69.0605Q83.8142-75.6638 75.1503-79.3945Q66.4864-83.1253 56.5979-83.1253Q46.7445-83.1253 38.0695-79.3945Q29.3945-75.6638 22.8153-69.0605Q16.2361-62.4573 12.4882-53.7823Q8.74023-45.1073 8.74023-35.2539Q8.74023-25.4005 12.4706-16.7255Q16.201-8.05054 22.8046-1.4473Q29.4083 5.15594 38.0829 8.88672Q46.7575 12.6175 56.6116 12.6175Z"/>
  </g>
  <g id="Ultralight-M" transform="matrix(1 0 0 1 503.641 1126)">
   <path d="M56.0471 12.0529Q65.844 12.0529 74.3984 8.37402Q82.9529 4.69513 89.4745-1.82648Q95.9961-8.34808 99.6979-16.9254Q103.4-25.5028 103.4-35.2539Q103.4-45.005 99.6979-53.5824Q95.9961-62.1597 89.4745-68.6813Q82.9529-75.2029 74.3965-78.8818Q65.8401-82.5607 56.044-82.5607Q46.2929-82.5607 37.7155-78.8818Q29.1382-75.2029 22.641-68.6813Q16.1438-62.1597 12.442-53.5824Q8.74023-45.005 8.74023-35.2539Q8.74023-25.5028 12.4195-16.9254Q16.0988-8.34808 22.62-1.82648Q29.1412 4.69513 37.719 8.37402Q46.2967 12.0529 56.0471 12.0529Z"/>
  </g>
  <g id="Black-S" transform="matrix(1 0 0 1 2884.57 696)">
   <path d="M48.8281 6.78711Q57.5195 6.78711 65.1123 3.51562Q72.7051 0.244141 78.4912-5.54199Q84.2773-11.3281 87.5488-18.9209Q90.8203-26.5137 90.8203-35.2051Q90.8203-43.8965 87.5488-51.4893Q84.2773-59.082 78.4912-64.8682Q72.7051-70.6543 65.1123-73.9258Q57.5195-77.1973 48.8281-77.1973Q40.1367-77.1973 32.5439-73.9258Q24.9512-70.6543 19.165-64.8682Q13.3789-59.082 10.1074-51.4893Q6.83594-43.8965 6.83594-35.2051Q6.83594-26.5137 10.1074-18.9209Q13.3789-11.3281 19.165-5.54199Q24.9512 0.244141 32.5439 3.51562Q40.1367 6.78711 48.8281 6.78711Z"/>
  </g>
  <g id="Heavy-S" transform="matrix(1 0 0 1 2588.47 696)">
   <path d="M48.217 6.16455Q56.7703 6.16455 64.2536 2.93922Q71.7369-0.286102 77.4426-5.99709Q83.1482-11.7081 86.3792-19.1914Q89.6103-26.6747 89.6103-35.2165Q89.6103-43.7584 86.3792-51.2417Q83.1482-58.725 77.4368-64.436Q71.7255-70.1469 64.2422-73.3727Q56.7589-76.5984 48.2056-76.5984Q39.6645-76.5984 32.1812-73.3727Q24.6979-70.1469 18.998-64.436Q13.298-58.725 10.067-51.2417Q6.83594-43.7584 6.83594-35.2165Q6.83594-26.6747 10.067-19.1914Q13.298-11.7081 19.0037-5.99709Q24.7093-0.286102 32.1926 2.93922Q39.6759 6.16455 48.217 6.16455Z"/>
  </g>
  <g id="Bold-S" transform="matrix(1 0 0 1 2292.43 696)">
   <path d="M47.5342 5.46875Q55.9326 5.46875 63.2935 2.29492Q70.6543-0.878906 76.2695-6.50635Q81.8848-12.1338 85.0708-19.4946Q88.2568-26.8555 88.2568-35.2295Q88.2568-43.6035 85.0708-50.9644Q81.8848-58.3252 76.2573-63.9526Q70.6299-69.5801 63.269-72.7539Q55.9082-75.9277 47.5098-75.9277Q39.1357-75.9277 31.7749-72.7539Q24.4141-69.5801 18.811-63.9526Q13.208-58.3252 10.022-50.9644Q6.83594-43.6035 6.83594-35.2295Q6.83594-26.8555 10.022-19.4946Q13.208-12.1338 18.8232-6.50635Q24.4385-0.878906 31.7993 2.29492Q39.1602 5.46875 47.5342 5.46875Z"/>
  </g>
  <g id="Semibold-S" transform="matrix(1 0 0 1 1996.19 696)">
   <path d="M47.0634 4.98886Q55.3551 4.98886 62.6316 1.85051Q69.9081-1.28784 75.4608-6.8573Q81.0135-12.4268 84.1686-19.7033Q87.3238-26.9798 87.3238-35.2386Q87.3238-43.4967 84.1686-50.7732Q81.0135-58.0498 75.444-63.6192Q69.8746-69.1887 62.598-72.327Q55.3215-75.4654 47.0299-75.4654Q38.7711-75.4654 31.4949-72.327Q24.2188-69.1887 18.6821-63.6192Q13.1454-58.0498 9.99069-50.7732Q6.83594-43.4967 6.83594-35.2386Q6.83594-26.9798 9.99069-19.7033Q13.1454-12.4268 18.6985-6.8573Q24.2516-1.28784 31.5281 1.85051Q38.8046 4.98886 47.0634 4.98886Z"/>
  </g>
  <g id="Medium-S" transform="matrix(1 0 0 1 1699.83 696)">
   <path d="M46.7064 4.62494Q54.9171 4.62494 62.1296 1.51367Q69.342-1.5976 74.8478-7.12357Q80.3535-12.6495 83.485-19.862Q86.6165-27.0744 86.6165-35.2448Q86.6165-43.4158 83.485-50.6283Q80.3535-57.8407 74.8276-63.3667Q69.3016-68.8927 62.0892-72.0039Q54.8767-75.1152 46.666-75.1152Q38.4949-75.1152 31.2824-72.0039Q24.07-68.8927 18.5844-63.3667Q13.0989-57.8407 9.96742-50.6283Q6.83594-43.4158 6.83594-35.2448Q6.83594-27.0744 9.96742-19.862Q13.0989-12.6495 18.6047-7.12357Q24.1104-1.5976 31.3229 1.51367Q38.5353 4.62494 46.7064 4.62494Z"/>
  </g>
  <g id="Regular-S" transform="matrix(1 0 0 1 1403.58 696)">
   <path d="M46.2402 4.15039Q54.3457 4.15039 61.4746 1.07422Q68.6035-2.00195 74.0479-7.4707Q79.4922-12.9395 82.5928-20.0684Q85.6934-27.1973 85.6934-35.2539Q85.6934-43.3105 82.5928-50.4395Q79.4922-57.5684 74.0234-63.0371Q68.5547-68.5059 61.4258-71.582Q54.2969-74.6582 46.1914-74.6582Q38.1348-74.6582 31.0059-71.582Q23.877-68.5059 18.457-63.0371Q13.0371-57.5684 9.93652-50.4395Q6.83594-43.3105 6.83594-35.2539Q6.83594-27.1973 9.93652-20.0684Q13.0371-12.9395 18.4814-7.4707Q23.9258-2.00195 31.0547 1.07422Q38.1836 4.15039 46.2402 4.15039Z"/>
  </g>
  <g id="Light-S" transform="matrix(1 0 0 1 1107.6 696)">
   <path d="M45.5139 3.42407Q53.4828 3.42407 60.4755 0.408173Q67.4683-2.60773 72.8142-7.97043Q78.1601-13.3331 81.1928-20.3259Q84.2255-27.3186 84.2255-35.2539Q84.2255-43.1892 81.1928-50.182Q78.1601-57.1747 72.7974-62.5374Q67.4347-67.9001 60.442-70.916Q53.4492-73.9319 45.4803-73.9319Q37.5443-73.9319 30.5443-70.916Q23.5443-67.9001 18.2224-62.5374Q12.9005-57.1747 9.86824-50.182Q6.83594-43.1892 6.83594-35.2539Q6.83594-27.3186 9.86824-20.3259Q12.9005-13.3331 18.2392-7.97043Q23.5779-2.60773 30.5779 0.408173Q37.5778 3.42407 45.5139 3.42407Z"/>
  </g>
  <g id="Thin-S" transform="matrix(1 0 0 1 811.863 696)">
   <path d="M44.5526 2.46277Q52.3422 2.46277 59.1545-0.472641Q65.9668-3.40805 71.1826-8.63075Q76.3985-13.8535 79.3407-20.6661Q82.283-27.4788 82.283-35.2539Q82.283-43.029 79.3407-49.8417Q76.3985-56.6544 71.1758-61.8771Q65.9531-67.0998 59.1408-70.0352Q52.3285-72.9706 44.5389-72.9706Q36.7638-72.9706 29.9335-70.0352Q23.1033-67.0998 17.9119-61.8771Q12.7205-56.6544 9.77821-49.8417Q6.83594-43.029 6.83594-35.2539Q6.83594-27.4788 9.77821-20.6661Q12.7205-13.8535 17.9188-8.63075Q23.1171-3.40805 29.9473-0.472641Q36.7775 2.46277 44.5526 2.46277Z"/>
  </g>
  <g id="Ultralight-S" transform="matrix(1 0 0 1 515.649 696)">
   <path d="M44.0605 1.97067Q51.757 1.97067 58.4774-0.92392Q65.1978-3.81851 70.3468-8.9695Q75.4959-14.1205 78.3924-20.8405Q81.2889-27.5604 81.2889-35.2539Q81.2889-42.9474 78.3924-49.6674Q75.4959-56.3873 70.3453-61.5383Q65.1947-66.6893 58.4743-69.5839Q51.754-72.4785 44.0575-72.4785Q36.364-72.4785 29.6211-69.5839Q22.8783-66.6893 17.7532-61.5383Q12.6282-56.3873 9.73206-49.6674Q6.83594-42.9474 6.83594-35.2539Q6.83594-27.5604 9.73206-20.8405Q12.6282-14.1205 17.7547-8.9695Q22.8813-3.81851 29.6242-0.92392Q36.367 1.97067 44.0605 1.97067Z"/>
  </g>
 </g>
</svg>
