<?xml version="1.0" encoding="UTF-8"?>
<!--Generator: Apple Native CoreSVG 175.5-->
<!DOCTYPE svg
PUBLIC "-//W3C//DTD SVG 1.1//EN"
       "http://www.w3.org/Graphics/SVG/1.1/DTD/svg11.dtd">
<svg version="1.1" xmlns="http://www.w3.org/2000/svg" xmlns:xlink="http://www.w3.org/1999/xlink" width="3300" height="2200">
 <!--glyph: "uni100C07.medium", point size: 100.0, font version: "18.0d11e1", template writer version: "90"-->
 <g id="Notes">
  <rect height="2200" id="artboard" style="fill:white;opacity:1" width="3300" x="0" y="0"/>
  <line style="fill:none;stroke:black;opacity:1;stroke-width:0.5;" x1="263" x2="3036" y1="292" y2="292"/>
  <text style="stroke:none;fill:black;font-family:sans-serif;font-size:13;font-weight:bold;" transform="matrix(1 0 0 1 263 322)">Weight/Scale Variations</text>
  <text style="stroke:none;fill:black;font-family:sans-serif;font-size:13;text-anchor:middle;" transform="matrix(1 0 0 1 559.711 322)">Ultralight</text>
  <text style="stroke:none;fill:black;font-family:sans-serif;font-size:13;text-anchor:middle;" transform="matrix(1 0 0 1 856.422 322)">Thin</text>
  <text style="stroke:none;fill:black;font-family:sans-serif;font-size:13;text-anchor:middle;" transform="matrix(1 0 0 1 1153.13 322)">Light</text>
  <text style="stroke:none;fill:black;font-family:sans-serif;font-size:13;text-anchor:middle;" transform="matrix(1 0 0 1 1449.84 322)">Regular</text>
  <text style="stroke:none;fill:black;font-family:sans-serif;font-size:13;text-anchor:middle;" transform="matrix(1 0 0 1 1746.56 322)">Medium</text>
  <text style="stroke:none;fill:black;font-family:sans-serif;font-size:13;text-anchor:middle;" transform="matrix(1 0 0 1 2043.27 322)">Semibold</text>
  <text style="stroke:none;fill:black;font-family:sans-serif;font-size:13;text-anchor:middle;" transform="matrix(1 0 0 1 2339.98 322)">Bold</text>
  <text style="stroke:none;fill:black;font-family:sans-serif;font-size:13;text-anchor:middle;" transform="matrix(1 0 0 1 2636.69 322)">Heavy</text>
  <text style="stroke:none;fill:black;font-family:sans-serif;font-size:13;text-anchor:middle;" transform="matrix(1 0 0 1 2933.4 322)">Black</text>
  <line style="fill:none;stroke:black;opacity:1;stroke-width:0.5;" x1="263" x2="3036" y1="1903" y2="1903"/>
  <g transform="matrix(1 0 0 1 263 1933)">
   <path d="M9.24805 0.830078C13.5547 0.830078 17.1387-2.74414 17.1387-7.05078C17.1387-11.3574 13.5449-14.9316 9.23828-14.9316C4.94141-14.9316 1.36719-11.3574 1.36719-7.05078C1.36719-2.74414 4.95117 0.830078 9.24805 0.830078ZM9.24805-0.654297C5.70312-0.654297 2.87109-3.49609 2.87109-7.05078C2.87109-10.6055 5.69336-13.4473 9.23828-13.4473C12.793-13.4473 15.6445-10.6055 15.6445-7.05078C15.6445-3.49609 12.8027-0.654297 9.24805-0.654297ZM5.6543-7.05078C5.6543-6.62109 5.95703-6.32812 6.40625-6.32812L8.50586-6.32812L8.50586-4.20898C8.50586-3.76953 8.79883-3.4668 9.22852-3.4668C9.67773-3.4668 9.9707-3.76953 9.9707-4.20898L9.9707-6.32812L12.0898-6.32812C12.5293-6.32812 12.832-6.62109 12.832-7.05078C12.832-7.49023 12.5293-7.79297 12.0898-7.79297L9.9707-7.79297L9.9707-9.90234C9.9707-10.3516 9.67773-10.6543 9.22852-10.6543C8.79883-10.6543 8.50586-10.3516 8.50586-9.90234L8.50586-7.79297L6.40625-7.79297C5.95703-7.79297 5.6543-7.49023 5.6543-7.05078Z"/>
  </g>
  <g transform="matrix(1 0 0 1 281.867 1933)">
   <path d="M11.709 2.91016C17.1582 2.91016 21.6699-1.61133 21.6699-7.05078C21.6699-12.5 17.1484-17.0117 11.6992-17.0117C6.25977-17.0117 1.74805-12.5 1.74805-7.05078C1.74805-1.61133 6.26953 2.91016 11.709 2.91016ZM11.709 1.25C7.09961 1.25 3.41797-2.44141 3.41797-7.05078C3.41797-11.6602 7.08984-15.3516 11.6992-15.3516C16.3086-15.3516 20.0098-11.6602 20.0098-7.05078C20.0098-2.44141 16.3184 1.25 11.709 1.25ZM7.17773-7.05078C7.17773-6.57227 7.50977-6.25 8.00781-6.25L10.8789-6.25L10.8789-3.36914C10.8789-2.88086 11.2109-2.53906 11.6895-2.53906C12.1777-2.53906 12.5195-2.87109 12.5195-3.36914L12.5195-6.25L15.4004-6.25C15.8887-6.25 16.2305-6.57227 16.2305-7.05078C16.2305-7.53906 15.8887-7.88086 15.4004-7.88086L12.5195-7.88086L12.5195-10.752C12.5195-11.25 12.1777-11.5918 11.6895-11.5918C11.2109-11.5918 10.8789-11.25 10.8789-10.752L10.8789-7.88086L8.00781-7.88086C7.50977-7.88086 7.17773-7.53906 7.17773-7.05078Z"/>
  </g>
  <g transform="matrix(1 0 0 1 305.646 1933)">
   <path d="M14.9707 5.66406C21.9336 5.66406 27.6953-0.0976562 27.6953-7.05078C27.6953-14.0137 21.9238-19.7754 14.9609-19.7754C8.00781-19.7754 2.25586-14.0137 2.25586-7.05078C2.25586-0.0976562 8.01758 5.66406 14.9707 5.66406ZM14.9707 3.84766C8.93555 3.84766 4.08203-1.01562 4.08203-7.05078C4.08203-13.0957 8.92578-17.9492 14.9609-17.9492C21.0059-17.9492 25.8691-13.0957 25.8691-7.05078C25.8691-1.01562 21.0156 3.84766 14.9707 3.84766ZM9.19922-7.05078C9.19922-6.5332 9.57031-6.17188 10.1172-6.17188L14.0625-6.17188L14.0625-2.2168C14.0625-1.67969 14.4336-1.29883 14.9512-1.29883C15.4883-1.29883 15.8594-1.66992 15.8594-2.2168L15.8594-6.17188L19.8145-6.17188C20.3516-6.17188 20.7324-6.5332 20.7324-7.05078C20.7324-7.59766 20.3613-7.96875 19.8145-7.96875L15.8594-7.96875L15.8594-11.9141C15.8594-12.4609 15.4883-12.8418 14.9512-12.8418C14.4336-12.8418 14.0625-12.4609 14.0625-11.9141L14.0625-7.96875L10.1172-7.96875C9.57031-7.96875 9.19922-7.59766 9.19922-7.05078Z"/>
  </g>
  <text style="stroke:none;fill:black;font-family:sans-serif;font-size:13;font-weight:bold;" transform="matrix(1 0 0 1 263 1953)">Design Variations</text>
  <text style="stroke:none;fill:black;font-family:sans-serif;font-size:13;" transform="matrix(1 0 0 1 263 1971)">Symbols are supported in up to nine weights and three scales.</text>
  <text style="stroke:none;fill:black;font-family:sans-serif;font-size:13;" transform="matrix(1 0 0 1 263 1989)">For optimal layout with text and other symbols, vertically align</text>
  <text style="stroke:none;fill:black;font-family:sans-serif;font-size:13;" transform="matrix(1 0 0 1 263 2007)">symbols with the adjacent text.</text>
  <line style="fill:none;stroke:#00AEEF;stroke-width:0.5;opacity:1.0;" x1="776" x2="776" y1="1919" y2="1933"/>
  <g transform="matrix(1 0 0 1 776 1933)">
   <path d="M3.31055 0.15625C3.82812 0.15625 4.08203-0.0390625 4.26758-0.585938L5.52734-4.0332L11.2891-4.0332L12.5488-0.585938C12.7344-0.0390625 12.9883 0.15625 13.4961 0.15625C14.0137 0.15625 14.3457-0.15625 14.3457-0.644531C14.3457-0.810547 14.3164-0.966797 14.2383-1.17188L9.6582-13.3691C9.43359-13.9648 9.0332-14.2676 8.4082-14.2676C7.80273-14.2676 7.39258-13.9746 7.17773-13.3789L2.59766-1.16211C2.51953-0.957031 2.49023-0.800781 2.49023-0.634766C2.49023-0.146484 2.80273 0.15625 3.31055 0.15625ZM6.00586-5.51758L8.37891-12.0898L8.42773-12.0898L10.8008-5.51758Z"/>
  </g>
  <line style="fill:none;stroke:#00AEEF;stroke-width:0.5;opacity:1.0;" x1="793.197" x2="793.197" y1="1919" y2="1933"/>
  <text style="stroke:none;fill:black;font-family:sans-serif;font-size:13;font-weight:bold;" transform="matrix(1 0 0 1 776 1953)">Margins</text>
  <text style="stroke:none;fill:black;font-family:sans-serif;font-size:13;" transform="matrix(1 0 0 1 776 1971)">Leading and trailing margins on the left and right side of each symbol</text>
  <text style="stroke:none;fill:black;font-family:sans-serif;font-size:13;" transform="matrix(1 0 0 1 776 1989)">can be adjusted by modifying the x-location of the margin guidelines.</text>
  <text style="stroke:none;fill:black;font-family:sans-serif;font-size:13;" transform="matrix(1 0 0 1 776 2007)">Modifications are automatically applied proportionally to all</text>
  <text style="stroke:none;fill:black;font-family:sans-serif;font-size:13;" transform="matrix(1 0 0 1 776 2025)">scales and weights.</text>
  <g transform="matrix(1 0 0 1 1289 1933)">
   <path d="M2.8418 1.86523L4.54102 3.57422C5.40039 4.44336 6.38672 4.38477 7.31445 3.35938L18.0078-8.42773L17.041-9.4043L6.42578 2.27539C6.07422 2.67578 5.74219 2.77344 5.27344 2.30469L4.10156 1.14258C3.63281 0.683594 3.74023 0.341797 4.14062-0.0195312L15.6152-10.8203L14.6387-11.7871L3.04688-0.898438C2.06055 0.0195312 1.98242 0.996094 2.8418 1.86523ZM9.25781-16.3281C8.83789-15.918 8.80859-15.3418 9.04297-14.9512C9.27734-14.5898 9.73633-14.3555 10.3809-14.5215C11.8457-14.8633 13.3691-14.9219 14.7949-13.9844L14.209-12.5293C13.8672-11.6992 14.043-11.1133 14.5801-10.5664L16.875-8.25195C17.3633-7.76367 17.7734-7.74414 18.3398-7.8418L19.4043-8.03711L20.0684-7.36328L20.0293-6.80664C19.9902-6.30859 20.1172-5.92773 20.6055-5.44922L21.3672-4.70703C21.8457-4.22852 22.4609-4.19922 22.9297-4.66797L25.8398-7.58789C26.3086-8.05664 26.2891-8.65234 25.8105-9.13086L25.0391-9.89258C24.5605-10.3711 24.1895-10.5273 23.7109-10.4883L23.1348-10.4395L22.4902-11.0742L22.7344-12.1973C22.8613-12.7637 22.7051-13.2031 22.1191-13.7891L19.9219-15.9766C16.582-19.2969 12.1484-19.2188 9.25781-16.3281ZM10.752-15.957C13.1836-17.7344 16.4746-17.4316 18.7012-15.2051L21.1328-12.793C21.3672-12.5586 21.4062-12.373 21.3379-12.0312L21.0156-10.5469L22.5195-9.0625L23.5059-9.12109C23.7598-9.13086 23.8379-9.11133 24.0332-8.91602L24.6094-8.33984L22.168-5.89844L21.5918-6.47461C21.3965-6.66992 21.3672-6.74805 21.377-7.01172L21.4453-7.98828L19.9512-9.47266L18.4277-9.21875C18.1055-9.15039 17.959-9.17969 17.7148-9.41406L15.7129-11.416C15.459-11.6504 15.4297-11.8164 15.5859-12.1875L16.4648-14.2773C14.9023-15.7324 12.8711-16.3574 10.8398-15.7617C10.6836-15.7227 10.625-15.8496 10.752-15.957Z"/>
  </g>
  <text style="stroke:none;fill:black;font-family:sans-serif;font-size:13;font-weight:bold;" transform="matrix(1 0 0 1 1289 1953)">Exporting</text>
  <text style="stroke:none;fill:black;font-family:sans-serif;font-size:13;" transform="matrix(1 0 0 1 1289 1971)">Symbols should be outlined when exporting to ensure the</text>
  <text style="stroke:none;fill:black;font-family:sans-serif;font-size:13;" transform="matrix(1 0 0 1 1289 1989)">design is preserved when submitting to Xcode.</text>
  <text id="template-version" style="stroke:none;fill:black;font-family:sans-serif;font-size:13;text-anchor:end;" transform="matrix(1 0 0 1 3036 1933)">Template v.2.0</text>
  <text style="stroke:none;fill:black;font-family:sans-serif;font-size:13;text-anchor:end;" transform="matrix(1 0 0 1 3036 1951)">Requires Xcode 12 or greater</text>
  <text id="descriptive-name" style="stroke:none;fill:black;font-family:sans-serif;font-size:13;text-anchor:end;" transform="matrix(1 0 0 1 3036 1969)">Generated from arrowtriangle.forward.fill</text>
  <text style="stroke:none;fill:black;font-family:sans-serif;font-size:13;text-anchor:end;" transform="matrix(1 0 0 1 3036 1987)">Typeset at 100 points</text>
  <text style="stroke:none;fill:black;font-family:sans-serif;font-size:13;" transform="matrix(1 0 0 1 263 726)">Small</text>
  <text style="stroke:none;fill:black;font-family:sans-serif;font-size:13;" transform="matrix(1 0 0 1 263 1156)">Medium</text>
  <text style="stroke:none;fill:black;font-family:sans-serif;font-size:13;" transform="matrix(1 0 0 1 263 1586)">Large</text>
 </g>
 <g id="Guides">
  <g id="H-reference" style="fill:#27AAE1;stroke:none;" transform="matrix(1 0 0 1 339 696)">
   <path d="M0.993654 0L3.63775 0L29.3281-67.1323L30.0303-67.1323L30.0303-70.459L28.1226-70.459ZM11.6885-24.4799L46.9815-24.4799L46.2315-26.7285L12.4385-26.7285ZM55.1196 0L57.7637 0L30.6382-70.459L29.4326-70.459L29.4326-67.1323Z"/>
  </g>
  <line id="Baseline-S" style="fill:none;stroke:#27AAE1;opacity:1;stroke-width:0.5;" x1="263" x2="3036" y1="696" y2="696"/>
  <line id="Capline-S" style="fill:none;stroke:#27AAE1;opacity:1;stroke-width:0.5;" x1="263" x2="3036" y1="625.541" y2="625.541"/>
  <g id="H-reference" style="fill:#27AAE1;stroke:none;" transform="matrix(1 0 0 1 339 1126)">
   <path d="M0.993654 0L3.63775 0L29.3281-67.1323L30.0303-67.1323L30.0303-70.459L28.1226-70.459ZM11.6885-24.4799L46.9815-24.4799L46.2315-26.7285L12.4385-26.7285ZM55.1196 0L57.7637 0L30.6382-70.459L29.4326-70.459L29.4326-67.1323Z"/>
  </g>
  <line id="Baseline-M" style="fill:none;stroke:#27AAE1;opacity:1;stroke-width:0.5;" x1="263" x2="3036" y1="1126" y2="1126"/>
  <line id="Capline-M" style="fill:none;stroke:#27AAE1;opacity:1;stroke-width:0.5;" x1="263" x2="3036" y1="1055.54" y2="1055.54"/>
  <g id="H-reference" style="fill:#27AAE1;stroke:none;" transform="matrix(1 0 0 1 339 1556)">
   <path d="M0.993654 0L3.63775 0L29.3281-67.1323L30.0303-67.1323L30.0303-70.459L28.1226-70.459ZM11.6885-24.4799L46.9815-24.4799L46.2315-26.7285L12.4385-26.7285ZM55.1196 0L57.7637 0L30.6382-70.459L29.4326-70.459L29.4326-67.1323Z"/>
  </g>
  <line id="Baseline-L" style="fill:none;stroke:#27AAE1;opacity:1;stroke-width:0.5;" x1="263" x2="3036" y1="1556" y2="1556"/>
  <line id="Capline-L" style="fill:none;stroke:#27AAE1;opacity:1;stroke-width:0.5;" x1="263" x2="3036" y1="1485.54" y2="1485.54"/>
  <line id="left-margin" style="fill:none;stroke:#00AEEF;stroke-width:0.5;opacity:1.0;" x1="1398.81" x2="1398.81" y1="1030.79" y2="1150.12"/>
  <line id="right-margin" style="fill:none;stroke:#00AEEF;stroke-width:0.5;opacity:1.0;" x1="1500.88" x2="1500.88" y1="1030.79" y2="1150.12"/>
 </g>
 <g id="Symbols">
  <g id="Black-L" transform="matrix(1 0 0 1 2865.73 1556)">
   <path d="M28.2779 16.4766C31.4191 16.4766 34.1178 15.2811 38.2006 13.3174L112.63-22.2163C119.013-25.2812 122.469-29.5501 122.469-35.1893C122.469-40.8285 119.013-45.0974 112.63-48.1622L38.2006-83.696C34.0969-85.6596 31.3983-86.8552 28.2571-86.8552C21.8271-86.8552 16.084-81.8944 16.084-73.4153L16.1048 3.03672C16.1048 11.5158 21.8479 16.4766 28.2779 16.4766Z"/>
  </g>
  <g id="Heavy-L" transform="matrix(1 0 0 1 2569.46 1556)">
   <path d="M27.1153 16.0845C30.0855 16.0845 32.5988 14.9287 36.3166 13.1244L112.491-23.3773C118.565-26.313 121.595-30.1209 121.595-35.1893C121.595-40.2577 118.565-44.0656 112.491-47.0013L36.3166-83.503C32.5686-85.3073 30.0553-86.4631 27.0851-86.4631C21.1273-86.4631 16.084-81.8652 16.084-74.1472L16.1142 3.76863C16.1142 11.4866 21.1575 16.0845 27.1153 16.0845Z"/>
  </g>
  <g id="Bold-L" transform="matrix(1 0 0 1 2273.26 1556)">
   <path d="M25.6783 15.6004C28.4036 15.6004 30.6641 14.5131 33.9361 12.9086L112.433-24.8366C118.034-27.5662 120.571-30.8129 120.571-35.1893C120.571-39.5657 118.034-42.8123 112.433-45.542L33.9361-83.2871C30.6261-84.8917 28.3656-85.9789 25.6403-85.9789C20.2964-85.9789 16.084-81.8567 16.084-75.0837L16.122 4.70514C16.122 11.4781 20.3344 15.6004 25.6783 15.6004Z"/>
  </g>
  <g id="Semibold-L" transform="matrix(1 0 0 1 1976.9 1556)">
   <path d="M24.6877 15.2666C27.2442 15.2666 29.3303 14.2266 32.2949 12.7598L112.394-25.8426C117.668-28.4302 119.865-31.2899 119.865-35.1893C119.865-39.0886 117.668-41.9483 112.394-44.536L32.2949-83.1383C29.287-84.6052 27.2008-85.6452 24.6443-85.6452C19.7235-85.6452 16.084-81.8508 16.084-75.7293L16.1273 5.35076C16.1273 11.4722 19.7669 15.2666 24.6877 15.2666Z"/>
  </g>
  <g id="Medium-L" transform="matrix(1 0 0 1 1680.46 1556)">
   <path d="M23.9365 15.0135C26.365 15.0135 28.319 14.0094 31.0505 12.6469L112.364-26.6054C117.39-29.0853 119.33-31.6517 119.33-35.1893C119.33-38.7269 117.39-41.2932 112.364-43.7731L31.0505-83.0255C28.2716-84.388 26.3176-85.3921 23.8891-85.3921C19.2891-85.3921 16.084-81.8463 16.084-76.2189L16.1314 5.8403C16.1314 11.4677 19.3366 15.0135 23.9365 15.0135Z"/>
  </g>
  <g id="Regular-L" transform="matrix(1 0 0 1 1384.09 1556)">
   <path d="M22.9567 14.6834C25.2183 14.6834 26.9999 13.726 29.4274 12.4997L112.324-27.6004C117.028-29.9398 118.632-32.1235 118.632-35.1893C118.632-38.255 117.028-40.4387 112.324-42.7782L29.4274-82.8783C26.9471-84.1046 25.1655-85.062 22.904-85.062C18.7225-85.062 16.084-81.8405 16.084-76.8574L16.1367 6.47883C16.1367 11.4619 18.7753 14.6834 22.9567 14.6834Z"/>
  </g>
  <g id="Light-L" transform="matrix(1 0 0 1 1087.55 1556)">
   <path d="M21.9834 14.359C23.8633 14.359 25.3204 13.5734 27.4807 12.4997L113.031-28.7455C116.819-30.646 118.307-32.5052 118.307-35.1893C118.307-37.8733 116.819-39.7326 113.031-41.6331L27.4807-82.8783C25.2867-83.9519 23.8296-84.7375 21.9497-84.7375C18.379-84.7375 16.084-82.0123 16.084-77.6971L16.1177 7.31858C16.1177 11.6337 18.4127 14.359 21.9834 14.359Z"/>
  </g>
  <g id="Thin-L" transform="matrix(1 0 0 1 791.05 1556)">
   <path d="M20.6961 13.9299C22.0711 13.9299 23.0991 13.3714 24.906 12.4997L113.965-30.26C116.541-31.5799 117.878-33.0101 117.878-35.1893C117.878-37.3685 116.541-38.7986 113.965-40.1185L24.906-82.8783C23.0907-83.75 22.0627-84.3084 20.6876-84.3084C17.9247-84.3084 16.084-82.2394 16.084-78.8078L16.0924 8.42922C16.0924 11.8609 17.9331 13.9299 20.6961 13.9299Z"/>
  </g>
  <g id="Ultralight-L" transform="matrix(1 0 0 1 494.448 1556)">
   <path d="M20.0367 13.7101C21.1531 13.7101 21.9614 13.268 23.5873 12.4997L114.443-31.0357C116.399-32.0583 117.658-33.2686 117.658-35.1893C117.658-37.1099 116.399-38.3203 114.443-39.3428L23.5873-82.8783C21.9659-83.6466 21.1576-84.0886 20.0412-84.0886C17.6919-84.0886 16.084-82.3558 16.084-79.3767L16.0795 8.99809C16.0795 11.9772 17.6874 13.7101 20.0367 13.7101Z"/>
  </g>
  <g id="Black-M" transform="matrix(1 0 0 1 2880.62 1126)">
   <path d="M22.7753 5.12242C25.3042 5.12242 27.5103 4.1853 30.9511 2.54769L87.4753-24.3051C92.5614-26.731 95.5896-30.3906 95.5896-35.1983C95.5896-40.0061 92.5614-43.6656 87.4753-46.0916L30.9511-72.9444C27.5048-74.582 25.2987-75.5191 22.7698-75.5191C17.4653-75.5191 12.4609-71.4311 12.4609-64.2984L12.4664-6.09829C12.4664 1.0344 17.4707 5.12242 22.7753 5.12242Z"/>
  </g>
  <g id="Heavy-M" transform="matrix(1 0 0 1 2584.32 1126)">
   <path d="M21.7286 4.76904C24.1255 4.76904 26.1804 3.85493 29.2889 2.35904L87.2735-25.3343C92.1426-27.6745 94.7646-30.9133 94.7646-35.1983C94.7646-39.4833 92.1426-42.7221 87.2735-45.0624L29.2889-72.7557C26.164-74.2516 24.1091-75.1657 21.7122-75.1657C16.8129-75.1657 12.4609-71.3867 12.4609-64.9364L12.4773-5.46028C12.4773 0.990037 16.8293 4.76904 21.7286 4.76904Z"/>
  </g>
  <g id="Bold-M" transform="matrix(1 0 0 1 2288.07 1126)">
   <path d="M20.5578 4.37372C22.807 4.37372 24.6927 3.48536 27.4295 2.14801L87.0477-26.4857C91.674-28.73 93.8418-31.4981 93.8418-35.1983C93.8418-38.8986 91.674-41.6667 87.0477-43.911L27.4295-72.5447C24.6641-73.882 22.7784-74.7704 20.5291-74.7704C16.0831-74.7704 12.4609-71.3371 12.4609-65.6501L12.4896-4.74657C12.4896 0.940412 16.1117 4.37372 20.5578 4.37372Z"/>
  </g>
  <g id="Semibold-M" transform="matrix(1 0 0 1 1991.68 1126)">
   <path d="M19.7506 4.1012C21.8981 4.1012 23.6671 3.23058 26.1477 2.00253L86.892-27.2795C91.3509-29.4576 93.2055-31.9013 93.2055-35.1983C93.2055-38.4954 91.3509-40.9391 86.892-43.1172L26.1477-72.3992C23.63-73.6273 21.861-74.4979 19.7135-74.4979C15.58-74.4979 12.4609-71.3029 12.4609-66.1421L12.498-4.25454C12.498 0.9062 15.617 4.1012 19.7506 4.1012Z"/>
  </g>
  <g id="Medium-M" transform="matrix(1 0 0 1 1695.21 1126)">
   <path d="M19.1385 3.89456C21.2088 3.89456 22.8894 3.0374 25.1757 1.89222L86.774-27.8813C91.106-30.0093 92.7231-32.2069 92.7231-35.1983C92.7231-38.1897 91.106-40.3873 86.774-42.5154L25.1757-72.2889C22.846-73.4341 21.1654-74.2912 19.0951-74.2912C15.1985-74.2912 12.4609-71.2769 12.4609-66.5152L12.5044-3.88146C12.5044 0.88026 15.2419 3.89456 19.1385 3.89456Z"/>
  </g>
  <g id="Regular-M" transform="matrix(1 0 0 1 1398.81 1126)">
   <path d="M18.3402 3.62503C20.3099 3.62503 21.875 2.78542 23.908 1.74834L86.6201-28.6664C90.7865-30.729 92.0939-32.6056 92.0939-35.1983C92.0939-37.791 90.7865-39.6677 86.6201-41.7303L23.908-72.145C21.8233-73.1821 20.2581-74.0217 18.2885-74.0217C14.7009-74.0217 12.4609-71.2431 12.4609-67.0018L12.5127-3.39484C12.5127 0.846424 14.7527 3.62503 18.3402 3.62503Z"/>
  </g>
  <g id="Light-M" transform="matrix(1 0 0 1 1102.25 1126)">
   <path d="M17.4676 3.33414C19.095 3.33414 20.3693 2.64853 22.1627 1.74834L87.2532-29.693C90.5983-31.3621 91.803-32.9479 91.803-35.1983C91.803-37.4488 90.5983-39.0346 87.2532-40.7037L22.1627-72.145C20.3346-73.0452 19.0603-73.7308 17.4329-73.7308C14.3929-73.7308 12.4609-71.3971 12.4609-67.7547L12.4956-2.64196C12.4956 1.00042 14.4275 3.33414 17.4676 3.33414Z"/>
  </g>
  <g id="Thin-M" transform="matrix(1 0 0 1 805.729 1126)">
   <path d="M16.3134 2.94942C17.4882 2.94942 18.3778 2.46748 19.8543 1.74834L88.0905-31.0509C90.3493-32.1994 91.4183-33.4005 91.4183-35.1983C91.4183-36.9962 90.3493-38.1973 88.0905-39.3458L19.8543-72.145C18.3658-72.8642 17.4762-73.3461 16.3014-73.3461C13.9856-73.3461 12.4609-71.6008 12.4609-68.7505L12.4729-1.64621C12.4729 1.2041 13.9976 2.94942 16.3134 2.94942Z"/>
  </g>
  <g id="Ultralight-M" transform="matrix(1 0 0 1 509.116 1126)">
   <path d="M15.7222 2.75237C16.6652 2.75237 17.3577 2.37475 18.672 1.74834L88.5194-31.7463C90.2218-32.6283 91.2212-33.6323 91.2212-35.1983C91.2212-36.7644 90.2218-37.7684 88.5194-38.6503L18.672-72.145C17.3573-72.7714 16.6648-73.149 15.7218-73.149C13.7769-73.149 12.4609-71.7051 12.4609-69.2605L12.4614-1.13619C12.4614 1.30842 13.7773 2.75237 15.7222 2.75237Z"/>
  </g>
  <g id="Black-S" transform="matrix(1 0 0 1 2891.92 696)">
   <path d="M18.1152-3.51562C20.1172-3.51562 21.875-4.24805 24.6582-5.56641L68.6523-26.416C72.6562-28.3203 75.1465-31.2988 75.1465-35.2051C75.1465-39.1113 72.6562-42.0898 68.6523-43.9941L24.6582-64.8438C21.875-66.1621 20.1172-66.8945 18.1152-66.8945C13.8672-66.8945 9.76562-63.623 9.76562-57.8613L9.76562-12.5488C9.76562-6.78711 13.8672-3.51562 18.1152-3.51562Z"/>
  </g>
  <g id="Heavy-S" transform="matrix(1 0 0 1 2595.54 696)">
   <path d="M17.3316-3.78069C19.2644-3.78069 20.93-4.51311 23.4597-5.72775L68.3988-27.1651C72.322-29.0464 74.4781-31.7022 74.4781-35.2051C74.4781-38.708 72.322-41.3638 68.3988-43.2451L23.4597-64.6824C20.9185-65.897 19.2529-66.6295 17.32-66.6295C13.3486-66.6295 9.76562-63.5654 9.76562-58.3108L9.77715-12.0994C9.77715-6.84473 13.3601-3.78069 17.3316-3.78069Z"/>
  </g>
  <g id="Bold-S" transform="matrix(1 0 0 1 2299.21 696)">
   <path d="M16.4551-4.07715C18.3105-4.07715 19.873-4.80957 22.1191-5.9082L68.1152-28.0029C71.9482-29.8584 73.7305-32.1533 73.7305-35.2051C73.7305-38.2568 71.9482-40.5518 68.1152-42.4072L22.1191-64.502C19.8486-65.6006 18.2861-66.333 16.4307-66.333C12.7686-66.333 9.76562-63.501 9.76562-58.8135L9.79004-11.5967C9.79004-6.90918 12.793-4.07715 16.4551-4.07715Z"/>
  </g>
  <g id="Semibold-S" transform="matrix(1 0 0 1 2002.75 696)">
   <path d="M15.8508-4.28154C17.6529-4.28154 19.1443-5.01396 21.1949-6.03262L67.9197-28.5806C71.6905-30.4183 73.215-32.4644 73.215-35.2051C73.215-37.9458 71.6905-39.9919 67.9197-41.8296L21.1949-64.3775C19.111-65.3962 17.6196-66.1286 15.8175-66.1286C12.3687-66.1286 9.76562-63.4565 9.76562-59.1601L9.79893-11.2501C9.79893-6.95361 12.402-4.28154 15.8508-4.28154Z"/>
  </g>
  <g id="Medium-S" transform="matrix(1 0 0 1 1706.24 696)">
   <path d="M15.3926-4.43652C17.1543-4.43652 18.5918-5.16895 20.4941-6.12695L67.7715-29.0186C71.4951-30.8428 72.8242-32.7002 72.8242-35.2051C72.8242-37.71 71.4951-39.5674 67.7715-41.3916L20.4941-64.2832C18.5518-65.2412 17.1143-65.9736 15.3525-65.9736C12.0654-65.9736 9.76562-63.4229 9.76562-59.4229L9.80566-10.9873C9.80566-6.9873 12.1055-4.43652 15.3926-4.43652Z"/>
  </g>
  <g id="Regular-S" transform="matrix(1 0 0 1 1409.78 696)">
   <path d="M14.7949-4.63867C16.5039-4.63867 17.8711-5.37109 19.5801-6.25L67.5781-29.5898C71.2402-31.3965 72.3145-33.0078 72.3145-35.2051C72.3145-37.4023 71.2402-39.0137 67.5781-40.8203L19.5801-64.1602C17.8223-65.0391 16.4551-65.7715 14.7461-65.7715C11.6699-65.7715 9.76562-63.3789 9.76562-59.7656L9.81445-10.6445C9.81445-7.03125 11.7188-4.63867 14.7949-4.63867Z"/>
  </g>
  <g id="Light-S" transform="matrix(1 0 0 1 1113.2 696)">
   <path d="M14.023-4.89599C15.4292-4.89599 16.5391-5.49219 18.0361-6.25L68.1382-30.498C71.0737-31.9565 72.0571-33.3105 72.0571-35.2051C72.0571-37.0996 71.0737-38.4536 68.1382-39.9121L18.0361-64.1602C16.5054-64.918 15.3955-65.5142 13.9893-65.5142C11.3975-65.5142 9.76562-63.5151 9.76562-60.4316L9.79932-9.97852C9.79932-6.89502 11.4312-4.89599 14.023-4.89599Z"/>
  </g>
  <g id="Thin-S" transform="matrix(1 0 0 1 816.658 696)">
   <path d="M13.002-5.23632C14.0078-5.23632 14.7774-5.65234 15.9942-6.25L68.8789-31.6992C70.8535-32.6973 71.7168-33.7109 71.7168-35.2051C71.7168-36.6992 70.8535-37.7129 68.8789-38.711L15.9942-64.1602C14.7637-64.7578 13.9942-65.1738 12.9883-65.1738C11.0371-65.1738 9.76562-63.6953 9.76562-61.3125L9.7793-9.09767C9.7793-6.71485 11.0508-5.23632 13.002-5.23632Z"/>
  </g>
  <g id="Ultralight-S" transform="matrix(1 0 0 1 520.034 696)">
   <path d="M12.479-5.41064C13.2798-5.41064 13.875-5.73437 14.9483-6.25L69.2583-32.3144C70.7407-33.0766 71.5425-33.916 71.5425-35.2051C71.5425-36.4941 70.7407-37.3335 69.2583-38.0957L14.9483-64.1602C13.8716-64.6758 13.2764-64.9995 12.4756-64.9995C10.8525-64.9995 9.76562-63.7876 9.76562-61.7637L9.76904-8.6465C9.76904-6.62256 10.856-5.41064 12.479-5.41064Z"/>
  </g>
 </g>
</svg>
