<?xml version="1.0" encoding="UTF-8"?>
<!--Generator: Apple Native CoreSVG 175.5-->
<!DOCTYPE svg
PUBLIC "-//W3C//DTD SVG 1.1//EN"
       "http://www.w3.org/Graphics/SVG/1.1/DTD/svg11.dtd">
<svg version="1.1" xmlns="http://www.w3.org/2000/svg" xmlns:xlink="http://www.w3.org/1999/xlink" width="3300" height="2200">
 <!--glyph: "uni10018F.medium", point size: 100.0, font version: "18.0d11e1", template writer version: "90"-->
 <g id="Notes">
  <rect height="2200" id="artboard" style="fill:white;opacity:1" width="3300" x="0" y="0"/>
  <line style="fill:none;stroke:black;opacity:1;stroke-width:0.5;" x1="263" x2="3036" y1="292" y2="292"/>
  <text style="stroke:none;fill:black;font-family:sans-serif;font-size:13;font-weight:bold;" transform="matrix(1 0 0 1 263 322)">Weight/Scale Variations</text>
  <text style="stroke:none;fill:black;font-family:sans-serif;font-size:13;text-anchor:middle;" transform="matrix(1 0 0 1 559.711 322)">Ultralight</text>
  <text style="stroke:none;fill:black;font-family:sans-serif;font-size:13;text-anchor:middle;" transform="matrix(1 0 0 1 856.422 322)">Thin</text>
  <text style="stroke:none;fill:black;font-family:sans-serif;font-size:13;text-anchor:middle;" transform="matrix(1 0 0 1 1153.13 322)">Light</text>
  <text style="stroke:none;fill:black;font-family:sans-serif;font-size:13;text-anchor:middle;" transform="matrix(1 0 0 1 1449.84 322)">Regular</text>
  <text style="stroke:none;fill:black;font-family:sans-serif;font-size:13;text-anchor:middle;" transform="matrix(1 0 0 1 1746.56 322)">Medium</text>
  <text style="stroke:none;fill:black;font-family:sans-serif;font-size:13;text-anchor:middle;" transform="matrix(1 0 0 1 2043.27 322)">Semibold</text>
  <text style="stroke:none;fill:black;font-family:sans-serif;font-size:13;text-anchor:middle;" transform="matrix(1 0 0 1 2339.98 322)">Bold</text>
  <text style="stroke:none;fill:black;font-family:sans-serif;font-size:13;text-anchor:middle;" transform="matrix(1 0 0 1 2636.69 322)">Heavy</text>
  <text style="stroke:none;fill:black;font-family:sans-serif;font-size:13;text-anchor:middle;" transform="matrix(1 0 0 1 2933.4 322)">Black</text>
  <line style="fill:none;stroke:black;opacity:1;stroke-width:0.5;" x1="263" x2="3036" y1="1903" y2="1903"/>
  <g transform="matrix(1 0 0 1 263 1933)">
   <path d="M9.24805 0.830078C13.5547 0.830078 17.1387-2.74414 17.1387-7.05078C17.1387-11.3574 13.5449-14.9316 9.23828-14.9316C4.94141-14.9316 1.36719-11.3574 1.36719-7.05078C1.36719-2.74414 4.95117 0.830078 9.24805 0.830078ZM9.24805-0.654297C5.70312-0.654297 2.87109-3.49609 2.87109-7.05078C2.87109-10.6055 5.69336-13.4473 9.23828-13.4473C12.793-13.4473 15.6445-10.6055 15.6445-7.05078C15.6445-3.49609 12.8027-0.654297 9.24805-0.654297ZM5.6543-7.05078C5.6543-6.62109 5.95703-6.32812 6.40625-6.32812L8.50586-6.32812L8.50586-4.20898C8.50586-3.76953 8.79883-3.4668 9.22852-3.4668C9.67773-3.4668 9.9707-3.76953 9.9707-4.20898L9.9707-6.32812L12.0898-6.32812C12.5293-6.32812 12.832-6.62109 12.832-7.05078C12.832-7.49023 12.5293-7.79297 12.0898-7.79297L9.9707-7.79297L9.9707-9.90234C9.9707-10.3516 9.67773-10.6543 9.22852-10.6543C8.79883-10.6543 8.50586-10.3516 8.50586-9.90234L8.50586-7.79297L6.40625-7.79297C5.95703-7.79297 5.6543-7.49023 5.6543-7.05078Z"/>
  </g>
  <g transform="matrix(1 0 0 1 281.867 1933)">
   <path d="M11.709 2.91016C17.1582 2.91016 21.6699-1.61133 21.6699-7.05078C21.6699-12.5 17.1484-17.0117 11.6992-17.0117C6.25977-17.0117 1.74805-12.5 1.74805-7.05078C1.74805-1.61133 6.26953 2.91016 11.709 2.91016ZM11.709 1.25C7.09961 1.25 3.41797-2.44141 3.41797-7.05078C3.41797-11.6602 7.08984-15.3516 11.6992-15.3516C16.3086-15.3516 20.0098-11.6602 20.0098-7.05078C20.0098-2.44141 16.3184 1.25 11.709 1.25ZM7.17773-7.05078C7.17773-6.57227 7.50977-6.25 8.00781-6.25L10.8789-6.25L10.8789-3.36914C10.8789-2.88086 11.2109-2.53906 11.6895-2.53906C12.1777-2.53906 12.5195-2.87109 12.5195-3.36914L12.5195-6.25L15.4004-6.25C15.8887-6.25 16.2305-6.57227 16.2305-7.05078C16.2305-7.53906 15.8887-7.88086 15.4004-7.88086L12.5195-7.88086L12.5195-10.752C12.5195-11.25 12.1777-11.5918 11.6895-11.5918C11.2109-11.5918 10.8789-11.25 10.8789-10.752L10.8789-7.88086L8.00781-7.88086C7.50977-7.88086 7.17773-7.53906 7.17773-7.05078Z"/>
  </g>
  <g transform="matrix(1 0 0 1 305.646 1933)">
   <path d="M14.9707 5.66406C21.9336 5.66406 27.6953-0.0976562 27.6953-7.05078C27.6953-14.0137 21.9238-19.7754 14.9609-19.7754C8.00781-19.7754 2.25586-14.0137 2.25586-7.05078C2.25586-0.0976562 8.01758 5.66406 14.9707 5.66406ZM14.9707 3.84766C8.93555 3.84766 4.08203-1.01562 4.08203-7.05078C4.08203-13.0957 8.92578-17.9492 14.9609-17.9492C21.0059-17.9492 25.8691-13.0957 25.8691-7.05078C25.8691-1.01562 21.0156 3.84766 14.9707 3.84766ZM9.19922-7.05078C9.19922-6.5332 9.57031-6.17188 10.1172-6.17188L14.0625-6.17188L14.0625-2.2168C14.0625-1.67969 14.4336-1.29883 14.9512-1.29883C15.4883-1.29883 15.8594-1.66992 15.8594-2.2168L15.8594-6.17188L19.8145-6.17188C20.3516-6.17188 20.7324-6.5332 20.7324-7.05078C20.7324-7.59766 20.3613-7.96875 19.8145-7.96875L15.8594-7.96875L15.8594-11.9141C15.8594-12.4609 15.4883-12.8418 14.9512-12.8418C14.4336-12.8418 14.0625-12.4609 14.0625-11.9141L14.0625-7.96875L10.1172-7.96875C9.57031-7.96875 9.19922-7.59766 9.19922-7.05078Z"/>
  </g>
  <text style="stroke:none;fill:black;font-family:sans-serif;font-size:13;font-weight:bold;" transform="matrix(1 0 0 1 263 1953)">Design Variations</text>
  <text style="stroke:none;fill:black;font-family:sans-serif;font-size:13;" transform="matrix(1 0 0 1 263 1971)">Symbols are supported in up to nine weights and three scales.</text>
  <text style="stroke:none;fill:black;font-family:sans-serif;font-size:13;" transform="matrix(1 0 0 1 263 1989)">For optimal layout with text and other symbols, vertically align</text>
  <text style="stroke:none;fill:black;font-family:sans-serif;font-size:13;" transform="matrix(1 0 0 1 263 2007)">symbols with the adjacent text.</text>
  <line style="fill:none;stroke:#00AEEF;stroke-width:0.5;opacity:1.0;" x1="776" x2="776" y1="1919" y2="1933"/>
  <g transform="matrix(1 0 0 1 776 1933)">
   <path d="M3.31055 0.15625C3.82812 0.15625 4.08203-0.0390625 4.26758-0.585938L5.52734-4.0332L11.2891-4.0332L12.5488-0.585938C12.7344-0.0390625 12.9883 0.15625 13.4961 0.15625C14.0137 0.15625 14.3457-0.15625 14.3457-0.644531C14.3457-0.810547 14.3164-0.966797 14.2383-1.17188L9.6582-13.3691C9.43359-13.9648 9.0332-14.2676 8.4082-14.2676C7.80273-14.2676 7.39258-13.9746 7.17773-13.3789L2.59766-1.16211C2.51953-0.957031 2.49023-0.800781 2.49023-0.634766C2.49023-0.146484 2.80273 0.15625 3.31055 0.15625ZM6.00586-5.51758L8.37891-12.0898L8.42773-12.0898L10.8008-5.51758Z"/>
  </g>
  <line style="fill:none;stroke:#00AEEF;stroke-width:0.5;opacity:1.0;" x1="793.197" x2="793.197" y1="1919" y2="1933"/>
  <text style="stroke:none;fill:black;font-family:sans-serif;font-size:13;font-weight:bold;" transform="matrix(1 0 0 1 776 1953)">Margins</text>
  <text style="stroke:none;fill:black;font-family:sans-serif;font-size:13;" transform="matrix(1 0 0 1 776 1971)">Leading and trailing margins on the left and right side of each symbol</text>
  <text style="stroke:none;fill:black;font-family:sans-serif;font-size:13;" transform="matrix(1 0 0 1 776 1989)">can be adjusted by modifying the x-location of the margin guidelines.</text>
  <text style="stroke:none;fill:black;font-family:sans-serif;font-size:13;" transform="matrix(1 0 0 1 776 2007)">Modifications are automatically applied proportionally to all</text>
  <text style="stroke:none;fill:black;font-family:sans-serif;font-size:13;" transform="matrix(1 0 0 1 776 2025)">scales and weights.</text>
  <g transform="matrix(1 0 0 1 1289 1933)">
   <path d="M2.8418 1.86523L4.54102 3.57422C5.40039 4.44336 6.38672 4.38477 7.31445 3.35938L18.0078-8.42773L17.041-9.4043L6.42578 2.27539C6.07422 2.67578 5.74219 2.77344 5.27344 2.30469L4.10156 1.14258C3.63281 0.683594 3.74023 0.341797 4.14062-0.0195312L15.6152-10.8203L14.6387-11.7871L3.04688-0.898438C2.06055 0.0195312 1.98242 0.996094 2.8418 1.86523ZM9.25781-16.3281C8.83789-15.918 8.80859-15.3418 9.04297-14.9512C9.27734-14.5898 9.73633-14.3555 10.3809-14.5215C11.8457-14.8633 13.3691-14.9219 14.7949-13.9844L14.209-12.5293C13.8672-11.6992 14.043-11.1133 14.5801-10.5664L16.875-8.25195C17.3633-7.76367 17.7734-7.74414 18.3398-7.8418L19.4043-8.03711L20.0684-7.36328L20.0293-6.80664C19.9902-6.30859 20.1172-5.92773 20.6055-5.44922L21.3672-4.70703C21.8457-4.22852 22.4609-4.19922 22.9297-4.66797L25.8398-7.58789C26.3086-8.05664 26.2891-8.65234 25.8105-9.13086L25.0391-9.89258C24.5605-10.3711 24.1895-10.5273 23.7109-10.4883L23.1348-10.4395L22.4902-11.0742L22.7344-12.1973C22.8613-12.7637 22.7051-13.2031 22.1191-13.7891L19.9219-15.9766C16.582-19.2969 12.1484-19.2188 9.25781-16.3281ZM10.752-15.957C13.1836-17.7344 16.4746-17.4316 18.7012-15.2051L21.1328-12.793C21.3672-12.5586 21.4062-12.373 21.3379-12.0312L21.0156-10.5469L22.5195-9.0625L23.5059-9.12109C23.7598-9.13086 23.8379-9.11133 24.0332-8.91602L24.6094-8.33984L22.168-5.89844L21.5918-6.47461C21.3965-6.66992 21.3672-6.74805 21.377-7.01172L21.4453-7.98828L19.9512-9.47266L18.4277-9.21875C18.1055-9.15039 17.959-9.17969 17.7148-9.41406L15.7129-11.416C15.459-11.6504 15.4297-11.8164 15.5859-12.1875L16.4648-14.2773C14.9023-15.7324 12.8711-16.3574 10.8398-15.7617C10.6836-15.7227 10.625-15.8496 10.752-15.957Z"/>
  </g>
  <text style="stroke:none;fill:black;font-family:sans-serif;font-size:13;font-weight:bold;" transform="matrix(1 0 0 1 1289 1953)">Exporting</text>
  <text style="stroke:none;fill:black;font-family:sans-serif;font-size:13;" transform="matrix(1 0 0 1 1289 1971)">Symbols should be outlined when exporting to ensure the</text>
  <text style="stroke:none;fill:black;font-family:sans-serif;font-size:13;" transform="matrix(1 0 0 1 1289 1989)">design is preserved when submitting to Xcode.</text>
  <text id="template-version" style="stroke:none;fill:black;font-family:sans-serif;font-size:13;text-anchor:end;" transform="matrix(1 0 0 1 3036 1933)">Template v.2.0</text>
  <text style="stroke:none;fill:black;font-family:sans-serif;font-size:13;text-anchor:end;" transform="matrix(1 0 0 1 3036 1951)">Requires Xcode 12 or greater</text>
  <text id="descriptive-name" style="stroke:none;fill:black;font-family:sans-serif;font-size:13;text-anchor:end;" transform="matrix(1 0 0 1 3036 1969)">Generated from chevron.up.chevron.down</text>
  <text style="stroke:none;fill:black;font-family:sans-serif;font-size:13;text-anchor:end;" transform="matrix(1 0 0 1 3036 1987)">Typeset at 100 points</text>
  <text style="stroke:none;fill:black;font-family:sans-serif;font-size:13;" transform="matrix(1 0 0 1 263 726)">Small</text>
  <text style="stroke:none;fill:black;font-family:sans-serif;font-size:13;" transform="matrix(1 0 0 1 263 1156)">Medium</text>
  <text style="stroke:none;fill:black;font-family:sans-serif;font-size:13;" transform="matrix(1 0 0 1 263 1586)">Large</text>
 </g>
 <g id="Guides">
  <g id="H-reference" style="fill:#27AAE1;stroke:none;" transform="matrix(1 0 0 1 339 696)">
   <path d="M0.993654 0L3.63775 0L29.3281-67.1323L30.0303-67.1323L30.0303-70.459L28.1226-70.459ZM11.6885-24.4799L46.9815-24.4799L46.2315-26.7285L12.4385-26.7285ZM55.1196 0L57.7637 0L30.6382-70.459L29.4326-70.459L29.4326-67.1323Z"/>
  </g>
  <line id="Baseline-S" style="fill:none;stroke:#27AAE1;opacity:1;stroke-width:0.5;" x1="263" x2="3036" y1="696" y2="696"/>
  <line id="Capline-S" style="fill:none;stroke:#27AAE1;opacity:1;stroke-width:0.5;" x1="263" x2="3036" y1="625.541" y2="625.541"/>
  <g id="H-reference" style="fill:#27AAE1;stroke:none;" transform="matrix(1 0 0 1 339 1126)">
   <path d="M0.993654 0L3.63775 0L29.3281-67.1323L30.0303-67.1323L30.0303-70.459L28.1226-70.459ZM11.6885-24.4799L46.9815-24.4799L46.2315-26.7285L12.4385-26.7285ZM55.1196 0L57.7637 0L30.6382-70.459L29.4326-70.459L29.4326-67.1323Z"/>
  </g>
  <line id="Baseline-M" style="fill:none;stroke:#27AAE1;opacity:1;stroke-width:0.5;" x1="263" x2="3036" y1="1126" y2="1126"/>
  <line id="Capline-M" style="fill:none;stroke:#27AAE1;opacity:1;stroke-width:0.5;" x1="263" x2="3036" y1="1055.54" y2="1055.54"/>
  <g id="H-reference" style="fill:#27AAE1;stroke:none;" transform="matrix(1 0 0 1 339 1556)">
   <path d="M0.993654 0L3.63775 0L29.3281-67.1323L30.0303-67.1323L30.0303-70.459L28.1226-70.459ZM11.6885-24.4799L46.9815-24.4799L46.2315-26.7285L12.4385-26.7285ZM55.1196 0L57.7637 0L30.6382-70.459L29.4326-70.459L29.4326-67.1323Z"/>
  </g>
  <line id="Baseline-L" style="fill:none;stroke:#27AAE1;opacity:1;stroke-width:0.5;" x1="263" x2="3036" y1="1556" y2="1556"/>
  <line id="Capline-L" style="fill:none;stroke:#27AAE1;opacity:1;stroke-width:0.5;" x1="263" x2="3036" y1="1485.54" y2="1485.54"/>
  <line id="left-margin" style="fill:none;stroke:#00AEEF;stroke-width:0.5;opacity:1.0;" x1="1399.84" x2="1399.84" y1="1030.79" y2="1150.12"/>
  <line id="right-margin" style="fill:none;stroke:#00AEEF;stroke-width:0.5;opacity:1.0;" x1="1499.85" x2="1499.85" y1="1030.79" y2="1150.12"/>
 </g>
 <g id="Symbols">
  <g id="Black-L" transform="matrix(1 0 0 1 2859.31 1556)">
   <path d="M74.0939-102.026C70.104-102.026 67.1314-100.103 63.4163-97.1718L20.8968-63.2724C17.9115-60.8348 16.084-57.3401 16.084-53.8482C16.084-46.3163 22.428-41.1184 28.6981-41.1184C31.9604-41.1184 35.107-42.5115 38.0044-44.7779L74.0951-73.0264L110.185-44.7779C113.061-42.5115 116.229-41.1184 119.491-41.1184C125.74-41.1184 132.105-46.3163 132.105-53.8482C132.105-57.3401 130.277-60.8348 127.271-63.2724L84.7703-97.173C81.0332-100.104 78.063-102.026 74.0939-102.026ZM74.0939 30.3026C78.063 30.3026 81.0332 28.3803 84.7703 25.4493L127.271-8.45127C130.277-10.8889 132.105-14.3836 132.105-17.8755C132.105-25.4074 125.74-30.6053 119.491-30.6053C116.229-30.6053 113.061-29.2122 110.185-26.9458L74.0951 1.30269L38.0044-26.9458C35.107-29.2122 31.9604-30.6053 28.6981-30.6053C22.428-30.6053 16.084-25.4074 16.084-17.8755C16.084-14.3836 17.9115-10.8889 20.8968-8.45127L63.4163 25.4481C67.1314 28.3791 70.104 30.3026 74.0939 30.3026Z"/>
  </g>
  <g id="Heavy-L" transform="matrix(1 0 0 1 2564.85 1556)">
   <path d="M71.8338-99.5069C68.4577-99.5069 65.8871-97.9043 62.7207-95.3941L20.1364-61.27C17.6275-59.1985 16.084-56.2431 16.084-53.1521C16.084-46.6796 21.4635-42.1567 26.9957-42.1567C29.7782-42.1567 32.477-43.3353 35.0187-45.3188L71.8395-74.4545L108.655-45.3188C111.166-43.3353 113.895-42.1567 116.678-42.1567C122.18-42.1567 127.589-46.6796 127.589-53.1521C127.589-56.2431 126.046-59.1985 123.507-61.27L80.9414-95.3997C77.7392-97.9099 75.1798-99.5069 71.8338-99.5069ZM71.8338 27.797C75.1798 27.797 77.7392 26.2 80.9414 23.6898L123.507-10.4399C126.046-12.5114 127.589-15.4668 127.589-18.5578C127.589-25.0303 122.18-29.5532 116.678-29.5532C113.895-29.5532 111.166-28.3746 108.655-26.3911L71.8395 2.74455L35.0187-26.3911C32.477-28.3746 29.7782-29.5532 26.9957-29.5532C21.4635-29.5532 16.084-25.0303 16.084-18.5578C16.084-15.4668 17.6275-12.5114 20.1364-10.4399L62.7207 23.6842C65.8871 26.1944 68.4577 27.797 71.8338 27.797Z"/>
  </g>
  <g id="Bold-L" transform="matrix(1 0 0 1 2270.67 1556)">
   <path d="M69.2976-96.5735C66.6374-96.5735 64.5514-95.3406 62.0389-93.3305L19.251-58.8105C17.2965-57.17 16.084-54.8608 16.084-52.2691C16.084-47.0807 20.3096-43.3879 24.92-43.3879C27.1257-43.3879 29.2861-44.305 31.3898-45.9427L69.3109-76.3411L107.219-45.9427C109.284-44.305 111.483-43.3879 113.688-43.3879C118.261-43.3879 122.525-47.0807 122.525-52.2691C122.525-54.8608 121.312-57.17 119.32-58.8105L76.5432-93.3437C73.9795-95.3538 71.9199-96.5735 69.2976-96.5735ZM69.2976 24.879C71.9199 24.879 73.9795 23.6593 76.5432 21.6492L119.32-12.884C121.312-14.5245 122.525-16.8337 122.525-19.4254C122.525-24.6138 118.261-28.3066 113.688-28.3066C111.483-28.3066 109.284-27.3894 107.219-25.7518L69.3109 4.64656L31.3898-25.7518C29.2861-27.3894 27.1257-28.3066 24.92-28.3066C20.3096-28.3066 16.084-24.6138 16.084-19.4254C16.084-16.8337 17.2965-14.5245 19.251-12.884L62.0389 21.636C64.5514 23.6461 66.6374 24.879 69.2976 24.879Z"/>
  </g>
  <g id="Semibold-L" transform="matrix(1 0 0 1 1975.71 1556)">
   <path d="M67.5492-94.5512C65.3826-94.5512 63.6305-93.5731 61.5689-91.9078L18.6406-57.1149C17.0682-55.7715 16.084-53.9078 16.084-51.6604C16.084-47.3572 19.5142-44.2366 23.4891-44.2366C25.297-44.2366 27.0863-44.9736 28.888-46.3727L67.5677-77.6417L106.229-46.3727C107.987-44.9736 109.82-44.2366 111.628-44.2366C115.559-44.2366 119.033-47.3572 119.033-51.6604C119.033-53.9078 118.049-55.7715 116.433-57.1149L73.511-91.9263C71.3875-93.5916 69.6724-94.5512 67.5492-94.5512ZM67.5492 22.8673C69.6724 22.8673 71.3875 21.9078 73.511 20.2424L116.433-14.569C118.049-15.9123 119.033-17.7761 119.033-20.0235C119.033-24.3267 115.559-27.4472 111.628-27.4472C109.82-27.4472 107.987-26.7103 106.229-25.3111L67.5677 5.9578L28.888-25.3111C27.0863-26.7103 25.297-27.4472 23.4891-27.4472C19.5142-27.4472 16.084-24.3267 16.084-20.0235C16.084-17.7761 17.0682-15.9123 18.6406-14.569L61.5689 20.224C63.6305 21.8893 65.3826 22.8673 67.5492 22.8673Z"/>
  </g>
  <g id="Medium-L" transform="matrix(1 0 0 1 1680.32 1556)">
   <path d="M66.2235-93.0178C64.4311-93.0178 62.9323-92.233 61.2125-90.8291L18.1778-55.8292C16.8952-54.7112 16.084-53.1851 16.084-51.1988C16.084-47.5668 18.911-44.8802 22.4041-44.8802C23.9105-44.8802 25.4183-45.4805 26.991-46.6988L66.2459-78.6278L105.478-46.6988C107.004-45.4805 108.559-44.8802 110.065-44.8802C113.511-44.8802 116.385-47.5668 116.385-51.1988C116.385-53.1851 115.574-54.7112 114.244-55.8292L71.212-90.8516C69.4222-92.2555 67.9684-93.0178 66.2235-93.0178ZM66.2235 21.342C67.9684 21.342 69.4222 20.5797 71.212 19.1758L114.244-15.8466C115.574-16.9646 116.385-18.4906 116.385-20.477C116.385-24.1089 113.511-26.7956 110.065-26.7956C108.559-26.7956 107.004-26.1953 105.478-24.977L66.2459 6.95203L26.991-24.977C25.4183-26.1953 23.9105-26.7956 22.4041-26.7956C18.911-26.7956 16.084-24.1089 16.084-20.477C16.084-18.4906 16.8952-16.9646 18.1778-15.8466L61.2125 19.1533C62.9323 20.5572 64.4311 21.342 66.2235 21.342Z"/>
  </g>
  <g id="Regular-L" transform="matrix(1 0 0 1 1385.34 1556)">
   <path d="M64.4942-91.0178C63.1901-91.0178 62.0216-90.485 60.7476-89.4221L17.5741-54.1523C16.6695-53.3281 16.084-52.2426 16.084-50.5968C16.084-47.8403 18.1243-45.7196 20.9888-45.7196C22.1019-45.7196 23.2427-46.1417 24.5167-47.1242L64.5219-79.9141L104.499-47.1242C105.721-46.1417 106.914-45.7196 108.027-45.7196C110.839-45.7196 112.932-47.8403 112.932-50.5968C112.932-52.2426 112.347-53.3281 111.389-54.1523L68.2132-89.4498C66.8588-90.5127 65.7456-91.0178 64.4942-91.0178ZM64.4942 19.3525C65.7456 19.3525 66.8588 18.8474 68.2132 17.7845L111.389-17.513C112.347-18.3372 112.932-19.4227 112.932-21.0685C112.932-23.825 110.839-25.9457 108.027-25.9457C106.914-25.9457 105.721-25.5236 104.499-24.5411L64.5219 8.24886L24.5167-24.5411C23.2427-25.5236 22.1019-25.9457 20.9888-25.9457C18.1243-25.9457 16.084-23.825 16.084-21.0685C16.084-19.4227 16.6695-18.3372 17.5741-17.513L60.7476 17.7568C62.0216 18.8198 63.1901 19.3525 64.4942 19.3525Z"/>
  </g>
  <g id="Light-L" transform="matrix(1 0 0 1 1088.67 1556)">
   <path d="M64.437-90.1971C63.3427-90.1971 62.4224-89.7407 61.4347-88.8877L17.326-52.5873C16.5741-51.9158 16.084-51.1357 16.084-49.8524C16.084-47.8021 17.5899-46.2158 19.7674-46.2158C20.5942-46.2158 21.4678-46.4852 22.4555-47.2578L64.4837-81.9754L106.465-47.2578C107.419-46.4852 108.326-46.2158 109.153-46.2158C111.297-46.2158 112.837-47.8021 112.837-49.8524C112.837-51.1357 112.347-51.9158 111.561-52.5873L67.3925-88.9345C66.3244-89.7875 65.4975-90.1971 64.437-90.1971ZM64.437 18.5318C65.4975 18.5318 66.3244 18.1222 67.3925 17.2692L111.561-19.078C112.347-19.7495 112.837-20.5296 112.837-21.8129C112.837-23.8631 111.297-25.4495 109.153-25.4495C108.326-25.4495 107.419-25.1801 106.465-24.4075L64.4837 10.3101L22.4555-24.4075C21.4678-25.1801 20.5942-25.4495 19.7674-25.4495C17.5899-25.4495 16.084-23.8631 16.084-21.8129C16.084-20.5296 16.5741-19.7495 17.326-19.078L61.4347 17.2225C62.4224 18.0754 63.3427 18.5318 64.437 18.5318Z"/>
  </g>
  <g id="Thin-L" transform="matrix(1 0 0 1 792.025 1556)">
   <path d="M64.3612-89.1117C63.5447-89.1117 62.9525-88.7563 62.3434-88.181L16.9979-50.5175C16.4478-50.0479 16.084-49.6716 16.084-48.868C16.084-47.7517 16.8831-46.8721 18.1519-46.8721C18.6001-46.8721 19.1203-46.9396 19.7294-47.4345L64.4332-84.7015L109.065-47.4345C109.666-46.9396 110.194-46.8721 110.643-46.8721C111.903-46.8721 112.71-47.7517 112.71-48.868C112.71-49.6716 112.347-50.0479 111.788-50.5175L66.3071-88.2529C65.6176-88.8283 65.1694-89.1117 64.3612-89.1117ZM64.3612 17.4464C65.1694 17.4464 65.6176 17.163 66.3071 16.5877L111.788-21.1478C112.347-21.6174 112.71-21.9936 112.71-22.7973C112.71-23.9136 111.903-24.7932 110.643-24.7932C110.194-24.7932 109.666-24.7257 109.065-24.2308L64.4332 13.0362L19.7294-24.2308C19.1203-24.7257 18.6001-24.7932 18.1519-24.7932C16.8831-24.7932 16.084-23.9136 16.084-22.7973C16.084-21.9936 16.4478-21.6174 16.9979-21.1478L62.3434 16.5157C62.9525 17.091 63.5447 17.4464 64.3612 17.4464Z"/>
  </g>
  <g id="Ultralight-L" transform="matrix(1 0 0 1 495.346 1556)">
   <path d="M64.3225-88.5558C63.6481-88.5558 63.224-88.2521 62.8089-87.819L16.8298-49.4573C16.3832-49.0912 16.084-48.9218 16.084-48.3638C16.084-47.7258 16.5211-47.2082 17.3244-47.2082C17.5787-47.2082 17.9179-47.1723 18.3331-47.525L64.4074-86.0978L110.397-47.525C110.816-47.1723 111.151-47.2082 111.405-47.2082C112.213-47.2082 112.646-47.7258 112.646-48.3638C112.646-48.9218 112.347-49.0912 111.905-49.4573L65.7512-87.9039C65.2556-88.337 65.0013-88.5558 64.3225-88.5558ZM64.3225 16.8905C65.0013 16.8905 65.2556 16.6717 65.7512 16.2386L111.905-22.208C112.347-22.5741 112.646-22.7435 112.646-23.3015C112.646-23.9395 112.213-24.457 111.405-24.457C111.151-24.457 110.816-24.493 110.397-24.1403L64.4074 14.4325L18.3331-24.1403C17.9179-24.493 17.5787-24.457 17.3244-24.457C16.5211-24.457 16.084-23.9395 16.084-23.3015C16.084-22.7435 16.3832-22.5741 16.8298-22.208L62.8089 16.1537C63.224 16.5868 63.6481 16.8905 64.3225 16.8905Z"/>
  </g>
  <g id="Black-M" transform="matrix(1 0 0 1 2874.06 1126)">
   <path d="M59.3382-89.0338C55.7481-89.0338 53.1332-87.2781 49.8222-84.6742L16.8095-58.4645C14.1079-56.2819 12.4609-53.1523 12.4609-50.1515C12.4609-43.5014 18.1324-38.9667 23.5313-38.9667C26.4322-38.9667 29.2186-40.2097 31.7303-42.1803L59.3379-63.5643L86.9458-42.1803C89.452-40.2097 92.244-38.9667 95.1449-38.9667C100.538-38.9667 106.215-43.5014 106.215-50.1515C106.215-53.1523 104.568-56.2819 101.861-58.4645L68.8546-84.674C65.5383-87.2778 62.9229-89.0338 59.3382-89.0338ZM59.3382 17.5832C62.9229 17.5832 65.5383 15.8272 68.8546 13.2233L101.861-12.9862C104.568-15.1687 106.215-18.2983 106.215-21.2991C106.215-27.9492 100.538-32.484 95.1449-32.484C92.244-32.484 89.452-31.241 86.9458-29.2704L59.3379-7.8864L31.7303-29.2704C29.2186-31.241 26.4322-32.484 23.5313-32.484C18.1324-32.484 12.4609-27.9492 12.4609-21.2991C12.4609-18.2983 14.1079-15.1687 16.8095-12.9862L49.8222 13.2236C53.1332 15.8275 55.7481 17.5832 59.3382 17.5832Z"/>
  </g>
  <g id="Heavy-M" transform="matrix(1 0 0 1 2579.55 1126)">
   <path d="M57.1342-86.6466C54.1246-86.6466 51.8798-85.1976 49.0788-82.9857L16.0891-56.6513C13.8391-54.8126 12.4609-52.1821 12.4609-49.5397C12.4609-43.8601 17.2389-39.936 21.9797-39.936C24.4381-39.936 26.8114-40.9833 29.0018-42.6967L57.1364-64.7702L85.2688-42.6967C87.4428-40.9833 89.8325-39.936 92.2909-39.936C97.0153-39.936 101.81-43.8601 101.81-49.5397C101.81-52.1821 100.431-54.8126 98.1651-56.6513L65.1873-82.9879C62.3675-85.1999 60.1273-86.6466 57.1342-86.6466ZM57.1342 15.2095C60.1273 15.2095 62.3675 13.7627 65.1873 11.5508L98.1651-14.7859C100.431-16.6246 101.81-19.2551 101.81-21.8974C101.81-27.577 97.0153-31.5012 92.2909-31.5012C89.8325-31.5012 87.4428-30.4539 85.2688-28.7404L57.1364-6.66703L29.0018-28.7404C26.8114-30.4539 24.4381-31.5012 21.9797-31.5012C17.2389-31.5012 12.4609-27.577 12.4609-21.8974C12.4609-19.2551 13.8391-16.6246 16.0891-14.7859L49.0788 11.5485C51.8798 13.7604 54.1246 15.2095 57.1342 15.2095Z"/>
  </g>
  <g id="Bold-M" transform="matrix(1 0 0 1 2285.31 1126)">
   <path d="M54.6686-83.9762C52.3085-83.9762 50.4778-82.8703 48.2472-81.0968L15.2832-54.623C13.5384-53.169 12.4609-51.0967 12.4609-48.8554C12.4609-44.2614 16.2393-41.0203 20.2441-41.0203C22.2073-41.0203 24.1186-41.8488 25.9495-43.2745L54.6737-66.1191L83.3929-43.2745C85.1951-41.8488 87.135-41.0203 89.0983-41.0203C93.0745-41.0203 96.8814-44.2614 96.8814-48.8554C96.8814-51.0967 95.8039-53.169 94.0306-54.623L61.0849-81.1019C58.8206-82.8754 57.0001-83.9762 54.6686-83.9762ZM54.6686 12.5541C57.0001 12.5541 58.8206 11.4533 61.0849 9.67981L94.0306-16.7991C95.8039-18.2531 96.8814-20.3254 96.8814-22.5667C96.8814-27.1607 93.0745-30.4018 89.0983-30.4018C87.135-30.4018 85.1951-29.5733 83.3929-28.1476L54.6737-5.30298L25.9495-28.1476C24.1186-29.5733 22.2073-30.4018 20.2441-30.4018C16.2393-30.4018 12.4609-27.1607 12.4609-22.5667C12.4609-20.3254 13.5384-18.2531 15.2832-16.7991L48.2472 9.67467C50.4778 11.4482 52.3085 12.5541 54.6686 12.5541Z"/>
  </g>
  <g id="Semibold-M" transform="matrix(1 0 0 1 1990.29 1126)">
   <path d="M52.9689-82.1353C51.0565-82.1353 49.5112-81.2658 47.6739-79.7946L14.7276-53.2247C13.3311-52.0359 12.4609-50.3484 12.4609-48.3836C12.4609-44.538 15.5502-41.7678 19.0476-41.7678C20.6695-41.7678 22.2622-42.4454 23.8453-43.6728L52.976-67.0491L82.0996-43.6728C83.6456-42.4454 85.2754-41.7678 86.8973-41.7678C90.3576-41.7678 93.4839-44.538 93.4839-48.3836C93.4839-50.3484 92.6137-52.0359 91.1803-53.2247L58.2567-79.8017C56.3753-81.2729 54.8442-82.1353 52.9689-82.1353ZM52.9689 10.7236C54.8442 10.7236 56.3753 9.86122 58.2567 8.38998L91.1803-18.187C92.6137-19.3758 93.4839-21.0633 93.4839-23.0281C93.4839-26.8737 90.3576-29.6439 86.8973-29.6439C85.2754-29.6439 83.6456-28.9663 82.0996-27.7389L52.976-4.36262L23.8453-27.7389C22.2622-28.9663 20.6695-29.6439 19.0476-29.6439C15.5502-29.6439 12.4609-26.8737 12.4609-23.0281C12.4609-21.0633 13.3311-19.3758 14.7276-18.187L47.6739 8.38287C49.5112 9.85411 51.0565 10.7236 52.9689 10.7236Z"/>
  </g>
  <g id="Medium-M" transform="matrix(1 0 0 1 1694.87 1126)">
   <path d="M51.6801-80.7394C50.1072-80.7394 48.7783-80.0493 47.2392-78.8072L14.3063-52.1645C13.1739-51.1767 12.4609-49.7811 12.4609-48.0259C12.4609-44.7478 15.0277-42.3346 18.1403-42.3346C19.5034-42.3346 20.8546-42.8978 22.2498-43.9748L51.6887-67.7542L81.119-43.9748C82.4707-42.8978 83.8653-42.3346 85.2284-42.3346C88.2976-42.3346 90.9078-44.7478 90.9078-48.0259C90.9078-49.7811 90.1948-51.1767 89.019-52.1645L56.1123-78.8158C54.5212-80.0579 53.2095-80.7394 51.6801-80.7394ZM51.6801 9.33556C53.2095 9.33556 54.5212 8.65403 56.1123 7.41197L89.019-19.2393C90.1948-20.2271 90.9078-21.6227 90.9078-23.3779C90.9078-26.656 88.2976-29.0693 85.2284-29.0693C83.8653-29.0693 82.4707-28.506 81.119-27.4291L51.6887-3.6496L22.2498-27.4291C20.8546-28.506 19.5034-29.0693 18.1403-29.0693C15.0277-29.0693 12.4609-26.656 12.4609-23.3779C12.4609-21.6227 13.1739-20.2271 14.3063-19.2393L47.2392 7.40337C48.7783 8.64543 50.1072 9.33556 51.6801 9.33556Z"/>
  </g>
  <g id="Regular-M" transform="matrix(1 0 0 1 1399.84 1126)">
   <path d="M49.999-78.9187C48.869-78.9187 47.8224-78.4624 46.6722-77.5193L13.7568-50.7816C12.9689-50.056 12.4609-49.0411 12.4609-47.5593C12.4609-45.0214 14.3462-43.0738 16.957-43.0738C17.9825-43.0738 19.0186-43.4879 20.1687-44.3687L50.0096-68.674L79.8399-44.3687C80.9383-43.4879 82.0261-43.0738 83.0516-43.0738C85.6106-43.0738 87.5476-45.0214 87.5476-47.5593C87.5476-49.0411 87.0396-50.056 86.2-50.7816L53.3153-77.5299C52.1028-78.473 51.0773-78.9187 49.999-78.9187ZM49.999 7.52511C51.0773 7.52511 52.1028 7.07943 53.3153 6.13631L86.2-20.612C87.0396-21.3375 87.5476-22.3525 87.5476-23.8342C87.5476-26.3722 85.6106-28.3197 83.0516-28.3197C82.0261-28.3197 80.9383-27.9057 79.8399-27.0249L50.0096-2.71957L20.1687-27.0249C19.0186-27.9057 17.9825-28.3197 16.957-28.3197C14.3462-28.3197 12.4609-26.3722 12.4609-23.8342C12.4609-22.3525 12.9689-21.3375 13.7568-20.612L46.6722 6.12576C47.8224 7.06888 48.869 7.52511 49.999 7.52511Z"/>
  </g>
  <g id="Light-M" transform="matrix(1 0 0 1 1103.17 1126)">
   <path d="M49.9477-78.1829C49.0059-78.1829 48.1817-77.7951 47.2882-77.0402L13.5343-49.3785C12.8834-48.7898 12.4609-48.0486 12.4609-46.892C12.4609-44.9872 13.8671-43.5187 15.8619-43.5187C16.6307-43.5187 17.4272-43.7959 18.3207-44.4885L49.9753-70.522L81.6023-44.4885C82.4611-43.7959 83.2923-43.5187 84.0612-43.5187C86.0213-43.5187 87.4621-44.9872 87.4621-46.892C87.4621-48.0486 87.0396-48.7898 86.354-49.3785L52.5795-77.0679C51.6237-77.8228 50.8548-78.1829 49.9477-78.1829ZM49.9477 6.78934C50.8548 6.78934 51.6237 6.42922 52.5795 5.67432L86.354-22.0151C87.0396-22.6037 87.4621-23.3449 87.4621-24.5016C87.4621-26.4064 86.0213-27.8748 84.0612-27.8748C83.2923-27.8748 82.4611-27.5977 81.6023-26.9051L49.9753-0.871589L18.3207-26.9051C17.4272-27.5977 16.6307-27.8748 15.8619-27.8748C13.8671-27.8748 12.4609-26.4064 12.4609-24.5016C12.4609-23.3449 12.8834-22.6037 13.5343-22.0151L47.2882 5.64666C48.1817 6.40155 49.0059 6.78934 49.9477 6.78934Z"/>
  </g>
  <g id="Thin-M" transform="matrix(1 0 0 1 806.517 1126)">
   <path d="M49.8798-77.2098C49.1869-77.2098 48.6569-76.9125 48.1029-76.4066L13.2401-47.5228C12.7702-47.1152 12.4609-46.7361 12.4609-46.0094C12.4609-44.9419 13.2334-44.1071 14.4135-44.1071C14.8429-44.1071 15.3226-44.2032 15.8766-44.6469L49.9301-72.9661L83.9333-44.6469C84.4753-44.2032 84.967-44.1071 85.3964-44.1071C86.5644-44.1071 87.3489-44.9419 87.3489-46.0094C87.3489-46.7361 87.0396-47.1152 86.5577-47.5228L51.6064-76.4568C50.9901-76.9628 50.5606-77.2098 49.8798-77.2098ZM49.8798 5.81623C50.5606 5.81623 50.9901 5.56925 51.6064 5.06329L86.5577-23.8708C87.0396-24.2784 87.3489-24.6575 87.3489-25.3842C87.3489-26.4517 86.5644-27.2864 85.3964-27.2864C84.967-27.2864 84.4753-27.1903 83.9333-26.7467L49.9301 1.57252L15.8766-26.7467C15.3226-27.1903 14.8429-27.2864 14.4135-27.2864C13.2334-27.2864 12.4609-26.4517 12.4609-25.3842C12.4609-24.6575 12.7702-24.2784 13.2401-23.8708L48.1029 5.013C48.6569 5.51896 49.1869 5.81623 49.8798 5.81623Z"/>
  </g>
  <g id="Ultralight-M" transform="matrix(1 0 0 1 509.835 1126)">
   <path d="M49.845-76.7114C49.2796-76.7114 48.9003-76.4605 48.5202-76.082L13.0895-46.5723C12.7123-46.2574 12.4609-46.0638 12.4609-45.5573C12.4609-44.9187 12.9089-44.4085 13.6717-44.4085C13.9272-44.4085 14.2446-44.4119 14.6247-44.728L49.9069-74.2179L85.1272-44.728C85.5069-44.4119 85.8247-44.4085 86.0802-44.4085C86.8426-44.4085 87.291-44.9187 87.291-45.5573C87.291-46.0638 87.0396-46.2574 86.662-46.5723L51.1079-76.1439C50.6655-76.5223 50.41-76.7114 49.845-76.7114ZM49.845 5.3178C50.41 5.3178 50.6655 5.12878 51.1079 4.75033L86.662-24.8213C87.0396-25.1361 87.291-25.3298 87.291-25.8362C87.291-26.4748 86.8426-26.9851 86.0802-26.9851C85.8247-26.9851 85.5069-26.9817 85.1272-26.6655L49.9069 2.82437L14.6247-26.6655C14.2446-26.9817 13.9272-26.9851 13.6717-26.9851C12.9089-26.9851 12.4609-26.4748 12.4609-25.8362C12.4609-25.3298 12.7123-25.1361 13.0895-24.8213L48.5202 4.68844C48.9003 5.0669 49.2796 5.3178 49.845 5.3178Z"/>
  </g>
  <g id="Black-S" transform="matrix(1 0 0 1 2886.23 696)">
   <path d="M47.168-78.0762C44.1895-78.0762 42.041-76.6113 39.3066-74.4629L13.3789-53.9062C11.1328-52.0996 9.76562-49.5117 9.76562-47.0703C9.76562-41.6016 14.4531-37.8906 18.8477-37.8906C21.2402-37.8906 23.5352-38.916 25.5859-40.5273L47.168-57.1777L68.75-40.5273C70.8008-38.916 73.0957-37.8906 75.4883-37.8906C79.8828-37.8906 84.5703-41.6016 84.5703-47.0703C84.5703-49.5117 83.2031-52.0996 80.957-53.9062L55.0293-74.4629C52.2949-76.6113 50.1465-78.0762 47.168-78.0762ZM47.168 6.83594C50.1465 6.83594 52.2949 5.37109 55.0293 3.22266L80.957-17.334C83.2031-19.1406 84.5703-21.7285 84.5703-24.1699C84.5703-29.6387 79.8828-33.3496 75.4883-33.3496C73.0957-33.3496 70.8008-32.3242 68.75-30.7129L47.168-14.0625L25.5859-30.7129C23.5352-32.3242 21.2402-33.3496 18.8477-33.3496C14.4531-33.3496 9.76562-29.6387 9.76562-24.1699C9.76562-21.7285 11.1328-19.1406 13.3789-17.334L39.3066 3.22266C42.041 5.37109 44.1895 6.83594 47.168 6.83594Z"/>
  </g>
  <g id="Heavy-S" transform="matrix(1 0 0 1 2591.4 696)">
   <path d="M45.2895-76.1285C42.7835-76.1285 40.9231-74.9172 38.5921-73.08L12.7912-52.5348C10.9138-51.0048 9.76562-48.8087 9.76562-46.6324C9.76562-41.9127 13.7501-38.6628 17.6606-38.6628C19.7075-38.6628 21.6797-39.5383 23.4885-40.9537L45.2895-57.9729L67.0905-40.9537C68.8877-39.5383 70.8715-38.6628 72.9183-38.6628C76.8173-38.6628 80.8133-41.9127 80.8133-46.6324C80.8133-48.8087 79.6651-51.0048 77.7763-52.5348L51.9868-73.08C49.6443-74.9172 47.784-76.1285 45.2895-76.1285ZM45.2895 4.89983C47.784 4.89983 49.6443 3.68852 51.9868 1.85124L77.7763-18.6939C79.6651-20.2239 80.8133-22.42 80.8133-24.5963C80.8133-29.316 76.8173-32.5659 72.9183-32.5659C70.8715-32.5659 68.8877-31.6904 67.0905-30.275L45.2895-13.2558L23.4885-30.275C21.6797-31.6904 19.7075-32.5659 17.6606-32.5659C13.7501-32.5659 9.76562-29.316 9.76562-24.5963C9.76562-22.42 10.9138-20.2239 12.7912-18.6939L38.5921 1.85124C40.9231 3.68852 42.7835 4.89983 45.2895 4.89983Z"/>
  </g>
  <g id="Bold-S" transform="matrix(1 0 0 1 2296.79 696)">
   <path d="M43.1885-73.9502C41.2109-73.9502 39.6729-73.0225 37.793-71.5332L12.1338-51.001C10.6689-49.7803 9.76562-48.0225 9.76562-46.1426C9.76562-42.2607 12.9639-39.5264 16.333-39.5264C17.9932-39.5264 19.6045-40.2344 21.1426-41.4307L43.1885-58.8623L65.2344-41.4307C66.748-40.2344 68.3838-39.5264 70.0439-39.5264C73.3887-39.5264 76.6113-42.2607 76.6113-46.1426C76.6113-48.0225 75.708-49.7803 74.2188-51.001L48.584-71.5332C46.6797-73.0225 45.1416-73.9502 43.1885-73.9502ZM43.1885 2.73438C45.1416 2.73438 46.6797 1.80664 48.584 0.317383L74.2188-20.2148C75.708-21.4355 76.6113-23.1934 76.6113-25.0732C76.6113-28.9551 73.3887-31.6895 70.0439-31.6895C68.3838-31.6895 66.748-30.9814 65.2344-29.7852L43.1885-12.3535L21.1426-29.7852C19.6045-30.9814 17.9932-31.6895 16.333-31.6895C12.9639-31.6895 9.76562-28.9551 9.76562-25.0732C9.76562-23.1934 10.6689-21.4355 12.1338-20.2148L37.793 0.317383C39.6729 1.80664 41.2109 2.73438 43.1885 2.73438Z"/>
  </g>
  <g id="Semibold-S" transform="matrix(1 0 0 1 2001.53 696)">
   <path d="M41.7399-72.4483C40.1268-72.4483 38.8108-71.7161 37.242-70.4668L11.6806-49.9435C10.5001-48.936 9.76562-47.4804 9.76562-45.8049C9.76562-42.5007 12.4218-40.1218 15.4177-40.1218C16.8112-40.1218 18.1737-40.7143 19.5252-41.7595L41.7399-59.4755L63.9547-41.7595C65.2729-40.7143 66.6687-40.1218 68.0622-40.1218C71.0248-40.1218 73.7143-42.5007 73.7143-45.8049C73.7143-47.4804 72.9798-48.936 71.766-49.9435L46.2379-70.4668C44.6357-71.7161 43.3198-72.4483 41.7399-72.4483ZM41.7399 1.24141C43.3198 1.24141 44.6357 0.50918 46.2379-0.740137L71.766-21.2635C72.9798-22.2709 73.7143-23.7266 73.7143-25.4021C73.7143-28.7063 71.0248-31.0852 68.0622-31.0852C66.6687-31.0852 65.2729-30.4927 63.9547-29.4475L41.7399-11.7314L19.5252-29.4475C18.1737-30.4927 16.8112-31.0852 15.4177-31.0852C12.4218-31.0852 9.76562-28.7063 9.76562-25.4021C9.76562-23.7266 10.5001-22.2709 11.6806-21.2635L37.242-0.740137C38.8108 0.50918 40.1268 1.24141 41.7399 1.24141Z"/>
  </g>
  <g id="Medium-S" transform="matrix(1 0 0 1 1705.91 696)">
   <path d="M40.6416-71.3096C39.3047-71.3096 38.1572-70.7256 36.8242-69.6582L11.3369-49.1416C10.3721-48.2959 9.76562-47.0693 9.76562-45.5488C9.76562-42.6826 12.0107-40.5732 14.7236-40.5732C15.915-40.5732 17.0889-41.0781 18.2988-42.0088L40.6416-59.9404L62.9844-42.0088C64.1543-41.0781 65.3682-40.5732 66.5596-40.5732C69.2324-40.5732 71.5176-42.6826 71.5176-45.5488C71.5176-47.0693 70.9111-48.2959 69.9062-49.1416L44.459-69.6582C43.0859-70.7256 41.9385-71.3096 40.6416-71.3096ZM40.6416 0.109375C41.9385 0.109375 43.0859-0.474609 44.459-1.54199L69.9062-22.0586C70.9111-22.9043 71.5176-24.1309 71.5176-25.6514C71.5176-28.5176 69.2324-30.627 66.5596-30.627C65.3682-30.627 64.1543-30.1221 62.9844-29.1914L40.6416-11.2598L18.2988-29.1914C17.0889-30.1221 15.915-30.627 14.7236-30.627C12.0107-30.627 9.76562-28.5176 9.76562-25.6514C9.76562-24.1309 10.3721-22.9043 11.3369-22.0586L36.8242-1.54199C38.1572-0.474609 39.3047 0.109375 40.6416 0.109375Z"/>
  </g>
  <g id="Regular-S" transform="matrix(1 0 0 1 1410.64 696)">
   <path d="M39.209-69.8242C38.2324-69.8242 37.3047-69.4336 36.2793-68.6035L10.8887-48.0957C10.2051-47.4609 9.76562-46.5332 9.76562-45.2148C9.76562-42.9199 11.4746-41.1621 13.8184-41.1621C14.7461-41.1621 15.6738-41.5527 16.6992-42.334L39.209-60.5469L61.7188-42.334C62.6953-41.5527 63.6719-41.1621 64.5996-41.1621C66.8945-41.1621 68.6523-42.9199 68.6523-45.2148C68.6523-46.5332 68.2129-47.4609 67.4805-48.0957L42.1387-68.6035C41.0645-69.4336 40.1367-69.8242 39.209-69.8242ZM39.209-1.36719C40.1367-1.36719 41.0645-1.75781 42.1387-2.58789L67.4805-23.0957C68.2129-23.7305 68.6523-24.6582 68.6523-25.9766C68.6523-28.2715 66.8945-30.0293 64.5996-30.0293C63.6719-30.0293 62.6953-29.6387 61.7188-28.8574L39.209-10.6445L16.6992-28.8574C15.6738-29.6387 14.7461-30.0293 13.8184-30.0293C11.4746-30.0293 9.76562-28.2715 9.76562-25.9766C9.76562-24.6582 10.2051-23.7305 10.8887-23.0957L36.2793-2.58789C37.3047-1.75781 38.2324-1.36719 39.209-1.36719Z"/>
  </g>
  <g id="Light-S" transform="matrix(1 0 0 1 1113.96 696)">
   <path d="M39.1636-69.1733C38.3535-69.1733 37.6226-68.8433 36.8242-68.1797L10.6919-46.8545C10.1294-46.3408 9.76562-45.6553 9.76562-44.6245C9.76562-42.8896 11.0508-41.5557 12.8496-41.5557C13.5503-41.5557 14.2661-41.8252 15.0645-42.4399L39.1787-62.1816L63.2778-42.4399C64.0425-41.8252 64.792-41.5557 65.4927-41.5557C67.2578-41.5557 68.5767-42.8896 68.5767-44.6245C68.5767-45.6553 68.2129-46.3408 67.6167-46.8545L41.4878-68.1948C40.6406-68.8584 39.9399-69.1733 39.1636-69.1733ZM39.1636-2.01806C39.9399-2.01806 40.6406-2.333 41.4878-2.99658L67.6167-24.3369C68.2129-24.8506 68.5767-25.5361 68.5767-26.5669C68.5767-28.3018 67.2578-29.6357 65.4927-29.6357C64.792-29.6357 64.0425-29.3662 63.2778-28.7515L39.1787-9.00978L15.0645-28.7515C14.2661-29.3662 13.5503-29.6357 12.8496-29.6357C11.0508-29.6357 9.76562-28.3018 9.76562-26.5669C9.76562-25.5361 10.1294-24.8506 10.6919-24.3369L36.8242-3.01172C37.6226-2.34814 38.3535-2.01806 39.1636-2.01806Z"/>
  </g>
  <g id="Thin-S" transform="matrix(1 0 0 1 817.301 696)">
   <path d="M39.1035-68.3125C38.5137-68.3125 38.043-68.0625 37.5449-67.6191L10.4316-45.2129C10.0293-44.8594 9.76562-44.4942 9.76562-43.8438C9.76562-42.8496 10.4902-42.0762 11.5684-42.0762C11.9688-42.0762 12.4043-42.1855 12.9024-42.5801L39.1387-64.3437L65.3398-42.5801C65.8242-42.1855 66.2734-42.0762 66.6738-42.0762C67.7383-42.0762 68.4766-42.8496 68.4766-43.8438C68.4766-44.4942 68.2129-44.8594 67.7969-45.2129L40.627-67.6543C40.0801-68.0977 39.6797-68.3125 39.1035-68.3125ZM39.1035-2.87889C39.6797-2.87889 40.0801-3.09374 40.627-3.5371L67.7969-25.9785C68.2129-26.332 68.4766-26.6972 68.4766-27.3476C68.4766-28.3418 67.7383-29.1152 66.6738-29.1152C66.2734-29.1152 65.8242-29.0059 65.3398-28.6113L39.1387-6.84769L12.9024-28.6113C12.4043-29.0059 11.9688-29.1152 11.5684-29.1152C10.4902-29.1152 9.76562-28.3418 9.76562-27.3476C9.76562-26.6972 10.0293-26.332 10.4316-25.9785L37.5449-3.57226C38.043-3.1289 38.5137-2.87889 39.1035-2.87889Z"/>
  </g>
  <g id="Ultralight-S" transform="matrix(1 0 0 1 520.616 696)">
   <path d="M39.0728-67.8716C38.5957-67.8716 38.2583-67.6626 37.914-67.332L10.2983-44.3721C9.97803-44.1006 9.76562-43.8994 9.76562-43.4439C9.76562-42.8291 10.2031-42.3428 10.9121-42.3428C11.1587-42.3428 11.4507-42.3701 11.795-42.6519L39.1182-65.4511L66.396-42.6519C66.7368-42.3701 67.0322-42.3428 67.2788-42.3428C67.9844-42.3428 68.4253-42.8291 68.4253-43.4439C68.4253-43.8994 68.2129-44.1006 67.8892-44.3721L40.1861-67.3775C39.793-67.708 39.5464-67.8716 39.0728-67.8716ZM39.0728-3.31981C39.5464-3.31981 39.793-3.48338 40.1861-3.81396L67.8892-26.8193C68.2129-27.0908 68.4253-27.292 68.4253-27.7475C68.4253-28.3623 67.9844-28.8486 67.2788-28.8486C67.0322-28.8486 66.7368-28.8213 66.396-28.5396L39.1182-5.74027L11.795-28.5396C11.4507-28.8213 11.1587-28.8486 10.9121-28.8486C10.2031-28.8486 9.76562-28.3623 9.76562-27.7475C9.76562-27.292 9.97803-27.0908 10.2983-26.8193L37.914-3.85936C38.2583-3.52879 38.5957-3.31981 39.0728-3.31981Z"/>
  </g>
 </g>
</svg>
